<svg width="40" height="41" viewBox="0 0 40 41" fill="none" xmlns="http://www.w3.org/2000/svg">
<path d="M37.4163 26.466L33.6812 19.996C33.6263 19.9009 33.5473 19.822 33.4522 19.7671C33.3571 19.7122 33.2492 19.6834 33.1394 19.6835H26.0312L22.4756 13.5248C22.4208 13.4298 22.3419 13.3509 22.2469 13.296C22.1519 13.2412 22.0441 13.2123 21.9344 13.2123H14.8281L11.2719 6.90478C11.1875 6.76638 11.0527 6.66617 10.8958 6.6253C10.7389 6.58443 10.5724 6.6061 10.4312 6.68573C10.29 6.76536 10.1853 6.89673 10.1391 7.05211C10.0929 7.20749 10.1089 7.37473 10.1838 7.51853L13.7437 13.8335L10.3669 19.6823H3.125C2.95924 19.6823 2.80027 19.7481 2.68306 19.8653C2.56585 19.9825 2.5 20.1415 2.5 20.3073C2.5 20.473 2.56585 20.632 2.68306 20.7492C2.80027 20.8664 2.95924 20.9323 3.125 20.9323H10.3669L13.7419 26.7773L10.1863 32.936C10.1034 33.0797 10.0809 33.2503 10.1239 33.4105C10.1669 33.5707 10.2717 33.7072 10.4153 33.7901C10.5589 33.873 10.7296 33.8954 10.8898 33.8524C11.05 33.8095 11.1865 33.7047 11.2694 33.561L14.8244 27.4023H21.5713L25.1275 33.561C25.1823 33.6559 25.2611 33.7348 25.356 33.7896C25.4509 33.8445 25.5585 33.8734 25.6681 33.8735H33.1394C33.2492 33.8736 33.3571 33.8448 33.4522 33.7899C33.5473 33.7351 33.6263 33.6561 33.6812 33.561L37.4163 27.091C37.4711 26.996 37.5 26.8882 37.5 26.7785C37.5 26.6688 37.4711 26.561 37.4163 26.466ZM14.8238 14.4623H21.5738L24.9475 20.3067L21.5725 26.1523H14.8238L11.4494 20.3073L14.8238 14.4623ZM32.7787 32.6235H26.0287L22.655 26.7792L26.03 20.9335H32.7787L36.1538 26.7785L32.7787 32.6235Z" fill="black"/>
</svg>
