<svg width="30" height="31" viewBox="0 0 30 31" fill="none" xmlns="http://www.w3.org/2000/svg">
<path d="M15 28.8523C7.7625 28.8523 1.875 22.9648 1.875 15.7273C1.875 8.4898 7.7625 2.60229 15 2.60229C22.2375 2.60229 28.125 8.4898 28.125 15.7273C28.125 22.9648 22.2375 28.8523 15 28.8523ZM15 4.47729C8.79375 4.47729 3.75 9.52105 3.75 15.7273C3.75 21.9335 8.79375 26.9773 15 26.9773C21.2062 26.9773 26.25 21.9335 26.25 15.7273C26.25 9.52105 21.2062 4.47729 15 4.47729Z" fill="url(#paint0_linear_14_147)"/>
<path d="M15 22.2898C14.475 22.2898 14.0625 21.8773 14.0625 21.3523V10.1023C14.0625 9.57729 14.475 9.16479 15 9.16479C15.525 9.16479 15.9375 9.57729 15.9375 10.1023V21.3523C15.9375 21.8773 15.525 22.2898 15 22.2898Z" fill="url(#paint1_linear_14_147)"/>
<path d="M20.625 16.6648H9.375C8.85 16.6648 8.4375 16.2523 8.4375 15.7273C8.4375 15.2023 8.85 14.7898 9.375 14.7898H20.625C21.15 14.7898 21.5625 15.2023 21.5625 15.7273C21.5625 16.2523 21.15 16.6648 20.625 16.6648Z" fill="url(#paint2_linear_14_147)"/>
<defs>
<linearGradient id="paint0_linear_14_147" x1="4.60937" y1="2.23523" x2="25.2468" y2="28.1482" gradientUnits="userSpaceOnUse">
<stop stop-color="#222222"/>
<stop offset="1" stop-color="#12110B"/>
</linearGradient>
<linearGradient id="paint1_linear_14_147" x1="14.2578" y1="8.98126" x2="17.9376" y2="9.64133" gradientUnits="userSpaceOnUse">
<stop stop-color="#222222"/>
<stop offset="1" stop-color="#12110B"/>
</linearGradient>
<linearGradient id="paint2_linear_14_147" x1="9.80469" y1="14.7636" x2="10.1444" y2="17.7498" gradientUnits="userSpaceOnUse">
<stop stop-color="#222222"/>
<stop offset="1" stop-color="#12110B"/>
</linearGradient>
</defs>
</svg>
