<svg width="24" height="25" viewBox="0 0 24 25" fill="none" xmlns="http://www.w3.org/2000/svg">
<path d="M5.53601 22.6133C5.69777 22.6975 5.8794 22.736 6.06139 22.7247C6.24338 22.7134 6.41886 22.6528 6.56901 22.5493L19.569 13.5493C19.7018 13.4573 19.8104 13.3344 19.8854 13.1913C19.9604 13.0481 19.9995 12.8889 19.9995 12.7273C19.9995 12.5657 19.9604 12.4065 19.8854 12.2634C19.8104 12.1202 19.7018 11.9974 19.569 11.9053L6.56901 2.90532C6.41915 2.80078 6.24346 2.73938 6.0611 2.72783C5.87874 2.71627 5.69671 2.75501 5.53486 2.8398C5.373 2.9246 5.23753 3.05221 5.14322 3.20871C5.0489 3.36521 4.99937 3.5446 5.00001 3.72732V21.7273C4.99998 21.9099 5.04991 22.0889 5.14439 22.2451C5.23888 22.4013 5.37431 22.5286 5.53601 22.6133ZM7.00001 5.63632L17.243 12.7273L7.00001 19.8183V5.63632Z" fill="url(#paint0_linear_121_81)"/>
<defs>
<linearGradient id="paint0_linear_121_81" x1="6.56245" y1="2.44615" x2="22.6669" y2="17.611" gradientUnits="userSpaceOnUse">
<stop stop-color="#222222"/>
<stop offset="1" stop-color="#12110B"/>
</linearGradient>
</defs>
</svg>
