<svg width="48" height="49" viewBox="0 0 48 49" fill="none" xmlns="http://www.w3.org/2000/svg">
<path fill-rule="evenodd" clip-rule="evenodd" d="M7 10.7273C6.46957 10.7273 5.96086 10.938 5.58579 11.3131C5.21071 11.6882 5 12.1969 5 12.7273C5 13.2577 5.21071 13.7664 5.58579 14.1415C5.96086 14.5166 6.46957 14.7273 7 14.7273H41C41.5304 14.7273 42.0391 14.5166 42.4142 14.1415C42.7893 13.7664 43 13.2577 43 12.7273C43 12.1969 42.7893 11.6882 42.4142 11.3131C42.0391 10.938 41.5304 10.7273 41 10.7273H7ZM5 24.7273C5 24.1969 5.21071 23.6882 5.58579 23.3131C5.96086 22.938 6.46957 22.7273 7 22.7273H41C41.5304 22.7273 42.0391 22.938 42.4142 23.3131C42.7893 23.6882 43 24.1969 43 24.7273C43 25.2577 42.7893 25.7664 42.4142 26.1415C42.0391 26.5166 41.5304 26.7273 41 26.7273H7C6.46957 26.7273 5.96086 26.5166 5.58579 26.1415C5.21071 25.7664 5 25.2577 5 24.7273ZM5 36.7293C5 36.1989 5.21071 35.6902 5.58579 35.3151C5.96086 34.94 6.46957 34.7293 7 34.7293H41C41.5304 34.7293 42.0391 34.94 42.4142 35.3151C42.7893 35.6902 43 36.1989 43 36.7293C43 37.2597 42.7893 37.7684 42.4142 38.1435C42.0391 38.5186 41.5304 38.7293 41 38.7293H7C6.46957 38.7293 5.96086 38.5186 5.58579 38.1435C5.21071 37.7684 5 37.2597 5 36.7293Z" fill="url(#paint0_linear_11_78)"/>
<defs>
<linearGradient id="paint0_linear_11_78" x1="8.95833" y1="10.3357" x2="28.6785" y2="43.9379" gradientUnits="userSpaceOnUse">
<stop stop-color="#222222"/>
<stop offset="1" stop-color="#12110B"/>
</linearGradient>
</defs>
</svg>
