<svg width="30" height="33" viewBox="0 0 30 33" fill="none" xmlns="http://www.w3.org/2000/svg">
<path d="M21.0417 19.394C21.3621 19.394 21.6695 19.2535 21.8961 19.0034C22.1227 18.7534 22.25 18.4143 22.25 18.0606C22.25 17.707 22.1227 17.3679 21.8961 17.1178C21.6695 16.8678 21.3621 16.7273 21.0417 16.7273C20.7212 16.7273 20.4139 16.8678 20.1872 17.1178C19.9606 17.3679 19.8333 17.707 19.8333 18.0606C19.8333 18.4143 19.9606 18.7534 20.1872 19.0034C20.4139 19.2535 20.7212 19.394 21.0417 19.394ZM21.0417 24.7273C21.3621 24.7273 21.6695 24.5868 21.8961 24.3368C22.1227 24.0867 22.25 23.7476 22.25 23.394C22.25 23.0403 22.1227 22.7012 21.8961 22.4512C21.6695 22.2011 21.3621 22.0606 21.0417 22.0606C20.7212 22.0606 20.4139 22.2011 20.1872 22.4512C19.9606 22.7012 19.8333 23.0403 19.8333 23.394C19.8333 23.7476 19.9606 24.0867 20.1872 24.3368C20.4139 24.5868 20.7212 24.7273 21.0417 24.7273ZM16.2083 18.0606C16.2083 18.4143 16.081 18.7534 15.8544 19.0034C15.6278 19.2535 15.3205 19.394 15 19.394C14.6795 19.394 14.3722 19.2535 14.1456 19.0034C13.919 18.7534 13.7917 18.4143 13.7917 18.0606C13.7917 17.707 13.919 17.3679 14.1456 17.1178C14.3722 16.8678 14.6795 16.7273 15 16.7273C15.3205 16.7273 15.6278 16.8678 15.8544 17.1178C16.081 17.3679 16.2083 17.707 16.2083 18.0606ZM16.2083 23.394C16.2083 23.7476 16.081 24.0867 15.8544 24.3368C15.6278 24.5868 15.3205 24.7273 15 24.7273C14.6795 24.7273 14.3722 24.5868 14.1456 24.3368C13.919 24.0867 13.7917 23.7476 13.7917 23.394C13.7917 23.0403 13.919 22.7012 14.1456 22.4512C14.3722 22.2011 14.6795 22.0606 15 22.0606C15.3205 22.0606 15.6278 22.2011 15.8544 22.4512C16.081 22.7012 16.2083 23.0403 16.2083 23.394ZM8.95833 19.394C9.2788 19.394 9.58615 19.2535 9.81275 19.0034C10.0394 18.7534 10.1667 18.4143 10.1667 18.0606C10.1667 17.707 10.0394 17.3679 9.81275 17.1178C9.58615 16.8678 9.2788 16.7273 8.95833 16.7273C8.63786 16.7273 8.33052 16.8678 8.10391 17.1178C7.87731 17.3679 7.75 17.707 7.75 18.0606C7.75 18.4143 7.87731 18.7534 8.10391 19.0034C8.33052 19.2535 8.63786 19.394 8.95833 19.394ZM8.95833 24.7273C9.2788 24.7273 9.58615 24.5868 9.81275 24.3368C10.0394 24.0867 10.1667 23.7476 10.1667 23.394C10.1667 23.0403 10.0394 22.7012 9.81275 22.4512C9.58615 22.2011 9.2788 22.0606 8.95833 22.0606C8.63786 22.0606 8.33052 22.2011 8.10391 22.4512C7.87731 22.7012 7.75 23.0403 7.75 23.394C7.75 23.7476 7.87731 24.0867 8.10391 24.3368C8.33052 24.5868 8.63786 24.7273 8.95833 24.7273Z" fill="black"/>
<path fill-rule="evenodd" clip-rule="evenodd" d="M8.94792 2.86353C9.18827 2.86353 9.41878 2.96888 9.58873 3.15642C9.75869 3.34396 9.85417 3.59831 9.85417 3.86353V4.88086C10.6541 4.86353 11.535 4.86353 12.504 4.86353H17.4739C18.4442 4.86353 19.3251 4.86353 20.125 4.88086V3.86353C20.125 3.59831 20.2205 3.34396 20.3904 3.15642C20.5604 2.96888 20.7909 2.86353 21.0312 2.86353C21.2716 2.86353 21.5021 2.96888 21.6721 3.15642C21.842 3.34396 21.9375 3.59831 21.9375 3.86353V4.96619C22.2517 4.99286 22.5489 5.02619 22.8305 5.06753C24.2466 5.27819 25.3933 5.72086 26.2984 6.71819C27.2022 7.71686 27.6034 8.98219 27.7943 10.5449C27.9792 12.0649 27.9792 14.0049 27.9792 16.4555V19.2715C27.9792 21.7222 27.9792 23.6635 27.7943 25.1822C27.6034 26.7449 27.2022 28.0102 26.2984 29.0089C25.3933 30.0062 24.2466 30.4489 22.8305 30.6595C21.453 30.8635 19.6948 30.8635 17.4739 30.8635H12.5052C10.2843 30.8635 8.525 30.8635 7.14871 30.6595C5.73254 30.4489 4.58583 30.0062 3.68079 29.0089C2.77696 28.0102 2.37579 26.7449 2.18487 25.1822C2 23.6622 2 21.7222 2 19.2715V16.4555C2 14.0049 2 12.0635 2.18487 10.5449C2.37579 8.98219 2.77696 7.71686 3.68079 6.71819C4.58583 5.72086 5.73254 5.27819 7.14871 5.06753C7.43025 5.02619 7.72871 4.99286 8.04167 4.96619V3.86353C8.04167 3.59831 8.13715 3.34396 8.3071 3.15642C8.47706 2.96888 8.70756 2.86353 8.94792 2.86353ZM7.38917 7.05019C6.17479 7.23019 5.47396 7.56886 4.96283 8.13286C4.45171 8.69686 4.14479 9.47019 3.98167 10.8115C3.95387 11.0382 3.93092 11.2782 3.91158 11.5302H26.0676C26.0482 11.2769 26.0253 11.0382 25.9975 10.8102C25.8344 9.47019 25.5275 8.69686 25.0163 8.13286C24.5052 7.56886 23.8044 7.23019 22.5888 7.05019C21.3478 6.86619 19.7105 6.86353 17.4062 6.86353H12.5729C10.2686 6.86353 8.63254 6.86619 7.38917 7.05019ZM3.8125 16.5302C3.8125 15.3915 3.8125 14.4009 3.82821 13.5302H26.151C26.1667 14.4009 26.1667 15.3915 26.1667 16.5302V19.1969C26.1667 21.7395 26.1642 23.5462 25.9975 24.9169C25.8344 26.2569 25.5275 27.0302 25.0163 27.5942C24.5052 28.1582 23.8044 28.4969 22.5888 28.6769C21.3478 28.8609 19.7105 28.8635 17.4062 28.8635H12.5729C10.2686 28.8635 8.63254 28.8609 7.38917 28.6769C6.17479 28.4969 5.47396 28.1582 4.96283 27.5942C4.45171 27.0302 4.14479 26.2569 3.98167 24.9155C3.81492 23.5462 3.8125 21.7395 3.8125 19.1969V16.5302Z" fill="black"/>
</svg>
