<svg width="50" height="51" viewBox="0 0 50 51" fill="none" xmlns="http://www.w3.org/2000/svg">
<path d="M25.0004 36.7273C13.5004 36.7273 8.30039 26.6273 8.10039 26.1273C8.00039 25.8273 8.00039 25.5273 8.10039 25.2273C8.30039 24.8273 13.5004 14.7273 25.0004 14.7273C36.5004 14.7273 41.7004 24.8273 41.9004 25.3273C42.0004 25.6273 42.0004 25.9273 41.9004 26.2273C41.7004 26.6273 36.5004 36.7273 25.0004 36.7273ZM10.1004 25.7273C11.2004 27.6273 16.0004 34.7273 25.0004 34.7273C34.0004 34.7273 38.7004 27.6273 39.9004 25.7273C38.8004 23.8273 34.0004 16.7273 25.0004 16.7273C16.0004 16.7273 11.3004 23.8273 10.1004 25.7273Z" fill="#C4B48A"/>
<path d="M25 34.7273C20 34.7273 16 30.7273 16 25.7273C16 20.7273 20 16.7273 25 16.7273C30 16.7273 34 20.7273 34 25.7273C34 30.7273 30 34.7273 25 34.7273ZM25 18.7273C21.1 18.7273 18 21.8273 18 25.7273C18 29.6273 21.1 32.7273 25 32.7273C28.9 32.7273 32 29.6273 32 25.7273C32 21.8273 28.9 18.7273 25 18.7273Z" fill="#C4B48A"/>
<path d="M25 30.7273C22.2 30.7273 20 28.5273 20 25.7273C20 25.1273 20.4 24.7273 21 24.7273C21.6 24.7273 22 25.1273 22 25.7273C22 27.4273 23.3 28.7273 25 28.7273C26.7 28.7273 28 27.4273 28 25.7273C28 24.0273 26.7 22.7273 25 22.7273C24.4 22.7273 24 22.3273 24 21.7273C24 21.1273 24.4 20.7273 25 20.7273C27.8 20.7273 30 22.9273 30 25.7273C30 28.5273 27.8 30.7273 25 30.7273Z" fill="#C4B48A"/>
<path d="M11 39L39 12" stroke="#C4B48A" stroke-width="2" stroke-linecap="round"/>
</svg>
