<svg width="34" height="34" viewBox="0 0 34 34" fill="none" xmlns="http://www.w3.org/2000/svg">
<path d="M14.167 25.4773H8.50033V22.7273H14.167V25.4773ZM14.167 19.9773H8.50033V17.2273H14.167V19.9773ZM14.167 2.10229V3.47729H8.50033C6.92783 3.47729 5.66699 4.70104 5.66699 6.22729V28.2273C5.66699 28.9566 5.9655 29.6561 6.49686 30.1718C7.02821 30.6876 7.74888 30.9773 8.50033 30.9773H14.167V32.3523H17.0003V2.10229H14.167ZM28.3337 11.7273V28.2273C28.3337 29.7535 27.0728 30.9773 25.5003 30.9773H19.8337V28.2273H25.5003V15.8523H19.8337V13.1023H26.2087L19.8337 6.91479V3.47729L28.3337 11.7273ZM22.667 19.9773H19.8337V17.2273H22.667V19.9773ZM22.667 25.4773H19.8337V22.7273H22.667V25.4773Z" fill="black"/>
</svg>
