<svg width="40" height="41" viewBox="0 0 40 41" fill="none" xmlns="http://www.w3.org/2000/svg">
<path d="M11.6206 30.0447L15.3173 26.348C14.9306 26.1194 14.608 25.7967 14.3793 25.41L10.6826 29.1067C11.0693 29.3354 11.392 29.658 11.6206 30.0447Z" fill="#C4B48A"/>
<path d="M23.333 16.0607H16.6663C15.93 16.0607 15.333 16.6576 15.333 17.394V24.0607C15.333 24.797 15.93 25.394 16.6663 25.394H23.333C24.0694 25.394 24.6663 24.797 24.6663 24.0607V17.394C24.6663 16.6576 24.0694 16.0607 23.333 16.0607Z" fill="#C4B48A"/>
<path d="M11.6206 11.41C11.392 11.7967 11.0693 12.1194 10.6826 12.348L14.3793 16.0447C14.608 15.658 14.9306 15.3354 15.3173 15.1067L11.6206 11.41Z" fill="#C4B48A"/>
<path d="M9.33301 30.0607H2.66634C1.92996 30.0607 1.33301 30.6576 1.33301 31.394V38.0607C1.33301 38.797 1.92996 39.394 2.66634 39.394H9.33301C10.0694 39.394 10.6663 38.797 10.6663 38.0607V31.394C10.6663 30.6576 10.0694 30.0607 9.33301 30.0607Z" fill="#C4B48A"/>
<path d="M29.317 29.1067L25.6203 25.41C25.3917 25.7967 25.069 26.1194 24.6823 26.348L28.379 30.0447C28.6077 29.658 28.9303 29.3354 29.317 29.1067ZM19.333 26.7274H20.6663V31.394H19.333V26.7274Z" fill="#C4B48A"/>
<path d="M37.3333 17.394H33.3333C32.597 17.394 32 17.991 32 18.7274V22.7274C32 23.4638 32.597 24.0607 33.3333 24.0607H37.3333C38.0697 24.0607 38.6667 23.4638 38.6667 22.7274V18.7274C38.6667 17.991 38.0697 17.394 37.3333 17.394Z" fill="#C4B48A"/>
<path d="M25.6206 16.0447L29.3173 12.348C28.9306 12.1194 28.608 11.7967 28.3793 11.41L24.6826 15.1067C25.0693 15.3354 25.392 15.658 25.6206 16.0447ZM26 20.0607H30.6666V21.394H26V20.0607Z" fill="#C4B48A"/>
<path d="M37.333 2.06067H30.6663C29.93 2.06067 29.333 2.65762 29.333 3.394V10.0607C29.333 10.797 29.93 11.394 30.6663 11.394H37.333C38.0694 11.394 38.6663 10.797 38.6663 10.0607V3.394C38.6663 2.65762 38.0694 2.06067 37.333 2.06067Z" fill="#C4B48A"/>
<path d="M9.33301 20.0607H13.9997V21.394H9.33301V20.0607Z" fill="black"/>
<path d="M6.66634 17.394H2.66634C1.92996 17.394 1.33301 17.991 1.33301 18.7274V22.7274C1.33301 23.4638 1.92996 24.0607 2.66634 24.0607H6.66634C7.40272 24.0607 7.99967 23.4638 7.99967 22.7274V18.7274C7.99967 17.991 7.40272 17.394 6.66634 17.394Z" fill="#C4B48A"/>
<path d="M9.33301 2.06067H2.66634C1.92996 2.06067 1.33301 2.65762 1.33301 3.394V10.0607C1.33301 10.797 1.92996 11.394 2.66634 11.394H9.33301C10.0694 11.394 10.6663 10.797 10.6663 10.0607V3.394C10.6663 2.65762 10.0694 2.06067 9.33301 2.06067Z" fill="#C4B48A"/>
<path d="M37.333 30.0607H30.6663C29.93 30.0607 29.333 30.6576 29.333 31.394V38.0607C29.333 38.797 29.93 39.394 30.6663 39.394H37.333C38.0694 39.394 38.6663 38.797 38.6663 38.0607V31.394C38.6663 30.6576 38.0694 30.0607 37.333 30.0607Z" fill="#C4B48A"/>
<path d="M21.9993 32.7273H17.9993C17.263 32.7273 16.666 33.3242 16.666 34.0606V38.0606C16.666 38.797 17.263 39.394 17.9993 39.394H21.9993C22.7357 39.394 23.3327 38.797 23.3327 38.0606V34.0606C23.3327 33.3242 22.7357 32.7273 21.9993 32.7273Z" fill="#C4B48A"/>
<path d="M21.9993 2.06067H17.9993C17.263 2.06067 16.666 2.65762 16.666 3.394V7.394C16.666 8.13038 17.263 8.72734 17.9993 8.72734H21.9993C22.7357 8.72734 23.3327 8.13038 23.3327 7.394V3.394C23.3327 2.65762 22.7357 2.06067 21.9993 2.06067Z" fill="#C4B48A"/>
<path d="M19.333 10.0607H20.6663V14.7273H19.333V10.0607Z" fill="#C4B48A"/>
</svg>
