<svg width="48" height="49" viewBox="0 0 48 49" fill="none" xmlns="http://www.w3.org/2000/svg">
<path d="M24 5.97729C20.2916 5.97729 16.6665 7.07696 13.5831 9.13724C10.4996 11.1975 8.09641 14.1259 6.67727 17.552C5.25812 20.9781 4.88681 24.7481 5.61028 28.3852C6.33376 32.0224 8.11952 35.3633 10.7418 37.9855C13.364 40.6078 16.7049 42.3935 20.3421 43.117C23.9792 43.8405 27.7492 43.4692 31.1753 42.05C34.6014 40.6309 37.5298 38.2277 39.5901 35.1442C41.6503 32.0608 42.75 28.4357 42.75 24.7273C42.7445 19.7562 40.7674 14.9902 37.2522 11.4751C33.7371 7.95995 28.9711 5.98275 24 5.97729ZM24 41.9773C20.5883 41.9773 17.2532 40.9656 14.4164 39.0701C11.5797 37.1747 9.3687 34.4806 8.06309 31.3286C6.75747 28.1766 6.41587 24.7082 7.08146 21.362C7.74706 18.0158 9.38996 14.9422 11.8024 12.5297C14.2149 10.1172 17.2885 8.47434 20.6347 7.80875C23.9809 7.14315 27.4493 7.48476 30.6013 8.79037C33.7533 10.096 36.4474 12.307 38.3429 15.1437C40.2383 17.9805 41.25 21.3156 41.25 24.7273C41.245 29.3008 39.426 33.6855 36.1921 36.9194C32.9582 40.1533 28.5735 41.9723 24 41.9773ZM30.6 29.6792C29.5608 31.0639 28.1123 32.0867 26.4596 32.6026C24.8069 33.1184 23.0338 33.1013 21.3914 32.5536C19.749 32.0058 18.3206 30.9553 17.3083 29.5507C16.2961 28.1461 15.7514 26.4586 15.7514 24.7273C15.7514 22.996 16.2961 21.3085 17.3083 19.9039C18.3206 18.4993 19.749 17.4488 21.3914 16.901C23.0338 16.3533 24.8069 16.3362 26.4596 16.852C28.1123 17.3679 29.5608 18.3906 30.6 19.7754C30.6592 19.8542 30.7023 19.9439 30.7269 20.0394C30.7515 20.1348 30.757 20.2342 30.7431 20.3318C30.7293 20.4293 30.6964 20.5233 30.6462 20.6081C30.5961 20.693 30.5297 20.7671 30.4509 20.8264C30.3722 20.8856 30.2825 20.9287 30.187 20.9533C30.0916 20.9778 29.9922 20.9833 29.8946 20.9695C29.797 20.9556 29.7031 20.9227 29.6182 20.8726C29.5334 20.8224 29.4592 20.7561 29.4 20.6773C28.55 19.5439 27.3649 18.7067 26.0126 18.2843C24.6604 17.8619 23.2095 17.8757 21.8655 18.3237C20.5215 18.7717 19.3525 19.6312 18.5241 20.7805C17.6958 21.9298 17.25 23.3106 17.25 24.7273C17.25 26.144 17.6958 27.5248 18.5241 28.6741C19.3525 29.8234 20.5215 30.6829 21.8655 31.1309C23.2095 31.5789 24.6604 31.5927 26.0126 31.1703C27.3649 30.7478 28.55 29.9107 29.4 28.7773C29.5196 28.6182 29.6975 28.5131 29.8946 28.4851C30.0917 28.4572 30.2918 28.5086 30.4509 28.6282C30.6101 28.7478 30.7152 28.9257 30.7431 29.1228C30.7711 29.3199 30.7196 29.52 30.6 29.6792Z" fill="url(#paint0_linear_177_408)"/>
<defs>
<linearGradient id="paint0_linear_177_408" x1="9.15625" y1="5.45291" x2="38.6383" y2="42.4715" gradientUnits="userSpaceOnUse">
<stop stop-color="#222222"/>
<stop offset="1" stop-color="#12110B"/>
</linearGradient>
</defs>
</svg>
