<svg width="41" height="40" viewBox="0 0 41 40" fill="none" xmlns="http://www.w3.org/2000/svg">
<path d="M25.2326 9.87035C23.8084 7.87697 22.2059 6.08132 20.4547 4.51639C20.3374 4.41697 20.1978 4.36365 20.0547 4.36365C19.9116 4.36365 19.7719 4.41697 19.6547 4.51639C17.9035 6.08132 16.301 7.87697 14.8768 9.87035C11.7221 14.2662 10.0547 18.8918 10.0547 23.2468C10.0547 26.4604 11.1083 29.5424 12.9836 31.8147C14.859 34.0871 17.4025 35.3636 20.0547 35.3636C22.7069 35.3636 25.2504 34.0871 27.1258 31.8147C29.0011 29.5424 30.0547 26.4604 30.0547 23.2468C30.0547 18.8918 28.3872 14.2662 25.2326 9.87035ZM20.0547 33.6729C17.7734 33.6696 15.5864 32.57 13.9733 30.6155C12.3603 28.6609 11.4528 26.0109 11.45 23.2468C11.45 14.8467 18.3105 7.89924 20.0547 6.26769C21.7989 7.89924 28.6593 14.8467 28.6593 23.2468C28.6566 26.0109 27.7491 28.6609 26.136 30.6155C24.523 32.57 22.3359 33.6696 20.0547 33.6729ZM26.3245 24.5148C26.0918 26.09 25.4665 27.5411 24.5326 28.6726C23.5988 29.8042 22.4012 30.5619 21.1012 30.8438C21.0627 30.8509 21.0239 30.8547 20.9849 30.8551C20.8095 30.8559 20.6403 30.7766 20.5109 30.6331C20.3816 30.4895 20.3016 30.2922 20.2869 30.0804C20.2723 29.8686 20.324 29.6578 20.4318 29.4902C20.5396 29.3225 20.6956 29.2102 20.8686 29.1756C22.8896 28.7642 24.6047 26.6846 24.9477 24.233C24.9786 24.0118 25.0807 23.8145 25.2316 23.6845C25.3063 23.6202 25.3907 23.5742 25.4801 23.5494C25.5694 23.5246 25.662 23.5213 25.7524 23.5399C25.8428 23.5584 25.9293 23.5982 26.0069 23.6573C26.0846 23.7163 26.1519 23.7932 26.2051 23.8838C26.2582 23.9743 26.2961 24.0766 26.3166 24.1849C26.337 24.2932 26.3397 24.4053 26.3245 24.5148Z" fill="#C4B48A"/>
</svg>
