<svg width="26" height="33" viewBox="0 0 26 33" fill="none" xmlns="http://www.w3.org/2000/svg">
<path d="M18.1779 5.87035C16.7537 3.87697 15.1512 2.08132 13.4 0.516386C13.2828 0.41697 13.1431 0.363647 13 0.363647C12.8569 0.363647 12.7172 0.41697 12.6 0.516386C10.8488 2.08132 9.24632 3.87697 7.82209 5.87035C4.66744 10.2662 3 14.8918 3 19.2468C3 22.4604 4.05357 25.5424 5.92893 27.8147C7.8043 30.0871 10.3478 31.3636 13 31.3636C15.6522 31.3636 18.1957 30.0871 20.0711 27.8147C21.9464 25.5424 23 22.4604 23 19.2468C23 14.8918 21.3326 10.2662 18.1779 5.87035ZM13 29.6729C10.7188 29.6696 8.53174 28.57 6.91865 26.6155C5.30557 24.6609 4.39812 22.0109 4.39535 19.2468C4.39535 10.8467 11.2558 3.89924 13 2.26769C14.7442 3.89924 21.6047 10.8467 21.6047 19.2468C21.6019 22.0109 20.6944 24.6609 19.0813 26.6155C17.4683 28.57 15.2812 29.6696 13 29.6729ZM19.2698 20.5148C19.0371 22.09 18.4118 23.5411 17.4779 24.6726C16.5441 25.8042 15.3465 26.5619 14.0465 26.8438C14.008 26.8509 13.9692 26.8547 13.9302 26.8551C13.7548 26.8559 13.5856 26.7766 13.4562 26.6331C13.3269 26.4895 13.2469 26.2922 13.2322 26.0804C13.2176 25.8686 13.2693 25.6578 13.3771 25.4902C13.4849 25.3225 13.6409 25.2102 13.814 25.1756C15.8349 24.7642 17.55 22.6846 17.893 20.233C17.9239 20.0118 18.026 19.8145 18.1769 19.6845C18.2516 19.6202 18.336 19.5742 18.4254 19.5494C18.5148 19.5246 18.6073 19.5213 18.6977 19.5399C18.7881 19.5584 18.8746 19.5982 18.9523 19.6573C19.0299 19.7163 19.0972 19.7932 19.1504 19.8838C19.2035 19.9743 19.2414 20.0766 19.2619 20.1849C19.2824 20.2932 19.285 20.4053 19.2698 20.5148Z" fill="url(#paint0_linear_232_1563)"/>
<defs>
<linearGradient id="paint0_linear_232_1563" x1="5.08333" y1="-0.0698444" x2="29.5448" y2="19.746" gradientUnits="userSpaceOnUse">
<stop stop-color="#222222"/>
<stop offset="1" stop-color="#12110B"/>
</linearGradient>
</defs>
</svg>
