<svg width="32" height="33" viewBox="0 0 32 33" fill="none" xmlns="http://www.w3.org/2000/svg">
<g clip-path="url(#clip0_390_9010)">
<path d="M12.2829 32.6893H3.83105C2.82406 32.6893 1.85831 32.2893 1.14626 31.5773C0.434206 30.8652 0.0341797 29.8995 0.0341797 28.8925L0.0341797 4.52416C0.0341797 3.51717 0.434206 2.55142 1.14626 1.83937C1.85831 1.12732 2.82406 0.727295 3.83105 0.727295L21.4105 0.727295C22.4175 0.727295 23.3833 1.12732 24.0953 1.83937C24.8074 2.55142 25.2074 3.51717 25.2074 4.52416V14.0771C25.2186 14.196 25.2049 14.316 25.1671 14.4294C25.1292 14.5427 25.0682 14.6469 24.9877 14.7353C24.9073 14.8236 24.8093 14.8942 24.7001 14.9425C24.5908 14.9909 24.4726 15.0158 24.3531 15.0158C24.2336 15.0158 24.1155 14.9909 24.0062 14.9425C23.8969 14.8942 23.7989 14.8236 23.7185 14.7353C23.6381 14.6469 23.577 14.5427 23.5392 14.4294C23.5013 14.316 23.4876 14.196 23.4988 14.0771V4.52416C23.4988 4.25327 23.4453 3.98505 23.3414 3.73488C23.2376 3.48471 23.0853 3.25751 22.8934 3.06631C22.7015 2.87512 22.4737 2.7237 22.2232 2.62072C21.9726 2.51775 21.7042 2.46526 21.4333 2.46626H3.83105C3.55889 2.46325 3.28884 2.51425 3.03652 2.61632C2.78421 2.71839 2.55465 2.8695 2.36114 3.06089C2.16763 3.25229 2.014 3.48017 1.90916 3.73134C1.80432 3.98251 1.75035 4.25199 1.75036 4.52416V28.9152C1.75035 29.1874 1.80432 29.4569 1.90916 29.7081C2.014 29.9592 2.16763 30.1871 2.36114 30.3785C2.55465 30.5699 2.78421 30.721 3.03652 30.8231C3.28884 30.9252 3.55889 30.9762 3.83105 30.9731H12.2829C12.5105 30.9731 12.7287 31.0635 12.8896 31.2245C13.0506 31.3854 13.141 31.6037 13.141 31.8312C13.141 32.0588 13.0506 32.2771 12.8896 32.438C12.7287 32.5989 12.5105 32.6893 12.2829 32.6893Z" fill="black"/>
<path d="M19.816 9.90053H5.38794C5.26899 9.91176 5.149 9.89802 5.03566 9.86019C4.92232 9.82236 4.81813 9.76129 4.72976 9.68086C4.64139 9.60044 4.57079 9.50245 4.52248 9.39317C4.47417 9.28389 4.44922 9.16572 4.44922 9.04623C4.44922 8.92675 4.47417 8.80858 4.52248 8.6993C4.57079 8.59001 4.64139 8.49202 4.72976 8.4116C4.81813 8.33118 4.92232 8.2701 5.03566 8.23228C5.149 8.19445 5.26899 8.18071 5.38794 8.19194H19.816C20.0287 8.21201 20.2263 8.31069 20.37 8.46868C20.5138 8.62667 20.5935 8.83261 20.5935 9.04623C20.5935 9.25985 20.5138 9.46579 20.37 9.62378C20.2263 9.78177 20.0287 9.88045 19.816 9.90053Z" fill="black"/>
<path d="M13.3463 16.5678H5.41083C5.18325 16.5678 4.96499 16.4774 4.80406 16.3165C4.64314 16.1556 4.55273 15.9373 4.55273 15.7097C4.55273 15.4822 4.64314 15.2639 4.80406 15.103C4.96499 14.9421 5.18325 14.8516 5.41083 14.8516H13.3463C13.5739 14.8516 13.7921 14.9421 13.953 15.103C14.114 15.2639 14.2044 15.4822 14.2044 15.7097C14.2044 15.9373 14.114 16.1556 13.953 16.3165C13.7921 16.4774 13.5739 16.5678 13.3463 16.5678Z" fill="black"/>
<path d="M29.1633 23.8654C29.0376 23.8656 28.9132 23.8409 28.7972 23.7927C28.6812 23.7445 28.5759 23.6737 28.4874 23.5844L25.0323 20.1217C24.854 19.9435 24.7539 19.7017 24.7539 19.4497C24.7539 19.1976 24.854 18.9558 25.0323 18.7776C25.2105 18.5994 25.4523 18.4992 25.7043 18.4992C25.9564 18.4992 26.1981 18.5994 26.3764 18.7776L29.8391 22.2404C30.014 22.4203 30.1118 22.6614 30.1118 22.9124C30.1118 23.1634 30.014 23.4044 29.8391 23.5844C29.7507 23.6737 29.6454 23.7445 29.5294 23.7927C29.4133 23.8409 29.2889 23.8656 29.1633 23.8654Z" fill="black"/>
<path d="M15.8896 32.7273L16.8541 26.9561L26.4753 17.3348C26.9138 16.8975 27.5077 16.6519 28.127 16.6519C28.7462 16.6519 29.3401 16.8975 29.7786 17.3348L31.2973 18.8535C31.7346 19.292 31.9802 19.8859 31.9802 20.5052C31.9802 21.1244 31.7346 21.7184 31.2973 22.1568L21.6609 31.7629L15.8896 32.7273ZM18.631 27.8369L18.2133 30.3732L20.7496 29.948L29.9457 20.7596C30.0259 20.6773 30.0708 20.5669 30.0708 20.452C30.0708 20.3371 30.0259 20.2267 29.9457 20.1445L28.4269 18.6257C28.3446 18.5455 28.2343 18.5006 28.1194 18.5006C28.0044 18.5006 27.8941 18.5455 27.8118 18.6257L18.631 27.8369Z" fill="black"/>
</g>
<defs>
<clipPath id="clip0_390_9010">
<rect width="32" height="32" fill="white" transform="translate(0 0.727295)"/>
</clipPath>
</defs>
</svg>
