<svg width="32" height="29" viewBox="0 0 32 29" fill="none" xmlns="http://www.w3.org/2000/svg">
<path d="M29 26.7273H3C1.34 26.7273 0 25.3873 0 23.7273V5.72729C0 4.06729 1.34 2.72729 3 2.72729H29C30.66 2.72729 32 4.06729 32 5.72729V23.7273C32 25.3873 30.66 26.7273 29 26.7273ZM3 4.72729C2.44 4.72729 2 5.16729 2 5.72729V23.7273C2 24.2873 2.44 24.7273 3 24.7273H29C29.56 24.7273 30 24.2873 30 23.7273V5.72729C30 5.16729 29.56 4.72729 29 4.72729H3Z" fill="url(#paint0_linear_4_113)"/>
<path d="M15.9998 18.6473C14.5998 18.6473 13.3198 18.0873 12.3598 17.0673L1.85985 5.90729C1.47985 5.50729 1.49985 4.86729 1.89985 4.48729C2.29985 4.10729 2.93985 4.12729 3.31985 4.52729L13.8198 15.6873C14.9598 16.9073 17.0398 16.9073 18.1798 15.6873L28.6798 4.54729C29.0598 4.14729 29.6998 4.12729 30.0998 4.50729C30.4998 4.88729 30.5198 5.52729 30.1398 5.92729L19.6398 17.0873C18.6798 18.1073 17.3998 18.6673 15.9998 18.6673V18.6473Z" fill="url(#paint1_linear_4_113)"/>
<defs>
<linearGradient id="paint0_linear_4_113" x1="3.33333" y1="2.39169" x2="20.379" y2="30.9292" gradientUnits="userSpaceOnUse">
<stop stop-color="#222222"/>
<stop offset="1" stop-color="#12110B"/>
</linearGradient>
<linearGradient id="paint1_linear_4_113" x1="4.58961" y1="4.01225" x2="12.6199" y2="24.1225" gradientUnits="userSpaceOnUse">
<stop stop-color="#222222"/>
<stop offset="1" stop-color="#12110B"/>
</linearGradient>
</defs>
</svg>
