<svg width="38" height="39" viewBox="0 0 38 39" fill="none" xmlns="http://www.w3.org/2000/svg">
<path d="M11.0568 2.39499L10.5929 2.40189L10.4026 2.85878C9.42033 5.64614 8.82324 8.72206 8.82324 11.6235C8.82324 15.6148 9.92524 18.5385 11.7826 20.4463C13.1887 21.8904 15.0008 22.7245 16.9895 23.0439C18.2579 26.6149 18.1833 30.5404 16.7994 34.0793C14.5316 34.4591 12.3274 35.4355 10.3933 37.0109H27.5542C25.6196 35.4352 23.4165 34.459 21.1482 34.0793C19.7627 30.5365 19.692 26.6065 20.965 23.0323C22.9377 22.707 24.7383 21.878 26.1417 20.4463C28.0109 18.5395 29.1243 15.6162 29.1243 11.6236C29.1243 8.72214 28.5272 5.64621 27.5449 2.85878L27.3825 2.39491H11.0566L11.0568 2.39499ZM11.5578 3.78184H26.3899C26.9279 5.40092 27.328 7.11456 27.5471 8.80793H10.4004C10.6196 7.11456 11.0197 5.40092 11.5577 3.78184H11.5578ZM10.2612 10.1948H27.6862C27.7196 10.6765 27.7374 11.1531 27.7374 11.6235C27.7374 15.3609 26.7195 17.8772 25.1513 19.4768C23.5831 21.0765 21.4185 21.8077 18.9518 21.8077C16.4849 21.8077 14.3319 21.0757 12.7753 19.4769C11.2187 17.8781 10.2101 15.3624 10.2101 11.6236C10.2101 11.1532 10.2279 10.6765 10.2612 10.1949V10.1948Z" fill="url(#paint0_linear_108_88)"/>
<defs>
<linearGradient id="paint0_linear_108_88" x1="10.9379" y1="1.91086" x2="37.6026" y2="21.5463" gradientUnits="userSpaceOnUse">
<stop stop-color="#222222"/>
<stop offset="1" stop-color="#12110B"/>
</linearGradient>
</defs>
</svg>
