<svg width="39" height="39" viewBox="0 0 39 39" fill="none" xmlns="http://www.w3.org/2000/svg">
<path d="M29.6906 33.4631C29.2445 32.6489 28.4757 31.0503 27.8351 28.7266C27.025 25.7908 27.0454 25.2632 27.3803 23.35C28.6481 16.0883 27.891 12.2796 26.2254 7.89483C25.3274 5.53677 25.0874 5.65033 25.0874 5.65033C25.0874 5.65033 23.4358 5.31896 21.1086 5.92696C19.3714 6.37831 18.2287 7.09988 17.7617 7.43649C18.1396 5.19433 17.8933 5.17162 17.8933 5.17162C17.8933 5.17162 16.633 4.08198 14.307 3.47514C11.9786 2.8683 10.3264 3.19968 10.3264 3.19968C10.3264 3.19968 10.087 3.08611 9.18959 5.44417C7.5234 9.8295 6.76689 13.6371 8.03531 20.8982C8.3696 22.8108 8.38882 23.339 7.58047 26.2748C6.93986 28.5985 6.17053 30.1965 5.72443 31.0113C3.76879 30.6613 2.18646 30.8523 2.00068 31.5243C1.7852 32.3117 3.55389 33.4538 5.95505 34.0787C8.35271 34.7036 10.4749 34.5743 10.691 33.7892C10.8808 33.0974 9.53494 32.1283 7.5729 31.4795C7.60726 30.5541 7.76392 28.8023 8.40105 26.4914C9.20997 23.5545 9.5 23.1054 10.7719 21.614C15.1928 16.4279 16.658 12.9173 17.4984 8.83363C17.5369 9.16442 17.5974 9.58082 17.6918 10.1184C18.5042 14.7238 19.8064 18.3899 24.6419 24.0617C25.915 25.5561 26.205 26.0057 27.0134 28.9415C27.6505 31.2553 27.8077 33.0065 27.8421 33.9313C25.8806 34.5795 24.5336 35.5474 24.724 36.2393C24.9401 37.0255 27.0617 37.1536 29.4617 36.5299C31.8611 35.905 33.6315 34.7612 33.4137 33.9738C33.2279 33.3024 31.6479 33.1125 29.6906 33.4631ZM9.7248 33.5371C8.99333 34.3873 6.46754 33.7048 6.08434 33.6052C5.72443 33.5108 3.16253 32.8691 2.96627 31.7771C2.96627 31.7771 3.23417 32.3537 6.21479 33.1306C9.196 33.9057 9.7248 33.5371 9.7248 33.5371ZM6.73078 31.0957C6.55665 31.8359 6.48793 32.1364 6.14549 32.0491C5.84847 31.9704 5.80188 31.6857 5.90788 31.4976C7.15592 29.2886 8.30612 25.5445 8.30612 25.5445C8.30612 25.5445 7.03129 29.8121 6.73078 31.0957ZM15.0466 5.85358C14.9097 6.8809 14.6762 7.96588 14.3815 9.06541C14.7593 8.8266 15.1205 8.56236 15.4624 8.27454C14.3483 13.3838 10.5786 19.9746 12.8423 16.3784C15.0839 12.8171 16.0885 8.86042 16.3034 7.55996C16.7833 7.16219 17.0436 7.02941 16.9719 7.60655C16.2475 11.685 15.1008 14.9207 11.5972 19.43C10.4906 20.8545 8.67302 20.4585 8.41735 18.4231C8.07491 15.6859 8.07375 13.4863 8.33815 11.4934C8.45343 11.1816 8.6346 10.8983 8.86928 10.6629C9.43361 7.49066 10.6287 4.87635 10.8989 4.31377C10.645 4.11867 10.4714 3.92183 10.4353 3.7378C10.4353 3.7378 11.3304 4.47975 13.9261 5.15473C16.5206 5.83204 17.6784 5.62471 17.6784 5.62471C17.3423 6.00384 16.1059 5.9852 15.0466 5.85358ZM26.997 20.8563C26.742 22.8946 24.6687 23.0204 23.522 21.4992C20.2606 17.1751 19.1448 14.0191 18.4407 10.0572C18.3691 9.47949 18.6294 9.61169 19.1093 10.0095C19.3242 11.3076 20.3294 15.2654 22.5704 18.8284C24.8347 22.4264 21.0632 15.8327 19.9497 10.7235C20.2723 10.989 20.6328 11.2668 21.0207 11.5073C20.73 10.4014 20.5018 9.31875 20.3666 8.30424C19.3067 8.43528 18.0709 8.45391 17.7331 8.07362C17.7331 8.07362 18.8909 8.28036 21.4866 7.6048C24.0811 6.92749 24.9762 6.18671 24.9762 6.18671C24.8352 6.90886 22.5919 7.82378 21.6158 8.07886L21.5815 8.08701C21.6543 8.63154 21.8604 10.0642 22.2757 12.0688C22.5156 12.1316 22.7591 12.1759 23.0066 12.1759C23.833 12.1759 24.7956 12.2062 25.5982 12.5149C25.36 11.2295 25.0501 9.95063 24.6407 8.85809C24.1585 7.56462 24.8976 7.62169 25.2744 8.51798C25.4957 9.04154 26.0111 10.7252 26.3448 12.9342C26.6552 13.1817 26.9091 13.5084 27.0728 13.9434C27.3372 15.9334 27.3372 18.1267 26.997 20.8563ZM27.1077 27.994C27.1077 27.994 28.2579 31.7387 29.5077 33.9476C29.6125 34.134 29.5659 34.4211 29.2689 34.4968C28.9265 34.5883 28.8583 34.2866 28.6836 33.5458C28.3825 32.2634 27.1077 27.994 27.1077 27.994ZM29.3318 36.0547C28.9469 36.1549 26.4217 36.8374 25.689 35.9865C25.689 35.9865 26.2178 36.3581 29.199 35.5818C32.1797 34.8043 32.447 34.2278 32.447 34.2278C32.2507 35.3191 29.6894 35.9621 29.3318 36.0547Z" fill="#AC924D"/>
<path d="M11.8783 4.89441C11.5923 5.39642 10.9278 6.80404 10.2109 9.93899C10.922 9.74972 11.7117 9.72759 12.4071 9.72759C12.6424 9.72759 12.8747 9.68682 13.103 9.62916C13.541 7.60889 13.7553 6.18031 13.8299 5.63753L13.7978 5.62937C13.3267 5.50649 12.5608 5.22928 11.8783 4.89441Z" fill="#AC924D"/>
</svg>
