<svg width="48" height="49" viewBox="0 0 48 49" fill="none" xmlns="http://www.w3.org/2000/svg">
<path d="M37.1824 42.7685C36.6079 41.72 35.6179 39.6613 34.7929 36.6688C33.7496 32.888 33.7759 32.2085 34.2071 29.7448C35.8399 20.393 34.8649 15.488 32.7199 9.84129C31.5634 6.80454 31.2544 6.95079 31.2544 6.95079C31.2544 6.95079 29.1274 6.52404 26.1304 7.30704C23.8931 7.88829 22.4216 8.81754 21.8201 9.25104C22.3069 6.36354 21.9896 6.33429 21.9896 6.33429C21.9896 6.33429 20.3666 4.93104 17.3711 4.14954C14.3726 3.36804 12.2449 3.79479 12.2449 3.79479C12.2449 3.79479 11.9366 3.64854 10.7809 6.68529C8.63514 12.3328 7.66089 17.2363 9.29439 26.5873C9.72489 29.0503 9.74964 29.7305 8.70864 33.5113C7.88364 36.5038 6.89289 38.5618 6.31839 39.611C3.79989 39.1603 1.76214 39.4063 1.52289 40.2718C1.24539 41.2858 3.52314 42.7565 6.61539 43.5613C9.70314 44.366 12.4361 44.1995 12.7144 43.1885C12.9589 42.2975 11.2256 41.0495 8.69889 40.214C8.74314 39.0223 8.94489 36.7663 9.76539 33.7903C10.8071 30.008 11.1806 29.4298 12.8186 27.509C18.5119 20.8303 20.3989 16.3093 21.4811 11.0503C21.5306 11.4763 21.6086 12.0125 21.7301 12.7048C22.7764 18.6358 24.4534 23.357 30.6806 30.6613C32.3201 32.5858 32.6936 33.1648 33.7346 36.9455C34.5551 39.9253 34.7576 42.1805 34.8019 43.3715C32.2759 44.2063 30.5411 45.4528 30.7864 46.3438C31.0646 47.3563 33.7969 47.5213 36.8876 46.718C39.9776 45.9133 42.2576 44.4403 41.9771 43.4263C41.7379 42.5615 39.7031 42.317 37.1824 42.7685ZM11.4701 42.8638C10.5281 43.9588 7.27539 43.0798 6.78189 42.9515C6.31839 42.83 3.01914 42.0035 2.76639 40.5973C2.76639 40.5973 3.11139 41.3398 6.94989 42.3403C10.7891 43.3385 11.4701 42.8638 11.4701 42.8638ZM7.61439 39.7198C7.39014 40.673 7.30164 41.06 6.86064 40.9475C6.47814 40.8463 6.41814 40.4795 6.55464 40.2373C8.16189 37.3925 9.64314 32.5708 9.64314 32.5708C9.64314 32.5708 8.00139 38.0668 7.61439 39.7198ZM18.3236 7.21254C18.1474 8.53554 17.8466 9.93279 17.4671 11.3488C17.9537 11.0412 18.4188 10.701 18.8591 10.3303C17.4244 16.91 12.5696 25.3978 15.4849 20.7665C18.3716 16.1803 19.6654 11.0848 19.9421 9.41004C20.5601 8.89779 20.8954 8.72679 20.8031 9.47004C19.8701 14.7223 18.3934 18.8893 13.8814 24.6965C12.4564 26.531 10.1156 26.021 9.78639 23.3998C9.34539 19.8748 9.34389 17.042 9.68439 14.4755C9.83285 14.074 10.0662 13.7092 10.3684 13.406C11.0951 9.32079 12.6341 5.95404 12.9821 5.22954C12.6551 4.97829 12.4316 4.72479 12.3851 4.48779C12.3851 4.48779 13.5379 5.44329 16.8806 6.31254C20.2219 7.18479 21.7129 6.91779 21.7129 6.91779C21.2801 7.40604 19.6879 7.38204 18.3236 7.21254ZM33.7136 26.5333C33.3851 29.1583 30.7151 29.3203 29.2384 27.3613C25.0384 21.7925 23.6014 17.7283 22.6946 12.626C22.6024 11.882 22.9376 12.0523 23.5556 12.5645C23.8324 14.2363 25.1269 19.3333 28.0129 23.9218C30.9289 28.5553 26.0719 20.0638 24.6379 13.484C25.0534 13.826 25.5176 14.1838 26.0171 14.4935C25.6429 13.0693 25.3489 11.675 25.1749 10.3685C23.8099 10.5373 22.2184 10.5613 21.7834 10.0715C21.7834 10.0715 23.2744 10.3378 26.6171 9.46779C29.9584 8.59554 31.1111 7.64154 31.1111 7.64154C30.9296 8.57154 28.0406 9.74979 26.7836 10.0783L26.7394 10.0888C26.8331 10.79 27.0986 12.635 27.6334 15.2165C27.9424 15.2975 28.2559 15.3545 28.5746 15.3545C29.6389 15.3545 30.8786 15.3935 31.9121 15.791C31.6054 14.1358 31.2064 12.4888 30.6791 11.0818C30.0581 9.41604 31.0099 9.48954 31.4951 10.6438C31.7801 11.318 32.4439 13.4863 32.8736 16.331C33.2734 16.6498 33.6004 17.0705 33.8111 17.6308C34.1516 20.1935 34.1516 23.018 33.7136 26.5333ZM33.8561 35.7253C33.8561 35.7253 35.3374 40.5478 36.9469 43.3925C37.0819 43.6325 37.0219 44.0023 36.6394 44.0998C36.1984 44.2175 36.1106 43.829 35.8856 42.875C35.4979 41.2235 33.8561 35.7253 33.8561 35.7253ZM36.7204 46.106C36.2246 46.235 32.9726 47.114 32.0291 46.0183C32.0291 46.0183 32.7101 46.4968 36.5494 45.497C40.3879 44.4958 40.7321 43.7533 40.7321 43.7533C40.4794 45.1588 37.1809 45.9868 36.7204 46.106Z" fill="url(#paint0_linear_108_92)"/>
<path d="M14.2439 5.97729C13.8757 6.62379 13.0199 8.43654 12.0967 12.4738C13.0124 12.23 14.0294 12.2015 14.9249 12.2015C15.2279 12.2015 15.5272 12.149 15.8212 12.0748C16.3852 9.47304 16.6612 7.63329 16.7572 6.93429L16.7159 6.92379C16.1092 6.76555 15.1229 6.40854 14.2439 5.97729Z" fill="url(#paint1_linear_108_92)"/>
<defs>
<linearGradient id="paint0_linear_108_92" x1="5.7188" y1="3.06954" x2="40.4286" y2="43.6021" gradientUnits="userSpaceOnUse">
<stop stop-color="#222222"/>
<stop offset="1" stop-color="#12110B"/>
</linearGradient>
<linearGradient id="paint1_linear_108_92" x1="12.5821" y1="5.88645" x2="17.794" y2="10.5812" gradientUnits="userSpaceOnUse">
<stop stop-color="#222222"/>
<stop offset="1" stop-color="#12110B"/>
</linearGradient>
</defs>
</svg>
