<svg width="32" height="33" viewBox="0 0 32 33" fill="none" xmlns="http://www.w3.org/2000/svg">
<path d="M25.6661 12.686L22.9449 3.44479C22.8839 3.23775 22.7576 3.05599 22.5848 2.92667C22.412 2.79735 22.202 2.72741 21.9861 2.72729H10.0136C9.79778 2.72741 9.58778 2.79735 9.41497 2.92667C9.24217 3.05599 9.11584 3.23775 9.05487 3.44479L6.33362 12.686C5.90667 14.1025 5.88433 15.6101 6.26911 17.0386C6.65389 18.467 7.43047 19.7595 8.51112 20.7698C10.2887 22.4368 12.5728 23.4616 14.9999 23.681V28.7273H10.9999C10.7347 28.7273 10.4803 28.8327 10.2928 29.0202C10.1052 29.2077 9.99987 29.4621 9.99987 29.7273C9.99987 29.9925 10.1052 30.2469 10.2928 30.4344C10.4803 30.6219 10.7347 30.7273 10.9999 30.7273H20.9999C21.2651 30.7273 21.5194 30.6219 21.707 30.4344C21.8945 30.2469 21.9999 29.9925 21.9999 29.7273C21.9999 29.4621 21.8945 29.2077 21.707 29.0202C21.5194 28.8327 21.2651 28.7273 20.9999 28.7273H16.9999V23.681C19.4269 23.4614 21.7109 22.4367 23.4886 20.7698C24.5693 19.7595 25.3458 18.467 25.7306 17.0386C26.1154 15.6101 26.0931 14.1025 25.6661 12.686ZM10.7611 4.72729H21.2386L23.7499 13.251C23.7611 13.2885 23.7711 13.326 23.7811 13.3635C21.1036 14.3235 18.0886 13.1635 16.4524 12.3348C13.3036 10.741 10.8036 10.5385 8.95987 10.8435L10.7611 4.72729ZM22.1249 19.3085C20.4644 20.8634 18.2747 21.7285 15.9999 21.7285C13.7251 21.7285 11.5354 20.8634 9.87487 19.3085C9.06622 18.5507 8.48554 17.582 8.19839 16.5116C7.91125 15.4412 7.92908 14.3118 8.24987 13.251L8.30612 13.061C9.80612 12.5535 12.1899 12.4185 15.5474 14.1198C16.9411 14.826 19.1924 15.726 21.6011 15.726C22.4062 15.73 23.2078 15.6206 23.9824 15.401C23.8803 16.8918 23.2165 18.2882 22.1249 19.3085Z" fill="url(#paint0_linear_14_116)"/>
<defs>
<linearGradient id="paint0_linear_14_116" x1="8.08021" y1="2.33575" x2="30.5341" y2="22.4818" gradientUnits="userSpaceOnUse">
<stop stop-color="#222222"/>
<stop offset="1" stop-color="#12110B"/>
</linearGradient>
</defs>
</svg>
