<svg width="28" height="29" viewBox="0 0 28 29" fill="none" xmlns="http://www.w3.org/2000/svg">
<g clip-path="url(#clip0_390_9111)">
<path d="M19.1846 15.6156C21.7048 13.8775 21.1119 9.55122 18.0941 8.71958C17.8798 8.66036 17.0309 8.69262 16.9279 8.59479C16.756 8.4316 16.6547 7.64929 16.5222 7.4062C16.1445 6.71232 15.5432 6.1539 14.8329 5.8115C13.3544 5.09887 11.567 5.40627 10.4658 6.6397C9.40493 5.2037 7.55194 4.76817 5.94932 5.54063C5.23947 5.88282 4.62549 6.43358 4.22665 7.11482C4.02161 7.46448 3.87616 7.84581 3.79626 8.2432C3.70055 8.72106 3.82229 9.15834 3.7851 9.62363C3.75923 9.94514 3.83339 9.88017 3.48197 10.015C3.28247 10.0918 3.09017 10.1862 2.90731 10.2969C2.50251 10.5418 2.15152 10.8646 1.86824 11.2431C1.32606 11.9675 1.04601 12.8797 1.0757 13.7833C1.08937 14.1958 1.16714 14.6077 1.30982 14.995C1.39353 15.2218 1.49883 15.4401 1.62427 15.6468C1.67705 15.7337 1.80524 15.8678 1.83302 15.9537C1.91352 16.2034 1.91762 16.0056 1.79517 16.2438C1.5651 16.6916 1.14554 17.0161 0.941114 17.5121C0.735107 18.0124 0.632422 18.5492 0.639238 19.0901C0.645472 19.5978 0.746699 20.1042 0.94456 20.5723C1.03873 20.7953 1.19126 20.9895 1.28871 21.2066C1.37074 21.3896 1.43757 21.3687 1.39377 21.5261C1.37391 21.5979 1.06629 21.8242 1.02123 21.8724C0.349556 22.5932 -0.00689888 23.5726 0.000101157 24.554C0.0154684 26.6726 1.76039 28.4512 3.90809 28.3392C4.87268 28.289 5.80663 27.8633 6.46458 27.154C6.56198 27.0491 6.83225 26.5392 6.94567 26.5046C7.03815 26.4762 7.51645 26.7238 7.61325 26.7492C8.11955 26.8812 8.64827 26.8969 9.16288 26.8056C10.1193 26.6358 10.9968 26.0875 11.5674 25.3013C11.724 25.0855 11.8129 24.8213 11.965 24.61C12.0008 24.5605 12.0293 24.3509 12.078 24.3255C12.1019 24.3129 12.4356 24.4231 12.5031 24.4363C13.0637 24.5463 13.6503 24.5186 14.1997 24.3643C14.7825 24.2009 15.3225 23.8955 15.7643 23.4825C15.8857 23.3689 16.2522 22.7741 16.3856 22.7286C16.5359 22.6771 17.0341 22.901 17.2095 22.9204C18.3696 23.0486 19.5501 22.588 20.3468 21.7415C22.0861 19.893 21.4924 16.6952 19.1846 15.6156H19.1846ZM16.1042 11.6936C16.2392 11.5358 16.3759 11.3489 16.4688 11.1624C16.5005 11.1073 16.5304 11.0512 16.5585 10.9942C16.6912 10.7283 16.797 10.4516 16.8662 10.162C16.9616 9.76352 16.8758 9.705 17.2736 9.67104C17.6495 9.639 18.1041 9.82231 18.4207 10.0124C19.0509 10.3905 19.4625 11.0498 19.6249 11.7573C19.7825 12.4454 19.7146 13.2018 19.3863 13.8318C19.2099 14.1702 18.9595 14.4669 18.6502 14.6914C18.5476 14.766 17.6318 15.2052 17.6318 15.1087C17.6329 15.0907 17.6335 15.0726 17.6335 15.0542C17.6367 14.9256 17.6341 14.7921 17.6222 14.6637C17.6211 14.6442 17.6194 14.6248 17.6172 14.6054C17.6172 14.6028 17.6169 14.6 17.6169 14.5968C17.4993 13.4791 16.9341 12.4533 16.008 11.8077L16.1042 11.6936C16.1204 11.6746 16.0736 11.7323 16.1042 11.6936C16.2424 11.5319 16.0736 11.7323 16.1042 11.6936ZM16.0262 13.3168C16.0347 13.3274 16.0424 13.3377 16.0493 13.3486C16.1847 13.5385 16.2928 13.7473 16.3757 13.9649C16.3853 13.9897 16.3945 14.0145 16.4026 14.0397C16.4069 14.0499 16.4101 14.0602 16.4133 14.0704C16.4193 14.0871 16.4246 14.1038 16.4295 14.121C16.4897 14.2958 16.5165 14.4812 16.5425 14.6634C16.5451 14.6893 16.5479 14.7151 16.5493 14.7412C16.5511 14.7536 16.5515 14.766 16.5521 14.7784C16.5543 14.8032 16.5554 14.8279 16.5564 14.8527C16.5571 14.8585 16.5571 14.8651 16.5571 14.8709C16.5682 15.1046 16.5618 15.3881 16.4872 15.6122C16.4823 15.6333 16.4791 15.6538 16.4774 15.6747C16.0858 16.6168 15.4838 17.454 14.4304 17.6777C14.4298 17.6777 14.4287 17.6783 14.4283 17.6783C13.7699 17.8189 12.9782 17.7001 12.4307 17.2889C12.3878 17.2609 12.346 17.2313 12.3055 17.2C12.3049 17.1994 12.3038 17.1987 12.3034 17.1983C11.1795 16.344 10.9742 14.8032 11.6422 13.5979C12.3346 12.3491 13.5928 11.9814 14.8976 12.4176C14.926 12.4297 14.9541 12.4423 14.982 12.4554C14.9826 12.4554 14.9833 12.4554 14.9837 12.4559C15.011 12.4689 15.0386 12.4817 15.0655 12.4958C15.0702 12.498 15.0751 12.5007 15.08 12.5029C15.158 12.5428 15.2337 12.5868 15.3069 12.6347C15.374 12.678 15.4392 12.7243 15.5022 12.7733C15.562 12.8195 15.6195 12.8685 15.6746 12.9203C15.6848 12.9288 15.6946 12.938 15.7043 12.9478C15.7752 13.0094 16.0023 13.2834 16.0262 13.3168C16.0347 13.3274 15.995 13.2732 16.0262 13.3168ZM10.2841 13.9104C10.2496 14.0319 10.2213 14.155 10.1995 14.2794C9.42237 14.3005 8.73495 13.954 8.19764 13.4142C7.86268 13.0489 7.63157 12.5975 7.52925 12.1089C7.01759 10.7735 8.25703 9.15025 9.50315 8.83727C9.36233 10.2032 9.98867 11.6005 11.1115 12.3939C10.7242 12.8307 10.4375 13.3563 10.2814 13.919C10.3031 13.841 10.3258 13.7632 10.3471 13.685C10.3262 13.7602 10.305 13.8354 10.2841 13.9104C10.2495 14.0315 10.442 13.3469 10.2841 13.9104V13.9104ZM11.082 17.5187H11.0814V17.5194C10.4614 17.9567 9.90368 18.6364 9.69259 19.3775H9.69199C9.60366 19.356 9.51626 19.3308 9.43003 19.3021C9.18268 19.2194 8.91525 19.2011 8.65587 19.1963C8.55203 19.1942 8.44815 19.1957 8.34442 19.2008C8.26456 19.2147 8.18365 19.2217 8.10259 19.2218C8.03658 19.2249 7.97189 19.2348 7.90845 19.2508C7.90413 19.2515 7.89921 19.2519 7.89494 19.253C7.86738 19.2639 7.83916 19.2692 7.81056 19.2692C6.91532 18.78 6.32568 17.7734 6.37654 16.7501V16.7431C6.37779 16.7149 6.37911 16.6867 6.38015 16.6585C6.38015 16.6552 6.38015 16.6521 6.3808 16.6493C6.3819 16.6284 6.38354 16.6079 6.38507 16.5874C6.38507 16.5848 6.38572 16.582 6.38572 16.5792C6.39256 16.5019 6.39918 16.4004 6.41903 16.3208C6.43691 16.2172 6.46117 16.1148 6.49165 16.0142C6.49275 16.011 6.49384 16.0071 6.49488 16.0039C6.49597 15.9975 6.49805 15.9915 6.50019 15.9851C6.5534 15.7963 6.63477 15.6346 6.72112 15.4616C6.76422 15.3831 6.81081 15.3073 6.86102 15.2336C7.00413 15.0144 7.18531 14.8179 7.39018 14.6549C7.44637 14.5953 7.5126 14.5461 7.58585 14.5094C7.60827 14.4938 7.63091 14.4789 7.65399 14.4648C7.67023 14.4541 7.68647 14.4442 7.7025 14.4347L7.7031 14.4351C8.38161 15.0304 9.24251 15.3575 10.1405 15.3575H10.1566C10.1739 15.566 10.1974 15.8685 10.292 16.0584C10.3031 16.0979 10.3151 16.1372 10.3281 16.1763C10.3292 16.1799 10.3309 16.1834 10.3319 16.187C10.345 16.2267 10.3586 16.2662 10.3728 16.3055C10.5341 16.7499 10.7744 17.1592 11.082 17.5187ZM10.8928 7.89347C10.8949 7.88855 10.8975 7.88363 10.8998 7.87892C10.9002 7.87783 10.9013 7.87619 10.902 7.87509C12.2065 5.48764 15.8744 6.55192 15.9035 9.20363C15.9035 9.20942 15.9035 9.21604 15.9041 9.222V9.22993C15.9041 9.86502 15.6856 10.4773 15.2998 10.9776C15.2966 10.9814 15.2938 10.985 15.2907 10.9889C15.2009 11.1026 15.0995 11.2083 14.9928 11.3057C14.268 11.0679 13.2746 11.0267 12.5725 11.379C12.471 11.4167 12.0689 11.6742 11.9788 11.6693C11.8374 11.6616 11.6184 11.4307 11.521 11.3469C11.2044 11.0747 10.9537 10.7342 10.7879 10.351C10.7861 10.3467 10.7846 10.3424 10.7825 10.3382C10.4518 9.55778 10.5317 8.56017 10.8752 7.92552C10.844 7.98343 10.8498 7.97255 10.8927 7.89347C10.8094 8.04747 10.8949 7.88855 10.8927 7.89347H10.8928ZM7.47669 6.19541C8.45954 6.19541 9.35658 6.75252 9.82269 7.63261C9.81837 7.64129 9.81439 7.65014 9.81077 7.65913C9.80497 7.67149 9.79939 7.68391 9.79409 7.6967C7.88362 7.87509 6.41602 9.58688 6.39251 11.4813C6.17228 11.3883 5.95757 11.251 5.77967 11.0912C5.75975 11.075 5.74037 11.0581 5.72154 11.0406C3.74551 9.55718 5.14158 6.19541 7.47669 6.19541ZM4.24776 10.9075C4.25093 10.9135 4.25481 10.9201 4.25842 10.9254C4.32421 11.0397 4.42336 11.2217 4.52246 11.3208C4.537 11.3407 4.55259 11.3606 4.56817 11.38C4.5778 11.3931 4.58808 11.4055 4.59896 11.4178C4.61324 11.4362 4.62778 11.4539 4.64337 11.4723C4.64337 11.4727 4.64337 11.4727 4.64403 11.4727C4.93497 11.8244 5.32057 12.1591 5.73543 12.358C5.95199 12.4747 6.39743 12.5302 6.56751 12.6806C6.74032 12.8337 6.85719 13.3896 6.99604 13.6083C6.8072 13.7246 6.63051 13.8741 6.47372 14.0311C6.46519 14.0388 6.4566 14.0469 6.44856 14.0555C6.43358 14.0694 6.41903 14.0839 6.40492 14.0991C6.15155 14.3528 5.9433 14.6442 5.77049 14.9578C5.76792 14.9621 5.76578 14.967 5.76365 14.9713C5.71006 15.0172 5.68326 15.0697 5.68353 15.1285C5.67112 15.1571 5.6581 15.1853 5.64421 15.2131C5.64356 15.2142 5.64312 15.2148 5.64312 15.2158C5.60444 15.3005 5.56923 15.3868 5.53757 15.4743C5.5122 15.5444 5.47993 15.6233 5.46391 15.6974C5.45734 15.719 5.45111 15.7407 5.44509 15.7626C5.43869 15.7835 5.43295 15.8047 5.42803 15.8262C5.42584 15.833 5.4242 15.8401 5.42267 15.8472C5.41775 15.8638 5.41348 15.8805 5.40966 15.8971C5.40922 15.9003 5.40818 15.9031 5.40747 15.9063C5.37805 16.0281 5.36776 16.1548 5.33769 16.2759C5.33725 16.2786 5.33725 16.2808 5.33659 16.2836C5.33594 16.2855 5.33594 16.2878 5.33594 16.29C5.33484 16.2942 5.33484 16.2985 5.33446 16.3028L5.33276 16.3158H5.33233C5.30307 16.3201 5.27397 16.3257 5.24515 16.3325C5.03455 16.3675 4.8117 16.3844 4.5994 16.3622C4.59721 16.3622 4.59448 16.3615 4.59229 16.3615C4.56648 16.3594 4.54061 16.3573 4.5154 16.3544C4.51048 16.3535 4.50548 16.353 4.50047 16.353C4.27941 16.3246 4.06246 16.2703 3.85406 16.1913C3.75599 16.1527 3.66031 16.1082 3.56755 16.0582C3.52025 16.0273 3.47127 15.999 3.42082 15.9736C3.39348 15.9567 3.36657 15.9392 3.34005 15.9208C3.31954 15.9069 3.2986 15.8929 3.27809 15.8783C3.2772 15.8774 3.27612 15.8766 3.27492 15.8761C3.22235 15.8334 3.16893 15.7918 3.11468 15.7512C1.44758 14.3502 2.08201 11.3817 4.24776 10.9075C4.23879 10.8911 3.77542 11.01 3.71154 11.0263C3.88884 10.9814 4.06937 10.9466 4.24776 10.9075C4.25093 10.9135 3.03456 11.1733 4.24776 10.9075ZM2.75883 16.8281C2.9475 16.9535 3.30981 17.2246 3.54179 17.2246C3.87309 17.3427 4.23523 17.4299 4.58814 17.4412H4.58874C4.765 17.4527 4.97095 17.4666 5.1459 17.4316C5.27835 17.3491 5.34436 17.3414 5.34414 17.4083C5.43087 17.9729 5.64536 18.6563 6.02921 19.0957C6.02921 19.0962 6.02987 19.0968 6.02987 19.0968C6.19842 19.3318 6.38961 19.5488 6.60983 19.7368C6.61202 19.7383 6.61366 19.7404 6.61645 19.7421C6.06596 20.0792 5.02903 20.9822 5.02903 21.7058C4.90084 21.7378 4.76779 21.7648 4.63555 21.7759C4.62461 21.7776 4.61395 21.7784 4.60328 21.779C1.96569 22.0198 0.731934 18.4173 2.75883 16.8281C2.76331 16.8311 2.51273 17.0896 2.47538 17.0648C2.46898 17.0605 2.83895 16.7653 2.75883 16.8281C2.84748 16.887 2.09853 17.3459 2.75883 16.8281ZM3.73107 27.2886C2.34205 27.2886 1.28122 26.187 1.11546 24.8443C1.03791 24.2146 1.15795 23.5622 1.4916 23.0187C1.62876 22.7955 1.88278 22.3956 2.13741 22.3091C2.4371 22.2071 2.99535 22.6019 3.35531 22.7224C3.7507 22.8354 4.18246 22.8974 4.59453 22.8598C4.66415 22.8538 4.7336 22.8478 4.80322 22.8421C4.77588 23.3062 4.83379 23.8119 4.9925 24.2496C5.05233 24.4398 5.12386 24.6495 5.22962 24.8189C5.37296 25.1009 5.55135 25.3923 5.77585 25.6175C6.05164 25.9362 6.08133 25.9197 5.80729 26.2695C5.65034 26.4693 5.46576 26.6458 5.2591 26.7937C4.81394 27.1134 4.28008 27.2886 3.73107 27.2886ZM11.1814 23.4964C11.1814 23.4975 11.181 23.498 11.181 23.4991C10.8409 25.5756 8.29066 26.5177 6.75016 25.0482C6.05743 24.3876 5.65433 23.4075 5.90726 22.4603C6.14625 21.565 6.88267 20.5016 7.88258 20.3585C8.3791 20.2267 9.38847 20.1841 9.7948 20.5911C9.79589 20.5917 9.79644 20.5922 9.79753 20.5927H9.79797C9.79863 20.5927 9.79863 20.5935 9.79906 20.5935C10.8283 21.1581 11.3583 22.4381 11.1872 23.4633C11.1963 23.4071 11.1946 23.4182 11.1814 23.4964C11.2068 23.3451 11.1814 23.4975 11.1814 23.4964ZM13.2221 23.4312C12.9028 23.4312 12.5856 23.372 12.288 23.2577C12.2965 23.1101 12.3036 22.9397 12.2869 22.7902C12.2775 22.6299 12.2514 22.4737 12.2288 22.315C12.2225 22.2816 12.2159 22.2482 12.2089 22.2148C12.2085 22.2137 12.2085 22.2127 12.2078 22.2116C12.202 22.1826 12.1955 22.1537 12.1884 22.1249C12.188 22.1221 12.1873 22.12 12.187 22.1172C12.0524 21.6114 11.7755 20.7519 11.3115 20.4413C11.2899 20.4165 11.2677 20.3922 11.2448 20.3685C11.234 20.3561 11.2222 20.3437 11.2094 20.3313C11.047 20.1562 10.8584 20.0038 10.6647 19.8654C10.6664 19.8594 10.6678 19.8541 10.67 19.8487C10.6743 19.8325 10.6792 19.8169 10.6845 19.8013C10.7361 19.6301 10.807 19.4652 10.8958 19.31C11.018 19.0788 11.1759 18.8683 11.3636 18.6862C11.3782 18.671 11.3932 18.6565 11.4083 18.6426C11.4221 18.6285 11.4363 18.6155 11.4508 18.6027C11.4626 18.5913 11.4749 18.5807 11.4873 18.5704C11.4937 18.5638 11.5001 18.558 11.5067 18.5531C11.5196 18.5418 11.532 18.5311 11.5448 18.5208C11.6623 18.4181 11.7969 18.3269 11.9336 18.2508C12.5264 18.6221 13.1959 18.8084 13.8947 18.8122C13.894 18.8193 13.8936 18.8268 13.8925 18.8345C13.8571 19.3805 13.9365 19.9297 14.1226 20.4439C14.2266 20.7314 14.5099 21.4877 14.812 21.6396C14.8201 21.6492 14.8282 21.659 14.8371 21.6686C14.8371 21.6693 14.8378 21.6703 14.8393 21.6708L14.8399 21.6714C14.8566 21.6908 14.8737 21.7101 14.8916 21.7288V21.7295C15.0006 21.8508 15.118 21.9642 15.2429 22.0689C15.4765 22.1493 15.497 22.2599 15.3046 22.4007C15.2247 22.6021 14.9222 22.8072 14.7521 22.9298C14.3071 23.2509 13.7727 23.4312 13.2221 23.4312ZM17.6318 21.8697C15.966 21.8697 14.7453 20.2425 14.9976 18.6405C15.4836 18.4871 16.1018 18.2004 16.4284 17.7909C16.4664 17.7551 16.5035 17.7184 16.5398 17.6809C16.5462 17.6751 16.5521 17.6691 16.5575 17.6627C16.6078 17.611 16.6562 17.5574 16.7025 17.5021C16.7171 17.4858 16.7305 17.4698 16.744 17.4532C16.7498 17.4467 16.7554 17.44 16.7607 17.4331C16.8407 17.3365 16.9548 17.2034 17.0133 17.0862C17.1528 16.8749 17.2764 16.6416 17.365 16.4043C17.3716 16.3897 17.377 16.3746 17.3827 16.3594C18.9089 16.2096 20.2491 17.5023 20.301 19.0058C20.3523 20.4928 19.1483 21.8697 17.6318 21.8697ZM23.853 8.65505C23.556 8.65505 23.3151 8.41388 23.3151 8.11627C23.3151 7.81893 23.5556 7.57776 23.8525 7.57776H23.853C24.1501 7.57776 24.3906 7.81893 24.3906 8.11627C24.3906 8.41388 24.1501 8.65505 23.853 8.65505Z" fill="black"/>
<path d="M27.7695 9.9254C27.2888 7.94449 25.8466 6.25021 23.4803 4.88411C23.8206 4.36714 25.5775 0.997827 24.3271 0.790178C23.5664 0.663958 23.5705 1.98801 23.4286 2.45777C23.1892 3.25075 22.8315 4.01594 22.3182 4.66919C22.3178 4.66919 22.3178 4.66918 22.3171 4.66962C21.3202 5.97765 19.6622 6.71888 18.0344 6.71888C17.5739 6.69389 17.2929 7.27047 17.604 7.61549C17.8184 7.85349 18.1814 7.80285 18.467 7.7847C19.5193 7.71847 20.5746 7.38602 21.4735 6.83532C20.4353 10.6797 22.9843 13.5562 26.0189 15.5044C26.0189 15.5044 26.0193 15.5051 26.02 15.5051C26.0253 15.5083 26.0302 15.5115 26.0359 15.5147C26.1246 15.5696 26.2494 15.599 26.351 15.5875C26.3594 15.5874 26.3677 15.5865 26.3758 15.5848C26.3955 15.5829 26.4147 15.5794 26.4339 15.5745C26.467 15.5679 26.501 15.5544 26.5318 15.5406C26.5356 15.5395 26.5392 15.5373 26.5427 15.5357C26.5464 15.5342 26.5499 15.5324 26.5533 15.5303C26.6283 15.4927 26.6935 15.4359 26.7433 15.3681L26.7497 15.3596C26.8204 15.2577 28.4766 12.8388 27.7695 9.9254C28.4766 12.8388 27.2888 7.94449 27.7695 9.9254ZM26.429 13.6211C26.1421 12.7047 25.8524 11.7887 25.542 10.8799C25.3925 10.4413 25.2099 9.37042 24.6345 9.30567C23.6954 9.2004 24.2056 10.3181 24.3582 10.7449C24.7076 11.7222 25.0163 12.7153 25.3278 13.7051C24.1176 12.7694 22.9608 11.591 22.4979 10.0933C22.0508 8.64647 22.4112 7.1904 22.9538 5.82299C25.8014 7.47106 27.7255 10.2762 26.429 13.6211Z" fill="black"/>
</g>
<defs>
<clipPath id="clip0_390_9111">
<rect width="28" height="28" fill="white" transform="translate(0 0.727295)"/>
</clipPath>
</defs>
</svg>
