<svg width="40" height="41" viewBox="0 0 40 41" fill="none" xmlns="http://www.w3.org/2000/svg">
<path d="M13.0249 6.68563C11.4292 6.68365 9.86575 7.13439 8.51606 7.98551C7.16636 8.83663 6.08581 10.0532 5.39993 11.4939C4.71404 12.9346 4.45096 14.5403 4.64123 16.1246C4.83151 17.7089 5.46734 19.2066 6.47487 20.444L19.9999 36.319L33.3915 20.6023L33.4582 20.5273L33.5249 20.444C34.2563 19.5619 34.8004 18.5402 35.1242 17.441C35.448 16.3419 35.5447 15.1883 35.4083 14.0507C35.2719 12.913 34.9053 11.8149 34.3308 10.8235C33.7564 9.83204 32.9861 8.96792 32.0669 8.28378C31.1477 7.59963 30.0989 7.10977 28.9843 6.84405C27.8696 6.57832 26.7126 6.5423 25.5836 6.73817C24.4546 6.93404 23.3774 7.3577 22.4174 7.98334C21.4574 8.60898 20.6349 9.42351 19.9999 10.3773C19.2283 9.23992 18.19 8.30879 16.9755 7.66526C15.7611 7.02174 14.4076 6.6854 13.0332 6.68563H13.0249Z" stroke="url(#paint0_linear_170_269)" stroke-width="2" stroke-linecap="round" stroke-linejoin="round"/>
<defs>
<linearGradient id="paint0_linear_170_269" x1="7.79847" y1="6.19854" x2="30.9325" y2="36.4024" gradientUnits="userSpaceOnUse">
<stop stop-color="#222222"/>
<stop offset="1" stop-color="#12110B"/>
</linearGradient>
</defs>
</svg>
