<svg width="32" height="33" viewBox="0 0 32 33" fill="none" xmlns="http://www.w3.org/2000/svg">
<path d="M16.81 5.02729C16.5839 4.83495 16.2968 4.72934 16 4.72934C15.7032 4.72934 15.4161 4.83495 15.19 5.02729L5.44 13.3153C5.30195 13.4327 5.1911 13.5788 5.11512 13.7434C5.03914 13.9079 4.99986 14.087 5 14.2683V27.2273C5 27.3599 5.05268 27.4871 5.14645 27.5808C5.24021 27.6746 5.36739 27.7273 5.5 27.7273H10.5C10.6326 27.7273 10.7598 27.6746 10.8536 27.5808C10.9473 27.4871 11 27.3599 11 27.2273V20.2273C11 19.5642 11.2634 18.9284 11.7322 18.4595C12.2011 17.9907 12.837 17.7273 13.5 17.7273H18.504C18.8323 17.7273 19.1574 17.792 19.4607 17.9176C19.764 18.0432 20.0396 18.2274 20.2718 18.4595C20.5039 18.6917 20.6881 18.9673 20.8137 19.2706C20.9393 19.5739 21.004 19.899 21.004 20.2273V27.2273C21.004 27.3599 21.0567 27.4871 21.1504 27.5808C21.2442 27.6746 21.3714 27.7273 21.504 27.7273H26.5C26.6326 27.7273 26.7598 27.6746 26.8536 27.5808C26.9473 27.4871 27 27.3599 27 27.2273V14.2673C27 14.0862 26.9606 13.9073 26.8847 13.7429C26.8087 13.5785 26.6979 13.4326 26.56 13.3153L16.81 5.02729ZM13.895 3.50429C14.4826 3.00475 15.2287 2.73047 16 2.73047C16.7713 2.73047 17.5174 3.00475 18.105 3.50429L27.855 11.7913C28.2139 12.0964 28.5021 12.4758 28.6999 12.9033C28.8976 13.3309 29 13.7963 29 14.2673V27.2273C29 27.8903 28.7366 28.5262 28.2678 28.9951C27.7989 29.4639 27.163 29.7273 26.5 29.7273H21.504C20.841 29.7273 20.2051 29.4639 19.7362 28.9951C19.2674 28.5262 19.004 27.8903 19.004 27.2273V20.2273C19.004 20.0947 18.9513 19.9675 18.8576 19.8737C18.7638 19.78 18.6366 19.7273 18.504 19.7273H13.5C13.3674 19.7273 13.2402 19.78 13.1464 19.8737C13.0527 19.9675 13 20.0947 13 20.2273V27.2273C13 27.8903 12.7366 28.5262 12.2678 28.9951C11.7989 29.4639 11.163 29.7273 10.5 29.7273H5.5C4.83696 29.7273 4.20107 29.4639 3.73223 28.9951C3.26339 28.5262 3 27.8903 3 27.2273V14.2673C3.00003 13.7963 3.10244 13.3309 3.30014 12.9033C3.49785 12.4758 3.78612 12.0964 4.145 11.7913L13.895 3.50429Z" fill="url(#paint0_linear_14_108)"/>
<defs>
<linearGradient id="paint0_linear_14_108" x1="5.70833" y1="2.35296" x2="27.0979" y2="28.2187" gradientUnits="userSpaceOnUse">
<stop stop-color="#222222"/>
<stop offset="1" stop-color="#12110B"/>
</linearGradient>
</defs>
</svg>
