<svg width="32" height="33" viewBox="0 0 32 33" fill="none" xmlns="http://www.w3.org/2000/svg">
<path d="M17.75 22.7273C17.75 22.9262 17.671 23.117 17.5303 23.2576C17.3897 23.3983 17.1989 23.4773 17 23.4773C16.5359 23.4773 16.0908 23.2929 15.7626 22.9647C15.4344 22.6365 15.25 22.1914 15.25 21.7273V16.7273C15.25 16.661 15.2237 16.5974 15.1768 16.5505C15.1299 16.5036 15.0663 16.4773 15 16.4773C14.8011 16.4773 14.6103 16.3983 14.4697 16.2576C14.329 16.117 14.25 15.9262 14.25 15.7273C14.25 15.5284 14.329 15.3376 14.4697 15.197C14.6103 15.0563 14.8011 14.9773 15 14.9773C15.4641 14.9773 15.9093 15.1617 16.2374 15.4899C16.5656 15.818 16.75 16.2632 16.75 16.7273V21.7273C16.75 21.7936 16.7763 21.8572 16.8232 21.9041C16.8701 21.951 16.9337 21.9773 17 21.9773C17.1989 21.9773 17.3897 22.0563 17.5303 22.197C17.671 22.3376 17.75 22.5284 17.75 22.7273ZM15.5 12.4773C15.7472 12.4773 15.9889 12.404 16.1945 12.2666C16.4 12.1293 16.5602 11.9341 16.6549 11.7056C16.7495 11.4772 16.7742 11.2259 16.726 10.9834C16.6778 10.741 16.5587 10.5182 16.3839 10.3434C16.2091 10.1686 15.9863 10.0495 15.7439 10.0013C15.5014 9.95308 15.2501 9.97784 15.0217 10.0724C14.7932 10.1671 14.598 10.3273 14.4607 10.5328C14.3233 10.7384 14.25 10.9801 14.25 11.2273C14.25 11.5588 14.3817 11.8768 14.6161 12.1112C14.8505 12.3456 15.1685 12.4773 15.5 12.4773ZM28.75 16.7273C28.75 19.249 28.0022 21.7141 26.6012 23.8108C25.2003 25.9075 23.209 27.5417 20.8792 28.5068C18.5495 29.4718 15.9859 29.7243 13.5126 29.2323C11.0393 28.7403 8.76751 27.526 6.98439 25.7429C5.20127 23.9598 3.98696 21.688 3.49499 19.2147C3.00303 16.7414 3.25552 14.1778 4.22054 11.8481C5.18556 9.51832 6.81976 7.52704 8.91648 6.12606C11.0132 4.72507 13.4783 3.97729 16 3.97729C19.3803 3.98126 22.621 5.32584 25.0112 7.71607C27.4015 10.1063 28.746 13.347 28.75 16.7273ZM27.25 16.7273C27.25 14.5023 26.5902 12.3272 25.354 10.4771C24.1179 8.62708 22.3609 7.18514 20.3052 6.33365C18.2495 5.48216 15.9875 5.25938 13.8052 5.69346C11.623 6.12754 9.61839 7.199 8.04505 8.77234C6.47171 10.3457 5.40025 12.3502 4.96617 14.5325C4.53209 16.7148 4.75487 18.9768 5.60636 21.0325C6.45785 23.0882 7.89979 24.8452 9.74984 26.0813C11.5999 27.3175 13.775 27.9773 16 27.9773C18.9827 27.974 21.8422 26.7877 23.9513 24.6786C26.0604 22.5695 27.2467 19.71 27.25 16.7273Z" fill="url(#paint0_linear_281_1180)"/>
<defs>
<linearGradient id="paint0_linear_281_1180" x1="5.90625" y1="3.62071" x2="25.954" y2="28.7934" gradientUnits="userSpaceOnUse">
<stop stop-color="#222222"/>
<stop offset="1" stop-color="#12110B"/>
</linearGradient>
</defs>
</svg>
