<svg width="41" height="40" viewBox="0 0 41 40" fill="none" xmlns="http://www.w3.org/2000/svg">
<path d="M10.5 23.4856C10.5 22.381 9.60457 21.4856 8.5 21.4856C7.39543 21.4856 6.5 22.381 6.5 23.4856L10.5 23.4856ZM6.5 23.4856L6.5 31.2727L10.5 31.2727L10.5 23.4856L6.5 23.4856Z" fill="#C4B48A"/>
<path d="M16.5 20.1482C16.5 19.0437 15.6046 18.1482 14.5 18.1482C13.3954 18.1482 12.5 19.0437 12.5 20.1482L16.5 20.1482ZM12.5 20.1482L12.5 31.2727L16.5 31.2727L16.5 20.1482L12.5 20.1482Z" fill="#C4B48A"/>
<path d="M22.5 16.8109C22.5 15.7063 21.6046 14.8109 20.5 14.8109C19.3954 14.8109 18.5 15.7063 18.5 16.8109L22.5 16.8109ZM18.5 16.8109L18.5 31.2727L22.5 31.2727L22.5 16.8109L18.5 16.8109Z" fill="#C4B48A"/>
<path d="M28.5 13.4736C28.5 12.369 27.6046 11.4736 26.5 11.4736C25.3954 11.4736 24.5 12.369 24.5 13.4736L28.5 13.4736ZM24.5 13.4736L24.5 31.2727L28.5 31.2727L28.5 13.4736L24.5 13.4736Z" fill="#C4B48A"/>
<path d="M34.5 10.1362C34.5 9.03166 33.6046 8.13623 32.5 8.13623C31.3954 8.13623 30.5 9.03166 30.5 10.1362L34.5 10.1362ZM30.5 10.1362L30.5 31.2727L34.5 31.2727L34.5 10.1362L30.5 10.1362Z" fill="#C4B48A"/>
</svg>
