<svg width="40" height="41" viewBox="0 0 40 41" fill="none" xmlns="http://www.w3.org/2000/svg">
<path d="M10 24.2129C10 23.1083 9.10457 22.2129 8 22.2129C6.89543 22.2129 6 23.1083 6 24.2129L10 24.2129ZM6 24.2129L6 32L10 32L10 24.2129L6 24.2129Z" fill="black"/>
<path d="M16 20.8755C16 19.7709 15.1046 18.8755 14 18.8755C12.8954 18.8755 12 19.7709 12 20.8755L16 20.8755ZM12 20.8755L12 31.9999L16 31.9999L16 20.8755L12 20.8755Z" fill="black"/>
<path d="M22 17.5382C22 16.4336 21.1046 15.5382 20 15.5382C18.8954 15.5382 18 16.4336 18 17.5382L22 17.5382ZM18 17.5382L18 32L22 32L22 17.5382L18 17.5382Z" fill="black"/>
<path d="M28 14.2008C28 13.0962 27.1046 12.2008 26 12.2008C24.8954 12.2008 24 13.0962 24 14.2008L28 14.2008ZM24 14.2008L24 31.9999L28 31.9999L28 14.2008L24 14.2008Z" fill="black"/>
<path d="M34 10.8635C34 9.75896 33.1046 8.86353 32 8.86353C30.8954 8.86353 30 9.75896 30 10.8635L34 10.8635ZM30 10.8635L30 32L34 32L34 10.8635L30 10.8635Z" fill="black"/>
</svg>
