<svg width="39" height="39" viewBox="0 0 39 39" fill="none" xmlns="http://www.w3.org/2000/svg">
<path fill-rule="evenodd" clip-rule="evenodd" d="M8.97127 5.47681H6.64175V17.1244H8.97127V5.47681ZM23.1814 17.1244H15.7269L14.7951 15.8432V13.5137L15.7269 12.4654H23.1814L24.1132 13.6301V15.9597L23.1814 17.1244ZM11.5337 24.113H4.07927L3.14746 22.9482V20.6187L4.07927 19.4539H11.5337L12.4656 20.6187V22.9482L11.5337 24.113ZM20.6189 5.47681H18.2894V10.1359H20.6189V5.47681ZM18.2894 19.4539H20.6189V33.4311H18.2894V19.4539ZM8.97127 26.4425H6.64175V33.4311H8.97127V26.4425ZM27.3745 26.4425H34.8057L35.7375 25.2778V23.0647L34.8057 21.8999H27.3745L26.4427 23.0647V25.2778L27.3745 26.4425ZM32.2665 5.47681H29.937V19.4539H32.2665V5.47681ZM29.937 28.772H32.2665V33.4311H29.937V28.772Z" fill="#AC924D"/>
</svg>
