<svg width="32" height="33" viewBox="0 0 32 33" fill="none" xmlns="http://www.w3.org/2000/svg">
<path fill-rule="evenodd" clip-rule="evenodd" d="M7 4.72729H5V14.7273H7V4.72729ZM19.2 14.7273H12.8L12 13.6273V11.6273L12.8 10.7273H19.2L20 11.7273V13.7273L19.2 14.7273ZM9.2 20.7273H2.8L2 19.7273V17.7273L2.8 16.7273H9.2L10 17.7273V19.7273L9.2 20.7273ZM17 4.72729H15V8.72729H17V4.72729ZM15 16.7273H17V28.7273H15V16.7273ZM7 22.7273H5V28.7273H7V22.7273ZM22.8 22.7273H29.18L29.98 21.7273V19.8273L29.18 18.8273H22.8L22 19.8273V21.7273L22.8 22.7273ZM27 4.72729H25V16.7273H27V4.72729ZM25 24.7273H27V28.7273H25V24.7273Z" fill="url(#paint0_linear_115_116)"/>
<defs>
<linearGradient id="paint0_linear_115_116" x1="4.91458" y1="4.39169" x2="22.9487" y2="30.7911" gradientUnits="userSpaceOnUse">
<stop stop-color="#222222"/>
<stop offset="1" stop-color="#12110B"/>
</linearGradient>
</defs>
</svg>
