<svg width="48" height="49" viewBox="0 0 48 49" fill="none" xmlns="http://www.w3.org/2000/svg">
<path d="M46.119 24.2525C45.3503 23.0653 38.5823 12.5233 33.0323 10.8178C32.3108 10.592 31.506 10.4773 30.639 10.4773C28.8008 10.4773 26.652 10.991 24.252 12.0035L24.0008 12.101H23.9993L23.748 12.0035C21.3488 10.991 19.2 10.4773 17.361 10.4773C16.494 10.4773 15.6893 10.592 14.9678 10.8185C9.4178 12.524 2.64905 23.066 1.88105 24.2533C1.31105 25.1338 1.4078 25.5463 1.9898 26.3548C2.6753 27.3058 3.2558 28.3265 3.82505 29.4388C6.11555 33.9095 8.71055 38.9773 23.9993 38.9773H24.0008C39.2895 38.9773 41.8845 33.9095 44.1743 29.438C44.745 28.3258 45.3248 27.3043 46.0103 26.354C46.5915 25.5455 46.689 25.133 46.119 24.2525ZM24.0008 37.196C24 37.196 24 37.196 24.0008 37.196H23.9993C7.9328 37.196 7.1483 31.67 4.49405 26.9975C5.57255 26.8873 6.66905 26.525 7.8263 26.0233C12.0773 29.498 17.0033 27.785 23.9985 27.785H24.0008C30.996 27.785 35.922 29.498 40.173 26.0233C41.3303 26.525 42.4268 26.8865 43.5053 26.9975C40.8518 31.67 40.0673 37.196 24.0008 37.196ZM12.0473 23.9855C15.1995 22.4698 19.0358 20.93 24 20.93C28.9635 20.93 32.8005 22.4698 35.9535 23.9855H12.0473ZM44.1653 25.2575C39.9023 25.2575 34.26 19.148 24.0008 19.148H23.9993C13.74 19.148 8.0978 25.2575 3.8348 25.2575C3.66305 25.2575 3.49205 25.2478 3.3233 25.2268C3.3233 25.2268 10.3545 14.0938 15.465 12.5233C16.0163 12.3508 16.647 12.2585 17.3603 12.2585C18.9 12.2585 20.82 12.689 23.1233 13.664C23.4105 13.7743 23.7045 13.8928 23.9985 14.0203H24C24.294 13.8928 24.588 13.7743 24.8753 13.664C27.1778 12.689 29.0985 12.2585 30.6383 12.2585C31.3515 12.2585 31.9823 12.3508 32.5335 12.5233C37.644 14.0945 44.6753 25.2268 44.6753 25.2268C44.5061 25.2476 44.3358 25.2579 44.1653 25.2575Z" fill="#AC924D"/>
</svg>
