<svg width="48" height="49" viewBox="0 0 48 49" fill="none" xmlns="http://www.w3.org/2000/svg">
<path d="M30.915 7.13029C30.9709 7.00968 31.0022 6.87914 31.007 6.74629C31.0119 6.61345 30.9902 6.48097 30.9433 6.35661C30.8963 6.23224 30.8251 6.11848 30.7336 6.02199C30.6422 5.92549 30.5324 5.84819 30.4108 5.79461C30.2891 5.74103 30.158 5.71224 30.0251 5.70993C29.8922 5.70762 29.7602 5.73183 29.6367 5.78115C29.5133 5.83047 29.4009 5.9039 29.3062 5.99716C29.2114 6.09042 29.1362 6.20163 29.085 6.32429L29.081 6.33229L29.068 6.36229C28.9814 6.55723 28.8927 6.75124 28.802 6.94429C27.6541 9.40342 26.3996 11.8114 25.042 14.1613C22.562 18.4403 19.301 23.1783 16.009 25.5513C11.665 28.6693 10.359 32.5033 11.274 35.7133C12.17 38.8583 15.139 41.1003 18.644 41.1003H21.873C22.5697 41.1003 23.2379 41.3771 23.7306 41.8697C24.2232 42.3624 24.5 43.0306 24.5 43.7273H26.5C26.5 42.5001 26.0125 41.3232 25.1448 40.4555C24.2771 39.5878 23.1002 39.1003 21.873 39.1003H21.297C21.521 38.7643 21.879 38.4353 22.423 38.1823C23.417 37.7183 25.103 37.4823 27.773 38.1023C27.9012 38.1327 28.0341 38.1375 28.1641 38.1165C28.2941 38.0954 28.4187 38.0488 28.5306 37.9795C28.6426 37.9101 28.7398 37.8193 28.8166 37.7123C28.8933 37.6053 28.9482 37.4841 28.9781 37.3558C29.0079 37.2276 29.0121 37.0946 28.9904 36.9647C28.9687 36.8348 28.9216 36.7104 28.8517 36.5988C28.7818 36.4871 28.6906 36.3904 28.5832 36.3141C28.4758 36.2378 28.3544 36.1835 28.226 36.1543C25.297 35.4743 23.116 35.6513 21.577 36.3693C20.22 37.0023 19.422 38.0333 19.116 39.0993H18.644C15.997 39.0993 13.839 37.4163 13.198 35.1643C12.574 32.9773 13.319 29.9433 17.176 27.1753L17.178 27.1743C20.848 24.5293 24.289 19.4493 26.773 15.1643C28.1609 12.7616 29.4435 10.2996 30.617 7.78529C30.7109 7.58317 30.8035 7.3805 30.895 7.17729L30.91 7.14329L30.915 7.13229V7.13029ZM35.756 35.7183C35.236 37.8083 33.939 39.6973 32.529 40.5763L31.47 38.8773C32.352 38.3273 33.393 36.9303 33.814 35.2353C34.223 33.5883 34.009 31.8273 32.654 30.4203L34.094 29.0323C36.041 31.0543 36.286 33.5793 35.754 35.7173L35.756 35.7183Z" fill="#AC924D"/>
</svg>
