<svg width="32" height="33" viewBox="0 0 32 33" fill="none" xmlns="http://www.w3.org/2000/svg">
<g clip-path="url(#clip0_390_9121)">
<path d="M24.6667 32.7273H7.33333C6.4496 32.7262 5.60237 32.3747 4.97748 31.7498C4.35259 31.1249 4.00106 30.2777 4 29.394V8.06063C4 6.22329 5.49467 4.72729 7.33333 4.72729H10C10.1768 4.72729 10.3464 4.79753 10.4714 4.92256C10.5964 5.04758 10.6667 5.21715 10.6667 5.39396C10.6667 5.57077 10.5964 5.74034 10.4714 5.86537C10.3464 5.99039 10.1768 6.06063 10 6.06063H7.33333C6.23067 6.06063 5.33333 6.95796 5.33333 8.06063V29.394C5.33333 30.4966 6.23067 31.394 7.33333 31.394H24.6667C25.7693 31.394 26.6667 30.4966 26.6667 29.394V8.06063C26.6667 6.95796 25.7693 6.06063 24.6667 6.06063H22C21.8232 6.06063 21.6536 5.99039 21.5286 5.86537C21.4036 5.74034 21.3333 5.57077 21.3333 5.39396C21.3333 5.21715 21.4036 5.04758 21.5286 4.92256C21.6536 4.79753 21.8232 4.72729 22 4.72729H24.6667C26.5053 4.72729 28 6.22329 28 8.06063V29.394C28 31.2313 26.5053 32.7273 24.6667 32.7273Z" fill="black"/>
<path d="M20.667 8.72729H11.3337C10.231 8.72729 9.33366 7.82996 9.33366 6.72729V4.06063C9.33366 3.88382 9.4039 3.71425 9.52892 3.58922C9.65395 3.4642 9.82351 3.39396 10.0003 3.39396H12.7337C13.043 1.87396 14.391 0.727295 16.0003 0.727295C17.6097 0.727295 18.9577 1.87396 19.267 3.39396H22.0003C22.1771 3.39396 22.3467 3.4642 22.4717 3.58922C22.5968 3.71425 22.667 3.88382 22.667 4.06063V6.72729C22.667 7.82996 21.7697 8.72729 20.667 8.72729ZM10.667 4.72729V6.72729C10.667 6.90411 10.7372 7.07368 10.8623 7.1987C10.9873 7.32372 11.1568 7.39396 11.3337 7.39396H20.667C20.8438 7.39396 21.0134 7.32372 21.1384 7.1987C21.2634 7.07368 21.3337 6.90411 21.3337 6.72729V4.72729H18.667C18.4902 4.72729 18.3206 4.65706 18.1956 4.53203C18.0706 4.40701 18.0003 4.23744 18.0003 4.06063C18.0003 2.95796 17.103 2.06063 16.0003 2.06063C14.8977 2.06063 14.0003 2.95796 14.0003 4.06063C14.0003 4.23744 13.9301 4.40701 13.8051 4.53203C13.68 4.65706 13.5105 4.72729 13.3337 4.72729H10.667ZM24.667 28.7273H7.33366C7.15685 28.7273 6.98728 28.6571 6.86225 28.532C6.73723 28.407 6.66699 28.2374 6.66699 28.0606V12.0606C6.66699 11.8838 6.73723 11.7142 6.86225 11.5892C6.98728 11.4642 7.15685 11.394 7.33366 11.394H24.667C24.8438 11.394 25.0134 11.4642 25.1384 11.5892C25.2634 11.7142 25.3337 11.8838 25.3337 12.0606V28.0606C25.3337 28.2374 25.2634 28.407 25.1384 28.532C25.0134 28.6571 24.8438 28.7273 24.667 28.7273ZM8.00033 27.394H24.0003V12.7273H8.00033V27.394Z" fill="black"/>
<path d="M12.6667 28.7274C12.4899 28.7274 12.3203 28.6571 12.1953 28.5321C12.0702 28.4071 12 28.2375 12 28.0607V12.0607C12 11.8839 12.0702 11.7143 12.1953 11.5893C12.3203 11.4643 12.4899 11.394 12.6667 11.394C12.8435 11.394 13.013 11.4643 13.1381 11.5893C13.2631 11.7143 13.3333 11.8839 13.3333 12.0607V28.0607C13.3333 28.2375 13.2631 28.4071 13.1381 28.5321C13.013 28.6571 12.8435 28.7274 12.6667 28.7274Z" fill="black"/>
<path d="M24.667 16.7274H7.33366C7.15685 16.7274 6.98728 16.6571 6.86225 16.5321C6.73723 16.4071 6.66699 16.2375 6.66699 16.0607C6.66699 15.8839 6.73723 15.7143 6.86225 15.5893C6.98728 15.4643 7.15685 15.394 7.33366 15.394H24.667C24.8438 15.394 25.0134 15.4643 25.1384 15.5893C25.2634 15.7143 25.3337 15.8839 25.3337 16.0607C25.3337 16.2375 25.2634 16.4071 25.1384 16.5321C25.0134 16.6571 24.8438 16.7274 24.667 16.7274ZM24.667 20.7274H7.33366C7.15685 20.7274 6.98728 20.6571 6.86225 20.5321C6.73723 20.4071 6.66699 20.2375 6.66699 20.0607C6.66699 19.8839 6.73723 19.7143 6.86225 19.5893C6.98728 19.4643 7.15685 19.394 7.33366 19.394H24.667C24.8438 19.394 25.0134 19.4643 25.1384 19.5893C25.2634 19.7143 25.3337 19.8839 25.3337 20.0607C25.3337 20.2375 25.2634 20.4071 25.1384 20.5321C25.0134 20.6571 24.8438 20.7274 24.667 20.7274ZM24.667 24.7274H7.33366C7.15685 24.7274 6.98728 24.6571 6.86225 24.5321C6.73723 24.4071 6.66699 24.2375 6.66699 24.0607C6.66699 23.8839 6.73723 23.7143 6.86225 23.5893C6.98728 23.4643 7.15685 23.394 7.33366 23.394H24.667C24.8438 23.394 25.0134 23.4643 25.1384 23.5893C25.2634 23.7143 25.3337 23.8839 25.3337 24.0607C25.3337 24.2375 25.2634 24.4071 25.1384 24.5321C25.0134 24.6571 24.8438 24.7274 24.667 24.7274Z" fill="black"/>
</g>
<defs>
<clipPath id="clip0_390_9121">
<rect width="32" height="32" fill="white" transform="translate(0 0.727295)"/>
</clipPath>
</defs>
</svg>
