<svg width="38" height="38" viewBox="0 0 38 38" fill="none" xmlns="http://www.w3.org/2000/svg">
<path d="M9 17.2451C9 16.3689 9.32924 15.5287 9.91529 14.9091C10.5013 14.2896 11.2962 13.9415 12.125 13.9415C12.9538 13.9415 13.7487 14.2896 14.3347 14.9091C14.9208 15.5287 15.25 16.3689 15.25 17.2451C15.25 18.1213 14.9208 18.9615 14.3347 19.5811C13.7487 20.2006 12.9538 20.5487 12.125 20.5487C11.2962 20.5487 10.5013 20.2006 9.91529 19.5811C9.32924 18.9615 9 18.1213 9 17.2451ZM12.125 15.9237C11.7935 15.9237 11.4755 16.0629 11.2411 16.3107C11.0067 16.5585 10.875 16.8946 10.875 17.2451C10.875 17.5956 11.0067 17.9317 11.2411 18.1795C11.4755 18.4273 11.7935 18.5665 12.125 18.5665C12.4565 18.5665 12.7745 18.4273 13.0089 18.1795C13.2433 17.9317 13.375 17.5956 13.375 17.2451C13.375 16.8946 13.2433 16.5585 13.0089 16.3107C12.7745 16.0629 12.4565 15.9237 12.125 15.9237ZM12.125 23.1915C11.2962 23.1915 10.5013 23.5396 9.91529 24.1591C9.32924 24.7787 9 25.6189 9 26.4951C9 27.3713 9.32924 28.2115 9.91529 28.8311C10.5013 29.4506 11.2962 29.7987 12.125 29.7987C12.9538 29.7987 13.7487 29.4506 14.3347 28.8311C14.9208 28.2115 15.25 27.3713 15.25 26.4951C15.25 25.6189 14.9208 24.7787 14.3347 24.1591C13.7487 23.5396 12.9538 23.1915 12.125 23.1915ZM10.875 26.4951C10.875 26.1446 11.0067 25.8085 11.2411 25.5607C11.4755 25.3129 11.7935 25.1737 12.125 25.1737C12.4565 25.1737 12.7745 25.3129 13.0089 25.5607C13.2433 25.8085 13.375 26.1446 13.375 26.4951C13.375 26.8456 13.2433 27.1817 13.0089 27.4295C12.7745 27.6773 12.4565 27.8165 12.125 27.8165C11.7935 27.8165 11.4755 27.6773 11.2411 27.4295C11.0067 27.1817 10.875 26.8456 10.875 26.4951ZM17.75 16.9147C17.75 16.6519 17.8488 16.3998 18.0246 16.2139C18.2004 16.0281 18.4389 15.9237 18.6875 15.9237H28.0625C28.3111 15.9237 28.5496 16.0281 28.7254 16.2139C28.9012 16.3998 29 16.6519 29 16.9147C29 17.1776 28.9012 17.4297 28.7254 17.6155C28.5496 17.8014 28.3111 17.9058 28.0625 17.9058H18.6875C18.4389 17.9058 18.2004 17.8014 18.0246 17.6155C17.8488 17.4297 17.75 17.1776 17.75 16.9147ZM18.6875 25.1737C18.4389 25.1737 18.2004 25.2781 18.0246 25.4639C17.8488 25.6498 17.75 25.9019 17.75 26.1647C17.75 26.4276 17.8488 26.6797 18.0246 26.8655C18.2004 27.0514 18.4389 27.1558 18.6875 27.1558H28.0625C28.3111 27.1558 28.5496 27.0514 28.7254 26.8655C28.9012 26.6797 29 26.4276 29 26.1647C29 25.9019 28.9012 25.6498 28.7254 25.4639C28.5496 25.2781 28.3111 25.1737 28.0625 25.1737H18.6875ZM9 10.3076C9 10.0448 9.09877 9.79267 9.27459 9.60681C9.4504 9.42094 9.68886 9.31653 9.9375 9.31653H28.0625C28.3111 9.31653 28.5496 9.42094 28.7254 9.60681C28.9012 9.79267 29 10.0448 29 10.3076C29 10.5704 28.9012 10.8225 28.7254 11.0084C28.5496 11.1943 28.3111 11.2987 28.0625 11.2987H9.9375C9.68886 11.2987 9.4504 11.1943 9.27459 11.0084C9.09877 10.8225 9 10.5704 9 10.3076ZM9.9375 4.69153C8.6943 4.69153 7.50201 5.21361 6.62294 6.14292C5.74386 7.07223 5.25 8.33264 5.25 9.64689V28.8076C5.25 30.1218 5.74386 31.3823 6.62294 32.3116C7.50201 33.2409 8.6943 33.763 9.9375 33.763H28.0625C29.3057 33.763 30.498 33.2409 31.3771 32.3116C32.2561 31.3823 32.75 30.1218 32.75 28.8076V9.64689C32.75 8.33264 32.2561 7.07223 31.3771 6.14292C30.498 5.21361 29.3057 4.69153 28.0625 4.69153H9.9375ZM7.125 9.64689C7.125 8.85834 7.42132 8.10209 7.94876 7.54451C8.47621 6.98692 9.19158 6.67367 9.9375 6.67367H28.0625C28.8084 6.67367 29.5238 6.98692 30.0512 7.54451C30.5787 8.10209 30.875 8.85834 30.875 9.64689V28.8076C30.875 29.5961 30.5787 30.3524 30.0512 30.91C29.5238 31.4676 28.8084 31.7808 28.0625 31.7808H9.9375C9.19158 31.7808 8.47621 31.4676 7.94876 30.91C7.42132 30.3524 7.125 29.5961 7.125 28.8076V9.64689Z" fill="url(#paint0_linear_286_2640)"/>
<defs>
<linearGradient id="paint0_linear_286_2640" x1="8.11458" y1="4.285" x2="31.222" y2="31.7311" gradientUnits="userSpaceOnUse">
<stop stop-color="#222222"/>
<stop offset="1" stop-color="#12110B"/>
</linearGradient>
</defs>
</svg>
