<svg width="30" height="31" viewBox="0 0 30 31" fill="none" xmlns="http://www.w3.org/2000/svg">
<g clip-path="url(#clip0_4_84)">
<path d="M20.9375 11.3523C21.3519 11.3523 21.7493 11.1877 22.0424 10.8946C22.3354 10.6016 22.5 10.2042 22.5 9.78979C22.5 9.37539 22.3354 8.97797 22.0424 8.68494C21.7493 8.39191 21.3519 8.22729 20.9375 8.22729C20.5231 8.22729 20.1257 8.39191 19.8326 8.68494C19.5396 8.97797 19.375 9.37539 19.375 9.78979C19.375 10.2042 19.5396 10.6016 19.8326 10.8946C20.1257 11.1877 20.5231 11.3523 20.9375 11.3523Z" fill="url(#paint0_linear_4_84)"/>
<path d="M19.6875 0.863648C21.177 0.864801 22.6486 1.18862 24.0011 1.81283C25.3535 2.43704 26.5547 3.34681 27.5219 4.47957C28.4892 5.61233 29.1996 6.94119 29.6042 8.37471C30.0089 9.80823 30.0981 11.3124 29.8659 12.7837C29.6337 14.2551 29.0856 15.6586 28.2591 16.8979C27.4327 18.1371 26.3476 19.1826 25.0785 19.9624C23.8094 20.7423 22.3864 21.2379 20.9075 21.4153C19.4286 21.5926 17.9287 21.4475 16.5112 20.9899L14.4662 23.0349C14.2635 23.2384 14.0225 23.3998 13.7571 23.5098C13.4918 23.6199 13.2073 23.6764 12.92 23.6761H11.5625C11.4796 23.6761 11.4001 23.7091 11.3415 23.7677C11.2829 23.8263 11.25 23.9058 11.25 23.9886V25.7986C11.25 26.0888 11.135 26.3671 10.93 26.5724L10.6625 26.8386C10.5733 26.928 10.467 26.9984 10.3499 27.0457C10.2329 27.0929 10.1075 27.116 9.98125 27.1136H6.5625C6.47962 27.1136 6.40013 27.1466 6.34153 27.2052C6.28292 27.2638 6.25 27.3433 6.25 27.4261V28.6761C6.25 29.2563 6.01953 29.8127 5.6093 30.2229C5.19906 30.6332 4.64266 30.8636 4.0625 30.8636H2.1875C1.60734 30.8636 1.05094 30.6332 0.640704 30.2229C0.230468 29.8127 0 29.2563 0 28.6761L0 25.1311C0 24.5511 0.23125 23.9961 0.64125 23.5861L9.87375 14.3511C9.37268 12.8036 9.24485 11.1594 9.50071 9.55304C9.75657 7.94663 10.3888 6.42355 11.3459 5.10823C12.3029 3.79291 13.5576 2.72268 15.0074 1.98498C16.4571 1.24728 18.0608 0.863034 19.6875 0.863648ZM11.25 11.1761C11.2487 12.2292 11.445 13.2731 11.8288 14.2536C11.8953 14.4234 11.9109 14.6089 11.8736 14.7875C11.8363 14.966 11.7477 15.1297 11.6187 15.2586L1.96625 24.9099C1.93725 24.939 1.91426 24.9735 1.89861 25.0114C1.88295 25.0494 1.87493 25.0901 1.875 25.1311V28.6761C1.875 28.8486 2.015 28.9886 2.1875 28.9886H4.0625C4.14538 28.9886 4.22487 28.9557 4.28347 28.8971C4.34208 28.8385 4.375 28.759 4.375 28.6761V27.4261C4.375 26.2186 5.355 25.2386 6.5625 25.2386H9.375V23.9886C9.375 22.7811 10.355 21.8011 11.5625 21.8011H12.92C12.9611 21.8012 13.0017 21.7932 13.0397 21.7775C13.0777 21.7619 13.1122 21.7389 13.1412 21.7099L15.605 19.2449C15.7339 19.1159 15.8977 19.0274 16.0762 18.9901C16.2547 18.9528 16.4402 18.9684 16.61 19.0349C18.2888 19.6925 20.1342 19.7951 21.8756 19.3275C23.617 18.8599 25.1627 17.8468 26.2864 16.4367C27.41 15.0265 28.0523 13.2935 28.1192 11.4917C28.1861 9.68988 27.674 7.91402 26.6581 6.42444C25.6421 4.93486 24.1757 3.80991 22.4738 3.21449C20.7719 2.61908 18.924 2.58451 17.201 3.11586C15.478 3.64722 13.9706 4.71654 12.8996 6.16708C11.8287 7.61762 11.2505 9.37309 11.25 11.1761Z" fill="url(#paint1_linear_4_84)"/>
</g>
<defs>
<linearGradient id="paint0_linear_4_84" x1="19.7005" y1="8.1836" x2="22.1574" y2="11.2685" gradientUnits="userSpaceOnUse">
<stop stop-color="#222222"/>
<stop offset="1" stop-color="#12110B"/>
</linearGradient>
<linearGradient id="paint1_linear_4_84" x1="3.12417" y1="0.444139" x2="26.7112" y2="30.0529" gradientUnits="userSpaceOnUse">
<stop stop-color="#222222"/>
<stop offset="1" stop-color="#12110B"/>
</linearGradient>
<clipPath id="clip0_4_84">
<rect width="30" height="30" fill="white" transform="translate(0 0.727295)"/>
</clipPath>
</defs>
</svg>
