<svg width="24" height="25" viewBox="0 0 24 25" fill="none" xmlns="http://www.w3.org/2000/svg">
<g clip-path="url(#clip0_387_8906)">
<path d="M12 7.72729C12.9797 7.72724 13.9378 8.01498 14.7553 8.55479C15.5729 9.0946 16.2138 9.86269 16.5986 10.7637C16.9833 11.6646 17.0949 12.6588 16.9195 13.6226C16.7441 14.5864 16.2893 15.4775 15.6118 16.1852C14.9343 16.8928 14.0638 17.3858 13.1085 17.6029C12.1532 17.8201 11.1552 17.7518 10.2383 17.4066C9.3215 17.0613 8.52629 16.4544 7.95146 15.6611C7.37663 14.8677 7.04752 13.923 7.005 12.9443L7 12.7273L7.005 12.5103C7.06092 11.223 7.61161 10.0071 8.54222 9.11595C9.47284 8.22484 10.7115 7.72737 12 7.72729Z" fill="#12110B"/>
</g>
<defs>
<clipPath id="clip0_387_8906">
<rect width="24" height="24" fill="white" transform="translate(0 0.727295)"/>
</clipPath>
</defs>
</svg>
