<svg width="24" height="25" viewBox="0 0 24 25" fill="none" xmlns="http://www.w3.org/2000/svg">
<path d="M21.8858 6.26329C21.8009 6.10174 21.6736 5.96643 21.5174 5.87197C21.3613 5.77751 21.1823 5.72749 20.9998 5.72729H2.99981C2.81766 5.72805 2.63915 5.77844 2.4835 5.87306C2.32784 5.96767 2.20092 6.10293 2.11638 6.26429C2.03185 6.42564 1.9929 6.60699 2.00372 6.78883C2.01455 6.97066 2.07474 7.14611 2.17781 7.29629L11.1778 20.2963C11.2696 20.4295 11.3923 20.5385 11.5355 20.6137C11.6787 20.689 11.838 20.7283 11.9998 20.7283C12.1616 20.7283 12.3209 20.689 12.4641 20.6137C12.6073 20.5385 12.7301 20.4295 12.8218 20.2963L21.8218 7.29629C21.9259 7.14642 21.9869 6.97087 21.9982 6.78874C22.0095 6.60661 21.9706 6.42488 21.8858 6.26329ZM11.9998 17.9703L4.90781 7.7273H19.0918L11.9998 17.9703Z" fill="url(#paint0_linear_233_1134)"/>
<defs>
<linearGradient id="paint0_linear_233_1134" x1="4.08509" y1="5.51753" x2="14.7402" y2="23.3532" gradientUnits="userSpaceOnUse">
<stop stop-color="#222222"/>
<stop offset="1" stop-color="#12110B"/>
</linearGradient>
</defs>
</svg>
