<svg width="41" height="40" viewBox="0 0 41 40" fill="none" xmlns="http://www.w3.org/2000/svg">
<g clip-path="url(#clip0_310_7999)">
<path d="M20.2958 7.75173L23.8441 4.93262L19.6279 6.59726C13.3205 9.08682 12.4693 8.8597 8.25172 3.54834L5.43261 1.52588e-05L7.09792 4.21554C9.58748 10.5237 9.35968 11.3742 4.04832 15.5924L0.5 18.4115L4.7162 16.7469C11.0237 14.256 11.8742 14.4838 16.0924 19.7958L18.9115 23.3441L17.2462 19.1286C14.7566 12.8205 14.9844 11.97 20.2958 7.75173ZM14.7903 16.2071C13.2133 14.5889 11.9092 13.8685 10.2176 13.8685C9.34224 13.8909 8.47402 14.0328 7.63708 14.2904C9.98308 12.0043 10.4427 10.2898 9.55378 7.1371C11.8405 9.4831 13.5543 9.94273 16.707 9.0538C14.361 11.3398 13.9014 13.0543 14.7903 16.2071ZM20.1024 28.9642L23.6507 26.145L19.4352 27.8097C15.5762 29.3328 15.194 29.2297 12.6155 25.982L9.79707 22.433L11.461 26.6492C12.9842 30.5068 12.8817 30.8889 9.63331 33.4688L6.08498 36.2879L10.3005 34.6233C14.1595 33.1002 14.5417 33.2033 17.1202 36.451L19.9386 40L18.2746 35.7838C16.7515 31.9262 16.854 31.544 20.1024 28.9642ZM16.0715 33.3017C15.4182 32.6869 14.5565 32.3422 13.6595 32.3366C13.3662 32.3388 13.0737 32.367 12.7853 32.4208C13.1925 31.9879 13.4862 31.461 13.6401 30.887C13.794 30.313 13.8035 29.7098 13.6675 29.1313C14.1006 29.5382 14.6276 29.8316 15.2016 29.9852C15.7756 30.1389 16.3787 30.1482 16.9571 30.0121C16.5493 30.4447 16.255 30.9715 16.1005 31.5455C15.946 32.1195 15.936 32.7229 16.0715 33.3017ZM36.951 14.1374L40.4993 11.3183L36.2838 12.9829C32.4248 14.5067 32.0427 14.4029 29.4641 11.1552L26.6457 7.60616L28.3097 11.8224C29.8328 15.68 29.7304 16.0622 26.4819 18.642L22.9336 21.4611L27.1491 19.7965C31.0075 18.2727 31.3903 18.3772 33.9688 21.6242L36.7872 25.1732L35.1233 20.957C33.6001 17.0994 33.7026 16.7172 36.951 14.1374ZM32.9201 18.4749C32.2668 17.8601 31.4051 17.5154 30.5081 17.5098C30.2148 17.512 29.9223 17.5402 29.634 17.594C30.0411 17.1612 30.3348 16.6342 30.4887 16.0602C30.6427 15.4862 30.6521 14.883 30.5162 14.3045C30.9492 14.7114 31.4762 15.0048 32.0502 15.1585C32.6242 15.3122 33.2273 15.3214 33.8057 15.1853C33.3979 15.6179 33.1037 16.1447 32.9491 16.7187C32.7946 17.2927 32.7846 17.8961 32.9201 18.4749Z" fill="#C4B48A"/>
</g>
<defs>
<clipPath id="clip0_310_7999">
<rect width="40" height="40" fill="white" transform="translate(0.5)"/>
</clipPath>
</defs>
</svg>
