<svg width="40" height="41" viewBox="0 0 40 41" fill="none" xmlns="http://www.w3.org/2000/svg">
<g clip-path="url(#clip0_310_7999)">
<path d="M19.7958 8.47901L23.3441 5.6599L19.1279 7.32454C12.8205 9.8141 11.9693 9.58698 7.75172 4.27562L4.93261 0.727295L6.59792 4.94282C9.08748 11.2509 8.85968 12.1015 3.54832 16.3197L0 19.1388L4.2162 17.4742C10.5237 14.9833 11.3742 15.2111 15.5924 20.5231L18.4115 24.0714L16.7462 19.8559C14.2566 13.5478 14.4844 12.6972 19.7958 8.47901ZM14.2903 16.9343C12.7133 15.3162 11.4092 14.5957 9.71762 14.5957C8.84224 14.6182 7.97402 14.7601 7.13708 15.0176C9.48308 12.7316 9.94271 11.0171 9.05378 7.86438C11.3405 10.2104 13.0543 10.67 16.207 9.78108C13.861 12.0671 13.4014 13.7816 14.2903 16.9343ZM19.6024 29.6914L23.1507 26.8723L18.9352 28.537C15.0762 30.0601 14.694 29.957 12.1155 26.7092L9.29707 23.1602L10.961 27.3764C12.4842 31.2341 12.3817 31.6162 9.13331 34.1961L5.58498 37.0152L9.80051 35.3506C13.6595 33.8274 14.0416 33.9306 16.6202 37.1783L19.4386 40.7273L17.7746 36.5111C16.2515 32.6534 16.354 32.2713 19.6024 29.6914ZM15.5715 34.0289C14.9182 33.4142 14.0565 33.0694 13.1595 33.0639C12.8662 33.0661 12.5737 33.0943 12.2853 33.1481C12.6925 32.7152 12.9862 32.1883 13.1401 31.6143C13.294 31.0403 13.3035 30.4371 13.1675 29.8586C13.6006 30.2655 14.1276 30.5588 14.7016 30.7125C15.2756 30.8662 15.8787 30.8755 16.4571 30.7394C16.0493 31.172 15.755 31.6988 15.6005 32.2728C15.446 32.8468 15.436 33.4501 15.5715 34.0289ZM36.451 14.8646L39.9993 12.0455L35.7838 13.7102C31.9248 15.234 31.5427 15.1302 28.9641 11.8824L26.1457 8.33344L27.8097 12.5496C29.3328 16.4073 29.2304 16.7894 25.9819 19.3693L22.4336 22.1884L26.6491 20.5238C30.5075 19 30.8903 19.1044 33.4688 22.3515L36.2872 25.9005L34.6233 21.6843C33.1001 17.8266 33.2026 17.4445 36.451 14.8646ZM32.4201 19.2022C31.7668 18.5874 30.9051 18.2426 30.0081 18.2371C29.7148 18.2393 29.4223 18.2675 29.134 18.3213C29.5411 17.8884 29.8348 17.3615 29.9887 16.7875C30.1427 16.2135 30.1521 15.6103 30.0162 15.0318C30.4492 15.4387 30.9762 15.732 31.5502 15.8857C32.1242 16.0394 32.7273 16.0487 33.3057 15.9126C32.8979 16.3452 32.6037 16.872 32.4491 17.446C32.2946 18.02 32.2846 18.6234 32.4201 19.2022Z" fill="black"/>
</g>
<defs>
<clipPath id="clip0_310_7999">
<rect width="40" height="40" fill="white" transform="translate(0 0.727295)"/>
</clipPath>
</defs>
</svg>
