<svg width="32" height="33" viewBox="0 0 32 33" fill="none" xmlns="http://www.w3.org/2000/svg">
<path d="M12.3108 10.462L16 2.98685L19.6892 10.462C19.9077 10.9047 20.3301 11.2116 20.8186 11.2826L29.0679 12.4813L23.0987 18.2999C22.7451 18.6445 22.5838 19.141 22.6673 19.6276L24.0764 27.8435L16.698 23.9645C16.261 23.7347 15.739 23.7348 15.302 23.9645L7.92357 27.8436L9.33272 19.6276C9.41618 19.141 9.25485 18.6445 8.90133 18.2999L2.93206 12.4813L11.1814 11.2826C11.6699 11.2116 12.0923 10.9047 12.3108 10.462ZM29.7934 11.7741L29.7928 11.7747L29.7934 11.7741Z" stroke="url(#paint0_linear_115_118)" stroke-width="2"/>
<defs>
<linearGradient id="paint0_linear_115_118" x1="3.33333" y1="0.279819" x2="28.4914" y2="31.869" gradientUnits="userSpaceOnUse">
<stop stop-color="#222222"/>
<stop offset="1" stop-color="#12110B"/>
</linearGradient>
</defs>
</svg>
