<svg width="40" height="41" viewBox="0 0 40 41" fill="none" xmlns="http://www.w3.org/2000/svg">
<path d="M27.0357 9.81982V18.8467L25.665 19.5322" stroke="black" stroke-miterlimit="10" stroke-linecap="round" stroke-linejoin="round"/>
<path d="M11.9912 9.81976V18.8466L19.5131 22.6078L20.8143 21.9572" stroke="black" stroke-miterlimit="10" stroke-linecap="round" stroke-linejoin="round"/>
<path d="M23.2811 7.94269L27.0358 9.82L19.5135 13.5812L11.9912 9.82L19.5135 6.05882L21.3197 6.96201" stroke="black" stroke-miterlimit="10" stroke-linecap="round" stroke-linejoin="round"/>
<path d="M19.5137 13.5811V22.6078" stroke="black" stroke-miterlimit="10" stroke-linecap="round" stroke-linejoin="round"/>
<path d="M19.5127 24.7429V22.6079" stroke="black" stroke-miterlimit="10" stroke-linecap="round" stroke-linejoin="round"/>
<path d="M4.46875 25.2192V22.608" stroke="black" stroke-miterlimit="10" stroke-linecap="round" stroke-linejoin="round"/>
<path d="M19.5131 29.6186V31.6349L11.9912 35.3961L4.46875 31.6349V27.4116" stroke="black" stroke-miterlimit="10" stroke-linecap="round" stroke-linejoin="round"/>
<path d="M11.991 26.3691L4.46875 22.6079L11.991 18.8469L19.5133 22.6079L11.991 26.3691ZM11.991 26.3691V35.3959" stroke="black" stroke-miterlimit="10" stroke-linecap="round" stroke-linejoin="round"/>
<path d="M33.7676 29.7764L35.5316 26.0016" stroke="black" stroke-miterlimit="10" stroke-linecap="round" stroke-linejoin="round"/>
<path d="M21.9018 19.6319L18.0801 27.8097L23.3025 34.4019L31.7097 34.1793L32.8391 31.7627" stroke="black" stroke-miterlimit="10" stroke-linecap="round" stroke-linejoin="round"/>
<path d="M27.1239 26.2242L21.9014 19.632L30.3086 19.4094L35.5311 26.0016L27.1239 26.2242Z" stroke="black" stroke-miterlimit="10" stroke-linecap="round" stroke-linejoin="round"/>
<path d="M27.1245 26.2241L23.3027 34.4019" stroke="black" stroke-miterlimit="10" stroke-linecap="round" stroke-linejoin="round"/>
<path d="M25.4291 16.7499C25.4291 16.8839 25.3759 17.0123 25.2812 17.1071C25.1865 17.2018 25.058 17.255 24.924 17.255C24.7901 17.255 24.6616 17.2018 24.5669 17.1071C24.4722 17.0123 24.4189 16.8839 24.4189 16.7499C24.4189 16.6836 24.432 16.6179 24.4574 16.5566C24.4828 16.4953 24.52 16.4397 24.5669 16.3928C24.6138 16.3459 24.6695 16.3087 24.7308 16.2833C24.7921 16.2579 24.8577 16.2448 24.9241 16.2449C25.058 16.2449 25.1865 16.2981 25.2812 16.3928C25.3759 16.4875 25.4291 16.616 25.4291 16.7499Z" fill="black"/>
<path d="M25.4291 14.7927C25.4291 14.9266 25.3759 15.0551 25.2811 15.1498C25.1864 15.2445 25.058 15.2977 24.924 15.2977C24.8241 15.2977 24.7265 15.2681 24.6434 15.2126C24.5604 15.1571 24.4956 15.0782 24.4574 14.9859C24.4192 14.8937 24.4092 14.7921 24.4287 14.6941C24.4481 14.5962 24.4962 14.5062 24.5669 14.4355C24.6375 14.3649 24.7275 14.3168 24.8255 14.2973C24.9234 14.2778 25.025 14.2878 25.1173 14.3261C25.2096 14.3643 25.2885 14.429 25.3439 14.5121C25.3994 14.5951 25.4291 14.6928 25.4291 14.7927Z" fill="black"/>
<path d="M23.472 17.4444C23.472 17.5784 23.4188 17.7068 23.3241 17.8015C23.2294 17.8963 23.1009 17.9495 22.967 17.9495C22.833 17.9495 22.7046 17.8963 22.6098 17.8015C22.5151 17.7068 22.4619 17.5784 22.4619 17.4444C22.4619 17.3105 22.5151 17.182 22.6098 17.0873C22.7046 16.9926 22.833 16.9393 22.967 16.9393C23.1009 16.9393 23.2294 16.9926 23.3241 17.0873C23.4188 17.182 23.472 17.3105 23.472 17.4444Z" fill="black"/>
</svg>
