<svg width="40" height="41" viewBox="0 0 40 41" fill="none" xmlns="http://www.w3.org/2000/svg">
<path d="M36.25 10.7273V10.1023C36.25 9.43927 35.9866 8.80339 35.5178 8.33454C35.0489 7.8657 34.413 7.60231 33.75 7.60231H33.3687C32.5845 5.73235 31.6283 3.93923 30.5125 2.24606C30.4557 2.16261 30.3793 2.09444 30.2899 2.04757C30.2005 2.00069 30.1009 1.97656 30 1.97731H10C9.89907 1.97656 9.79951 2.00069 9.71013 2.04757C9.62074 2.09444 9.54428 2.16261 9.4875 2.24606C8.3717 3.93923 7.41551 5.73235 6.63125 7.60231H6.25C5.58696 7.60231 4.95107 7.8657 4.48223 8.33454C4.01339 8.80339 3.75 9.43927 3.75 10.1023V10.7273C3.75 10.8931 3.81585 11.052 3.93306 11.1693C4.05027 11.2865 4.20924 11.3523 4.375 11.3523H5.2375C4.27582 14.3854 3.77441 17.5455 3.75 20.7273C3.77441 23.9091 4.27582 27.0692 5.2375 30.1023H4.375C4.20924 30.1023 4.05027 30.1682 3.93306 30.2854C3.81585 30.4026 3.75 30.5616 3.75 30.7273V31.3523C3.75 32.0154 4.01339 32.6512 4.48223 33.1201C4.95107 33.5889 5.58696 33.8523 6.25 33.8523H6.63125C7.41551 35.7223 8.3717 37.5154 9.4875 39.2086C9.54428 39.292 9.62074 39.3602 9.71013 39.4071C9.79951 39.4539 9.89907 39.4781 10 39.4773H30C30.1009 39.4781 30.2005 39.4539 30.2899 39.4071C30.3793 39.3602 30.4557 39.292 30.5125 39.2086C31.6283 37.5154 32.5845 35.7223 33.3687 33.8523H33.75C34.413 33.8523 35.0489 33.5889 35.5178 33.1201C35.9866 32.6512 36.25 32.0154 36.25 31.3523V30.7273C36.25 30.5616 36.1842 30.4026 36.0669 30.2854C35.9497 30.1682 35.7908 30.1023 35.625 30.1023H34.7625C35.7242 27.0692 36.2256 23.9091 36.25 20.7273C36.2256 17.5455 35.7242 14.3854 34.7625 11.3523H35.625C35.7908 11.3523 35.9497 11.2865 36.0669 11.1693C36.1842 11.052 36.25 10.8931 36.25 10.7273ZM30.0813 3.90856C30.125 3.98356 30.1688 4.05856 30.2125 4.13981C30.275 4.23356 30.3375 4.34606 30.4 4.45856C30.45 4.54606 30.5 4.63356 30.55 4.72731L30.7687 5.12731C30.8188 5.22731 30.875 5.32106 30.9313 5.42731C31.0125 5.58981 31.1 5.76481 31.1875 5.93356C31.2375 6.03356 31.2875 6.12731 31.3375 6.22731C31.475 6.50231 31.6125 6.78981 31.75 7.08981C31.7609 7.10731 31.7693 7.12624 31.775 7.14606C31.8438 7.29606 31.9125 7.44606 31.9812 7.60231H30V3.77106C30.025 3.81481 30.05 3.85856 30.0813 3.90856ZM28.75 3.22731V7.60231H23.75V3.22731H28.75ZM22.5 3.22731V7.60231H17.5V3.22731H22.5ZM16.25 3.22731V7.60231H11.25V3.22731H16.25ZM8.66875 6.22106C8.70625 6.13981 8.74375 6.06481 8.7875 5.98356C8.8875 5.78981 8.98125 5.59606 9.075 5.42106C9.125 5.32731 9.16875 5.24606 9.21875 5.15856L9.45625 4.72106C9.5 4.63981 9.54375 4.56481 9.5875 4.48356C9.65625 4.35856 9.73125 4.23356 9.79375 4.12106L9.90625 3.93356C9.9375 3.87731 9.96875 3.82731 10 3.77731V7.60231H8.0125C8.2375 7.10856 8.45625 6.64606 8.66875 6.22106ZM6.5125 29.9211C6.45625 29.7461 6.40625 29.5648 6.35 29.3836C6.275 29.1336 6.2 28.8898 6.13125 28.6336C6.08125 28.4461 6.03125 28.2523 5.98125 28.0586C5.9125 27.8023 5.85 27.5398 5.7875 27.2773C5.74375 27.0836 5.7 26.8836 5.65625 26.6836C5.6 26.4148 5.54375 26.1398 5.49375 25.8648C5.45625 25.6586 5.41875 25.4586 5.3875 25.2586C5.3375 24.9669 5.29375 24.6731 5.25625 24.3773C5.23125 24.1773 5.2 23.9836 5.18125 23.7836C5.14375 23.4586 5.1125 23.1211 5.0875 22.7836C5.075 22.6148 5.05625 22.4461 5.05 22.2711C5.01875 21.7648 5 21.2461 5 20.7273C5 20.2086 5.01875 19.6898 5.05 19.1836C5.05625 19.0148 5.075 18.8461 5.0875 18.6773C5.1125 18.3398 5.14375 18.0023 5.18125 17.6711C5.2 17.4773 5.23125 17.2836 5.25625 17.0898C5.29375 16.7898 5.3375 16.4961 5.3875 16.2023C5.41875 15.9961 5.45625 15.8023 5.49375 15.6023C5.54375 15.3211 5.6 15.0461 5.65625 14.7711L5.7875 14.1836C5.85 13.9211 5.9125 13.6586 5.98125 13.3961C6.03125 13.2086 6.08125 13.0148 6.13125 12.8336C6.2 12.5773 6.275 12.3211 6.35 12.0773C6.40625 11.8961 6.45625 11.7148 6.5125 11.5398C6.53125 11.4773 6.55625 11.4148 6.575 11.3523H10V30.1023H6.575C6.55043 30.0432 6.52956 29.9827 6.5125 29.9211ZM9.91875 37.5461C9.875 37.4711 9.83125 37.3961 9.7875 37.3148C9.725 37.2211 9.6625 37.1086 9.6 36.9961C9.55 36.9086 9.5 36.8211 9.45 36.7273C9.38125 36.6023 9.30625 36.4648 9.23125 36.3211C9.17417 36.2259 9.12202 36.1278 9.075 36.0273C8.9875 35.8648 8.9 35.6898 8.80625 35.5148C8.7625 35.4211 8.7125 35.3273 8.6625 35.2273C8.525 34.9523 8.3875 34.6648 8.25 34.3648C8.23909 34.3473 8.23068 34.3284 8.225 34.3086C8.15625 34.1586 8.0875 34.0086 8.01875 33.8523H10V37.6836C9.97387 37.6372 9.94678 37.5913 9.91875 37.5461ZM11.25 38.2273V33.8523H16.25V38.2273H11.25ZM17.5 38.2273V33.8523H22.5V38.2273H17.5ZM23.75 38.2273V33.8523H28.75V38.2273H23.75ZM31.3313 35.2336C31.2938 35.3148 31.25 35.3898 31.2125 35.4711C31.1125 35.6648 31.0187 35.8586 30.925 36.0336C30.875 36.1273 30.8312 36.2086 30.7812 36.2961L30.5437 36.7336C30.5 36.8148 30.4562 36.8898 30.4125 36.9711C30.3438 37.0961 30.2688 37.2211 30.2063 37.3336L30.0938 37.5211C30.0625 37.5773 30.0312 37.6273 30 37.6773V33.8523H31.9875C31.7625 34.3461 31.5438 34.8086 31.3313 35.2336ZM35 31.3523C34.9988 31.6598 34.885 31.9562 34.6799 32.1854C34.4749 32.4147 34.193 32.5607 33.8875 32.5961C33.8419 32.6014 33.7959 32.6035 33.75 32.6023H6.25C6.20408 32.6035 6.15813 32.6014 6.1125 32.5961C5.80702 32.5607 5.52508 32.4147 5.32007 32.1854C5.11505 31.9562 5.00118 31.6598 5 31.3523H12.5562V30.1023H11.25V11.3523H16.25V30.1023H13.75V31.3523H35ZM22.5 30.1023H17.5V11.3523H22.5V30.1023ZM33.4875 11.5336C33.5438 11.7086 33.5938 11.8898 33.65 12.0711C33.725 12.3211 33.8 12.5648 33.8687 12.8211C33.9875 13.27 34.1021 13.72 34.2125 14.1711L34.3438 14.7711C34.4062 15.0398 34.4562 15.3148 34.5062 15.5898C34.5437 15.7961 34.5813 15.9961 34.6125 16.1961C34.6625 16.4877 34.7062 16.7815 34.7437 17.0773C34.7687 17.2773 34.8 17.4711 34.8187 17.6711C34.8562 17.9961 34.8875 18.3336 34.9125 18.6711C34.925 18.8398 34.9437 19.0086 34.95 19.1836C34.9812 19.6898 35 20.2086 35 20.7273C35 21.2461 34.9812 21.7648 34.95 22.2711C34.9437 22.4398 34.925 22.6086 34.9125 22.7773C34.8875 23.1148 34.8562 23.4523 34.8187 23.7836C34.8 23.9773 34.7687 24.1711 34.7437 24.3648C34.7062 24.6648 34.6625 24.9586 34.6125 25.2523C34.5813 25.4586 34.5437 25.6523 34.5062 25.8523C34.4562 26.1336 34.4 26.4086 34.3438 26.6773C34.3 26.8773 34.2563 27.0773 34.2125 27.2711C34.15 27.5336 34.0875 27.7961 34.0187 28.0586C33.9688 28.2461 33.9187 28.4398 33.8687 28.6211C33.8 28.8773 33.725 29.1336 33.65 29.3773C33.5938 29.5586 33.5438 29.7398 33.4875 29.9148C33.4688 29.9773 33.4438 30.0398 33.425 30.1023H30V11.3523H33.425C33.4496 11.4114 33.4704 11.4719 33.4875 11.5336ZM34.3438 10.1023H26.8812V11.3523H28.75V30.1023H23.75V11.3523H25.625V10.1023H5C5.00118 9.7948 5.11505 9.49838 5.32007 9.26918C5.52508 9.03997 5.80702 8.89388 6.1125 8.85856C6.15813 8.85322 6.20408 8.85113 6.25 8.85231H33.75C33.7959 8.85113 33.8419 8.85322 33.8875 8.85856C34.193 8.89388 34.4749 9.03997 34.6799 9.26918C34.885 9.49838 34.9988 9.7948 35 10.1023H34.3438Z" fill="black"/>
</svg>
