<svg width="32" height="33" viewBox="0 0 32 33" fill="none" xmlns="http://www.w3.org/2000/svg">
<g clip-path="url(#clip0_390_9136)">
<path d="M24.6667 32.7273H7.33333C6.4496 32.7262 5.60237 32.3747 4.97748 31.7498C4.35259 31.1249 4.00106 30.2777 4 29.394V8.06063C4 6.22329 5.49467 4.72729 7.33333 4.72729H10C10.1768 4.72729 10.3464 4.79753 10.4714 4.92256C10.5964 5.04758 10.6667 5.21715 10.6667 5.39396C10.6667 5.57077 10.5964 5.74034 10.4714 5.86537C10.3464 5.99039 10.1768 6.06063 10 6.06063H7.33333C6.23067 6.06063 5.33333 6.95796 5.33333 8.06063V29.394C5.33333 30.4966 6.23067 31.394 7.33333 31.394H24.6667C25.7693 31.394 26.6667 30.4966 26.6667 29.394V8.06063C26.6667 6.95796 25.7693 6.06063 24.6667 6.06063H22C21.8232 6.06063 21.6536 5.99039 21.5286 5.86537C21.4036 5.74034 21.3333 5.57077 21.3333 5.39396C21.3333 5.21715 21.4036 5.04758 21.5286 4.92256C21.6536 4.79753 21.8232 4.72729 22 4.72729H24.6667C26.5053 4.72729 28 6.22329 28 8.06063V29.394C28 31.2313 26.5053 32.7273 24.6667 32.7273Z" fill="black"/>
<path fill-rule="evenodd" clip-rule="evenodd" d="M9.33366 6.72729C9.33366 7.82996 10.231 8.72729 11.3337 8.72729H20.667C21.7697 8.72729 22.667 7.82996 22.667 6.72729V4.06063C22.667 3.88382 22.5968 3.71425 22.4717 3.58922C22.3467 3.4642 22.1771 3.39396 22.0003 3.39396H19.267C18.9577 1.87396 17.6097 0.727295 16.0003 0.727295C14.391 0.727295 13.043 1.87396 12.7337 3.39396H10.0003C9.82351 3.39396 9.65395 3.4642 9.52892 3.58922C9.4039 3.71425 9.33366 3.88382 9.33366 4.06063V6.72729ZM10.667 6.72729V4.72729H13.3337C13.5105 4.72729 13.68 4.65706 13.8051 4.53203C13.9301 4.40701 14.0003 4.23744 14.0003 4.06063C14.0003 2.95796 14.8977 2.06063 16.0003 2.06063C17.103 2.06063 18.0003 2.95796 18.0003 4.06063C18.0003 4.23744 18.0706 4.40701 18.1956 4.53203C18.3206 4.65706 18.4902 4.72729 18.667 4.72729H21.3337V6.72729C21.3337 6.90411 21.2634 7.07368 21.1384 7.1987C21.0134 7.32372 20.8438 7.39396 20.667 7.39396H11.3337C11.1568 7.39396 10.9873 7.32372 10.8623 7.1987C10.7372 7.07368 10.667 6.90411 10.667 6.72729Z" fill="black"/>
<path d="M11.8191 10.7412L11.575 10.7449L11.4748 10.9854C10.9578 12.4524 10.6436 14.0713 10.6436 15.5984C10.6436 17.699 11.2236 19.2378 12.2011 20.2419C12.9412 21.002 13.8949 21.441 14.9416 21.6091C15.6092 23.4886 15.5699 25.5546 14.8415 27.4172C13.648 27.6171 12.4879 28.131 11.4699 28.9602H20.502C19.4837 28.1309 18.3242 27.617 17.1304 27.4172C16.4012 25.5526 16.3639 23.4841 17.0339 21.603C18.0722 21.4318 19.0199 20.9955 19.7586 20.242C20.7423 19.2384 21.3283 17.6998 21.3283 15.5984C21.3283 14.0713 21.0141 12.4524 20.4971 10.9854L20.4116 10.7412H11.819L11.8191 10.7412ZM12.0828 11.4712H19.8891C20.1723 12.3233 20.3829 13.2252 20.4982 14.1165H11.4736C11.589 13.2252 11.7996 12.3233 12.0827 11.4712H12.0828ZM11.4004 14.8464H20.5714C20.589 15.0999 20.5984 15.3508 20.5984 15.5984C20.5984 17.5654 20.0626 18.8898 19.2373 19.7317C18.4119 20.5736 17.2726 20.9585 15.9744 20.9585C14.676 20.9585 13.5429 20.5732 12.7236 19.7317C11.9043 18.8902 11.3735 17.5662 11.3735 15.5984C11.3735 15.3508 11.3829 15.1 11.4004 14.8464V14.8464Z" fill="url(#paint0_linear_390_9136)"/>
</g>
<defs>
<linearGradient id="paint0_linear_390_9136" x1="11.7566" y1="10.4864" x2="25.7906" y2="20.8209" gradientUnits="userSpaceOnUse">
<stop stop-color="#222222"/>
<stop offset="1" stop-color="#12110B"/>
</linearGradient>
<clipPath id="clip0_390_9136">
<rect width="32" height="32" fill="white" transform="translate(0 0.727295)"/>
</clipPath>
</defs>
</svg>
