<svg width="40" height="41" viewBox="0 0 40 41" fill="none" xmlns="http://www.w3.org/2000/svg">
<path d="M30.9084 10.7552V3.52725H32.8004C33.0126 3.52725 33.216 3.44296 33.3661 3.29293C33.5161 3.1429 33.6004 2.93942 33.6004 2.72725C33.6004 2.51507 33.5161 2.31159 33.3661 2.16156C33.216 2.01153 33.0126 1.92725 32.8004 1.92725H7.20039C6.98822 1.92725 6.78473 2.01153 6.63471 2.16156C6.48468 2.31159 6.40039 2.51507 6.40039 2.72725C6.40039 2.93942 6.48468 3.1429 6.63471 3.29293C6.78473 3.44296 6.98822 3.52725 7.20039 3.52725H9.10839V10.7552C9.10839 14.4472 12.8404 18.1352 16.3084 20.7552C12.8364 23.3792 9.10839 27.0632 9.10839 30.7552V37.9272H7.20039C6.98822 37.9272 6.78473 38.0115 6.63471 38.1616C6.48468 38.3116 6.40039 38.5151 6.40039 38.7272C6.40039 38.9394 6.48468 39.1429 6.63471 39.2929C6.78473 39.443 6.98822 39.5272 7.20039 39.5272H32.8004C33.0126 39.5272 33.216 39.443 33.3661 39.2929C33.5161 39.1429 33.6004 38.9394 33.6004 38.7272C33.6004 38.5151 33.5161 38.3116 33.3661 38.1616C33.216 38.0115 33.0126 37.9272 32.8004 37.9272H30.9084V30.7792C30.9084 27.0752 27.1764 23.3912 23.7084 20.7792C27.1764 18.1352 30.9084 14.4472 30.9084 10.7552ZM21.8884 20.1192C21.785 20.1929 21.7006 20.29 21.6422 20.4027C21.5838 20.5154 21.553 20.6403 21.5524 20.7672C21.5523 20.8948 21.5828 21.0206 21.6413 21.134C21.6997 21.2474 21.7844 21.3452 21.8884 21.4192C26.6044 24.7992 29.3084 28.2192 29.3084 30.7792V37.9272H10.6924V30.7792C10.6924 28.2112 13.3964 24.7992 18.1124 21.4192C18.2156 21.3452 18.2997 21.2476 18.3577 21.1346C18.4158 21.0215 18.446 20.8963 18.446 20.7692C18.446 20.6422 18.4158 20.517 18.3577 20.4039C18.2997 20.2909 18.2156 20.1933 18.1124 20.1192C13.3964 16.7272 10.6924 13.3152 10.6924 10.7552V3.52725H29.3084V10.7552C29.3084 13.3152 26.6044 16.7272 21.8884 20.1192Z" fill="black"/>
<path d="M20.4644 26.5192C20.3285 26.4219 20.1655 26.3695 19.9984 26.3695C19.8312 26.3695 19.6683 26.4219 19.5324 26.5192L19.2764 26.7032C15.2764 29.5712 12.6924 32.6072 12.6924 34.4392V35.1272C12.6924 35.3394 12.7767 35.5429 12.9267 35.6929C13.0767 35.8429 13.2802 35.9272 13.4924 35.9272H26.5084C26.7206 35.9272 26.924 35.8429 27.0741 35.6929C27.2241 35.5429 27.3084 35.3394 27.3084 35.1272V34.4392C27.3084 32.6072 24.7244 29.5712 20.7244 26.7032L20.4644 26.5192ZM25.7004 34.3272H14.3004C14.4284 33.4992 15.9004 31.1272 20.0004 28.1552C24.1044 31.1272 25.5684 33.4992 25.7004 34.3272ZM26.5084 8.35522H13.4924C13.2802 8.35522 13.0767 8.43951 12.9267 8.58954C12.7767 8.73957 12.6924 8.94305 12.6924 9.15522V10.7552C12.6924 12.6072 15.2164 15.5552 19.2804 18.4952L19.5324 18.6752C19.6686 18.7735 19.8324 18.8264 20.0004 18.8264C20.1684 18.8264 20.3321 18.7735 20.4684 18.6752L20.7204 18.4952C24.8004 15.5712 27.3084 12.6072 27.3084 10.7552V9.15522C27.3084 8.94305 27.2241 8.73957 27.0741 8.58954C26.924 8.43951 26.7206 8.35522 26.5084 8.35522ZM25.7084 10.7552C25.7084 11.5872 24.1524 14.0112 20.0004 17.0392C15.8444 14.0112 14.2924 11.5872 14.2924 10.7552V9.95522H25.7084V10.7552ZM20.0004 22.2752C20.2126 22.2752 20.416 22.1909 20.5661 22.0409C20.7161 21.8909 20.8004 21.6874 20.8004 21.4752V21.0432C20.8004 20.8311 20.7161 20.6276 20.5661 20.4775C20.416 20.3275 20.2126 20.2432 20.0004 20.2432C19.7882 20.2432 19.5847 20.3275 19.4347 20.4775C19.2847 20.6276 19.2004 20.8311 19.2004 21.0432V21.4752C19.2004 21.6874 19.2847 21.8909 19.4347 22.0409C19.5847 22.1909 19.7882 22.2752 20.0004 22.2752ZM19.2004 24.5392C19.2004 24.7514 19.2847 24.9549 19.4347 25.1049C19.5847 25.2549 19.7882 25.3392 20.0004 25.3392C20.2126 25.3392 20.416 25.2549 20.5661 25.1049C20.7161 24.9549 20.8004 24.7514 20.8004 24.5392V24.1072C20.8004 23.8951 20.7161 23.6916 20.5661 23.5415C20.416 23.3915 20.2126 23.3072 20.0004 23.3072C19.7882 23.3072 19.5847 23.3915 19.4347 23.5415C19.2847 23.6916 19.2004 23.8951 19.2004 24.1072V24.5392Z" fill="black"/>
</svg>
