<svg width="40" height="41" viewBox="0 0 40 41" fill="none" xmlns="http://www.w3.org/2000/svg">
<path d="M26.7566 20.3616L15.5066 4.73663C15.4486 4.6566 15.3725 4.59144 15.2845 4.54651C15.1965 4.50158 15.0991 4.47815 15.0003 4.47815C14.9015 4.47815 14.8041 4.50158 14.7161 4.54651C14.6281 4.59144 14.552 4.6566 14.4941 4.73663L3.24408 20.3616C3.1673 20.4681 3.12598 20.596 3.12598 20.7273C3.12598 20.8585 3.1673 20.9864 3.24408 21.0929L14.4941 36.7179C14.552 36.7979 14.6281 36.8631 14.7161 36.908C14.8041 36.9529 14.9015 36.9764 15.0003 36.9764C15.0991 36.9764 15.1965 36.9529 15.2845 36.908C15.3725 36.8631 15.4486 36.7979 15.5066 36.7179L26.7566 21.0929C26.8334 20.9864 26.8747 20.8585 26.8747 20.7273C26.8747 20.596 26.8334 20.4681 26.7566 20.3616ZM20.0003 28.3366L19.4035 27.5085C19.3019 27.3909 19.1603 27.3153 19.006 27.2965C18.8518 27.2776 18.6961 27.3169 18.5693 27.4067C18.4424 27.4964 18.3536 27.6302 18.32 27.7819C18.2865 27.9336 18.3107 28.0924 18.3878 28.2273L19.2316 29.396L15.0003 35.2835L4.51908 20.7273L15.0003 6.17101L19.2316 12.046L18.4003 13.2023C18.3035 13.3366 18.2639 13.5038 18.2903 13.6673C18.3167 13.8307 18.4068 13.9771 18.541 14.0741C18.6473 14.1511 18.7753 14.1927 18.9066 14.1929C19.0057 14.1924 19.1034 14.1684 19.1914 14.1227C19.2794 14.0771 19.3553 14.0112 19.4128 13.9304L20.0003 13.1179L25.4816 20.7273L20.0003 28.3366Z" fill="black"/>
<path d="M16.7035 23.7585C16.6019 23.6409 16.4603 23.5653 16.306 23.5465C16.1518 23.5276 15.9961 23.5669 15.8693 23.6567C15.7424 23.7464 15.6536 23.8802 15.62 24.0319C15.5865 24.1836 15.6107 24.3424 15.6878 24.4773L17.0378 26.3523C17.096 26.4329 17.1725 26.4985 17.2611 26.5436C17.3497 26.5887 17.4478 26.612 17.5472 26.6116C17.6777 26.6121 17.8048 26.5704 17.9097 26.4929C18.0443 26.3963 18.1351 26.2502 18.1621 26.0867C18.189 25.9232 18.15 25.7557 18.0535 25.621L16.7035 23.7585ZM15.2097 18.6991C15.0754 18.6023 14.9081 18.5627 14.7447 18.5891C14.5812 18.6155 14.4349 18.7056 14.3378 18.8398L13.2441 20.3616C13.1673 20.4681 13.126 20.596 13.126 20.7273C13.126 20.8585 13.1673 20.9864 13.2441 21.0929L14.3378 22.6023C14.396 22.6829 14.4725 22.7485 14.5611 22.7936C14.6497 22.8387 14.7478 22.862 14.8472 22.8616C14.9777 22.8621 15.1048 22.8204 15.2097 22.7429C15.3443 22.6463 15.4351 22.5002 15.4621 22.3367C15.489 22.1732 15.45 22.0057 15.3535 21.871L14.5191 20.7273L15.3535 19.571C15.45 19.4363 15.489 19.2688 15.4621 19.1053C15.4351 18.9418 15.3443 18.7957 15.2097 18.6991ZM17.9191 14.9398C17.8525 14.8913 17.7769 14.8565 17.6969 14.8374C17.6168 14.8182 17.5337 14.8151 17.4523 14.8282C17.371 14.8412 17.2931 14.8702 17.223 14.9135C17.153 14.9568 17.0922 15.0135 17.0441 15.0804L15.691 16.9554C15.6409 17.0219 15.6046 17.0978 15.5842 17.1786C15.5639 17.2594 15.5599 17.3434 15.5725 17.4257C15.5851 17.5081 15.614 17.5871 15.6576 17.6581C15.7012 17.7291 15.7585 17.7906 15.8262 17.8392C15.8939 17.8877 15.9706 17.9222 16.0518 17.9407C16.133 17.9591 16.2171 17.9612 16.2991 17.9467C16.3812 17.9322 16.4595 17.9014 16.5294 17.8562C16.5994 17.811 16.6596 17.7523 16.7066 17.6835L18.0597 15.8085C18.1556 15.6744 18.1946 15.5079 18.1682 15.3452C18.1419 15.1825 18.0523 15.0368 17.9191 14.9398ZM36.7566 20.3616L25.5066 4.73663C25.4486 4.6566 25.3725 4.59144 25.2845 4.54651C25.1965 4.50158 25.0991 4.47815 25.0003 4.47815C24.9015 4.47815 24.8041 4.50158 24.7161 4.54651C24.6281 4.59144 24.552 4.6566 24.4941 4.73663L20.9785 9.61788C20.8864 9.75273 20.8508 9.91823 20.8793 10.079C20.9077 10.2397 20.9979 10.383 21.1306 10.4781C21.2632 10.5732 21.4279 10.6127 21.5892 10.588C21.7506 10.5633 21.8959 10.4764 21.9941 10.346L25.0003 6.17101L35.4816 20.7273L25.0003 35.2835L21.9847 31.0929C21.8877 30.9582 21.7412 30.8676 21.5774 30.8409C21.4136 30.8142 21.2459 30.8537 21.1113 30.9507C20.9766 31.0477 20.8859 31.1942 20.8593 31.358C20.8326 31.5218 20.8721 31.6895 20.9691 31.8241L24.4941 36.7179C24.552 36.7979 24.6281 36.8631 24.7161 36.908C24.8041 36.9529 24.9015 36.9764 25.0003 36.9764C25.0991 36.9764 25.1965 36.9529 25.2845 36.908C25.3725 36.8631 25.4486 36.7979 25.5066 36.7179L36.7566 21.0929C36.8334 20.9864 36.8747 20.8585 36.8747 20.7273C36.8747 20.596 36.8334 20.4681 36.7566 20.3616Z" fill="black"/>
</svg>
