<svg width="41" height="40" viewBox="0 0 41 40" fill="none" xmlns="http://www.w3.org/2000/svg">
<path d="M27.2566 19.6344L16.0066 4.00938C15.9486 3.92935 15.8725 3.86419 15.7845 3.81926C15.6965 3.77433 15.5991 3.7509 15.5003 3.7509C15.4015 3.7509 15.3041 3.77433 15.2161 3.81926C15.1281 3.86419 15.052 3.92935 14.9941 4.00938L3.74408 19.6344C3.6673 19.7408 3.62598 19.8688 3.62598 20C3.62598 20.1313 3.6673 20.2592 3.74408 20.3656L14.9941 35.9906C15.052 36.0707 15.1281 36.1358 15.2161 36.1808C15.3041 36.2257 15.4015 36.2491 15.5003 36.2491C15.5991 36.2491 15.6965 36.2257 15.7845 36.1808C15.8725 36.1358 15.9486 36.0707 16.0066 35.9906L27.2566 20.3656C27.3334 20.2592 27.3747 20.1313 27.3747 20C27.3747 19.8688 27.3334 19.7408 27.2566 19.6344ZM20.5003 27.6094L19.9035 26.7813C19.8019 26.6636 19.6603 26.588 19.506 26.5692C19.3518 26.5504 19.1961 26.5897 19.0693 26.6794C18.9424 26.7692 18.8536 26.903 18.82 27.0547C18.7865 27.2064 18.8107 27.3651 18.8878 27.5L19.7316 28.6688L15.5003 34.5563L5.01908 20L15.5003 5.44376L19.7316 11.3188L18.9003 12.475C18.8035 12.6093 18.7639 12.7766 18.7903 12.94C18.8167 13.1035 18.9068 13.2498 19.041 13.3469C19.1473 13.4239 19.2753 13.4654 19.4066 13.4656C19.5057 13.4652 19.6034 13.4411 19.6914 13.3955C19.7794 13.3498 19.8553 13.2839 19.9128 13.2031L20.5003 12.3906L25.9816 20L20.5003 27.6094Z" fill="#C4B48A"/>
<path d="M17.2035 23.0313C17.1019 22.9136 16.9603 22.838 16.806 22.8192C16.6518 22.8004 16.4961 22.8397 16.3693 22.9294C16.2424 23.0192 16.1536 23.153 16.12 23.3047C16.0865 23.4564 16.1107 23.6151 16.1878 23.75L17.5378 25.625C17.596 25.7056 17.6725 25.7712 17.7611 25.8163C17.8497 25.8614 17.9478 25.8848 18.0472 25.8844C18.1777 25.8848 18.3048 25.8432 18.4097 25.7656C18.5443 25.669 18.6351 25.5229 18.6621 25.3595C18.689 25.196 18.65 25.0285 18.5535 24.8938L17.2035 23.0313ZM15.7097 17.9719C15.5754 17.875 15.4081 17.8355 15.2447 17.8618C15.0812 17.8882 14.9349 17.9784 14.8378 18.1125L13.7441 19.6344C13.6673 19.7408 13.626 19.8688 13.626 20C13.626 20.1313 13.6673 20.2592 13.7441 20.3656L14.8378 21.875C14.896 21.9556 14.9725 22.0212 15.0611 22.0663C15.1497 22.1114 15.2478 22.1348 15.3472 22.1344C15.4777 22.1348 15.6048 22.0932 15.7097 22.0156C15.8443 21.919 15.9351 21.7729 15.9621 21.6095C15.989 21.446 15.95 21.2785 15.8535 21.1438L15.0191 20L15.8535 18.8438C15.95 18.7091 15.989 18.5416 15.9621 18.3781C15.9351 18.2146 15.8443 18.0685 15.7097 17.9719ZM18.4191 14.2125C18.3525 14.1641 18.2769 14.1293 18.1969 14.1101C18.1168 14.091 18.0337 14.0879 17.9523 14.1009C17.871 14.114 17.7931 14.143 17.723 14.1863C17.653 14.2296 17.5922 14.2863 17.5441 14.3531L16.191 16.2281C16.1409 16.2947 16.1046 16.3706 16.0842 16.4514C16.0639 16.5321 16.0599 16.6162 16.0725 16.6985C16.0851 16.7808 16.114 16.8598 16.1576 16.9308C16.2012 17.0018 16.2585 17.0634 16.3262 17.1119C16.3939 17.1605 16.4706 17.195 16.5518 17.2134C16.633 17.2319 16.7171 17.2339 16.7991 17.2194C16.8812 17.2049 16.9595 17.1742 17.0294 17.129C17.0994 17.0838 17.1596 17.0251 17.2066 16.9563L18.5597 15.0813C18.6556 14.9472 18.6946 14.7806 18.6682 14.6179C18.6419 14.4552 18.5523 14.3095 18.4191 14.2125ZM37.2566 19.6344L26.0066 4.00938C25.9486 3.92935 25.8725 3.86419 25.7845 3.81926C25.6965 3.77433 25.5991 3.7509 25.5003 3.7509C25.4015 3.7509 25.3041 3.77433 25.2161 3.81926C25.1281 3.86419 25.052 3.92935 24.9941 4.00938L21.4785 8.89063C21.3864 9.02548 21.3508 9.19098 21.3793 9.35173C21.4077 9.51249 21.4979 9.65575 21.6306 9.75087C21.7632 9.84599 21.9279 9.88542 22.0892 9.86073C22.2506 9.83604 22.3959 9.74919 22.4941 9.61876L25.5003 5.44376L35.9816 20L25.5003 34.5563L22.4847 30.3656C22.3877 30.231 22.2412 30.1403 22.0774 30.1136C21.9136 30.087 21.7459 30.1265 21.6113 30.2234C21.4766 30.3204 21.3859 30.4669 21.3593 30.6307C21.3326 30.7945 21.3721 30.9622 21.4691 31.0969L24.9941 35.9906C25.052 36.0707 25.1281 36.1358 25.2161 36.1808C25.3041 36.2257 25.4015 36.2491 25.5003 36.2491C25.5991 36.2491 25.6965 36.2257 25.7845 36.1808C25.8725 36.1358 25.9486 36.0707 26.0066 35.9906L37.2566 20.3656C37.3334 20.2592 37.3747 20.1313 37.3747 20C37.3747 19.8688 37.3334 19.7408 37.2566 19.6344Z" fill="#C4B48A"/>
</svg>
