<svg width="40" height="41" viewBox="0 0 40 41" fill="none" xmlns="http://www.w3.org/2000/svg">
<path d="M28.662 10.3023C29.1346 11.3204 29.487 12.3901 29.712 13.4898C31.4212 14.418 32.8902 15.7321 34.0022 17.3278C35.1142 18.9234 35.8386 20.7566 36.1176 22.6814C36.3966 24.6062 36.2226 26.5695 35.6095 28.4153C34.9964 30.261 33.961 31.9382 32.5857 33.3135C31.2105 34.6888 29.5333 35.7241 27.6875 36.3373C25.8418 36.9504 23.8784 37.1244 21.9536 36.8454C20.0288 36.5663 18.1957 35.842 16.6 34.73C15.0043 33.618 13.6902 32.149 12.762 30.4398C11.6624 30.2148 10.5926 29.8624 9.57453 29.3898C10.4074 31.7909 11.8367 33.941 13.7283 35.6383C15.6198 37.3356 17.9116 38.5244 20.3885 39.0933C22.8655 39.6622 25.4463 39.5924 27.8889 38.8905C30.3315 38.1886 32.5557 36.8776 34.3527 35.0805C36.1498 33.2834 37.4608 31.0593 38.1627 28.6167C38.8646 26.1741 38.9344 23.5933 38.3655 21.1163C37.7966 18.6394 36.6078 16.3476 34.9105 14.4561C33.2132 12.5645 31.0631 11.1352 28.662 10.3023ZM23.7495 9.47732C25.4218 9.47351 27.0827 9.75244 28.662 10.3023C27.689 8.20319 26.2236 6.36995 24.3904 4.95834C22.5573 3.54674 20.4104 2.59848 18.1324 2.19413C15.8543 1.78978 13.5122 1.94128 11.3052 2.63577C9.09824 3.33026 7.09149 4.54721 5.45546 6.18324C3.81943 7.81927 2.60248 9.82603 1.90799 12.033C1.2135 14.24 1.06199 16.5821 1.46635 18.8601C1.8707 21.1382 2.81895 23.285 4.23056 25.1182C5.64217 26.9514 7.4754 28.4168 9.57453 29.3898C9.02466 27.8105 8.74573 26.1496 8.74953 24.4773C8.74953 20.4991 10.3299 16.6838 13.1429 13.8707C15.956 11.0577 19.7713 9.47732 23.7495 9.47732Z" fill="black"/>
<path d="M11.25 24.4773C11.2496 26.5597 11.7695 28.6093 12.7625 30.4398C15.089 30.9126 17.4964 30.8019 19.7697 30.1174C22.043 29.433 24.1114 28.1962 25.7901 26.5174C27.4689 24.8387 28.7057 22.7703 29.3901 20.497C30.0746 18.2237 30.1853 15.8163 29.7125 13.4898C27.8085 12.4564 25.6685 11.9356 23.5026 11.9785C21.3366 12.0214 19.219 12.6265 17.3573 13.7344C15.4957 14.8423 13.9539 16.415 12.8833 18.2983C11.8126 20.1817 11.2498 22.3109 11.25 24.4773Z" fill="black"/>
</svg>
