<svg width="36" height="38" viewBox="0 0 36 38" fill="none" xmlns="http://www.w3.org/2000/svg">
<path d="M13.5 14.6023H15.75V28.4773H13.5V14.6023ZM20.25 14.6023H22.5V28.4773H20.25V14.6023Z" fill="black"/>
<path d="M4.5 7.66479V9.97729H6.75V33.1023C6.75 33.7156 6.98705 34.3038 7.40901 34.7375C7.83097 35.1712 8.40326 35.4148 9 35.4148H27C27.5967 35.4148 28.169 35.1712 28.591 34.7375C29.0129 34.3038 29.25 33.7156 29.25 33.1023V9.97729H31.5V7.66479H4.5ZM9 33.1023V9.97729H27V33.1023H9ZM13.5 3.03979H22.5V5.35229H13.5V3.03979Z" fill="black"/>
</svg>
