<svg width="32" height="33" viewBox="0 0 32 33" fill="none" xmlns="http://www.w3.org/2000/svg">
<path fill-rule="evenodd" clip-rule="evenodd" d="M15.9998 2.39395C14.32 2.39395 12.7091 3.06121 11.5214 4.24894C10.3337 5.43667 9.66642 7.04758 9.66642 8.72728C9.66642 10.407 10.3337 12.0179 11.5214 13.2056C12.7091 14.3934 14.32 15.0606 15.9998 15.0606C17.6795 15.0606 19.2904 14.3934 20.4781 13.2056C21.6658 12.0179 22.3331 10.407 22.3331 8.72728C22.3331 7.04758 21.6658 5.43667 20.4781 4.24894C19.2904 3.06121 17.6795 2.39395 15.9998 2.39395ZM11.6664 8.72728C11.6664 7.57801 12.123 6.47581 12.9356 5.66316C13.7483 4.8505 14.8505 4.39395 15.9998 4.39395C17.149 4.39395 18.2512 4.8505 19.0639 5.66316C19.8765 6.47581 20.3331 7.57801 20.3331 8.72728C20.3331 9.87656 19.8765 10.9788 19.0639 11.7914C18.2512 12.6041 17.149 13.0606 15.9998 13.0606C14.8505 13.0606 13.7483 12.6041 12.9356 11.7914C12.123 10.9788 11.6664 9.87656 11.6664 8.72728ZM15.9998 17.0606C12.9157 17.0606 10.0731 17.7619 7.96775 18.9459C5.89308 20.1139 4.33308 21.882 4.33308 24.0606V24.1966C4.33175 25.7459 4.33042 27.6899 6.03575 29.0793C6.87442 29.7619 8.04908 30.2486 9.63575 30.5686C11.2251 30.8913 13.2984 31.0606 15.9998 31.0606C18.7011 31.0606 20.7731 30.8913 22.3651 30.5686C23.9517 30.2486 25.1251 29.7619 25.9651 29.0793C27.6704 27.6899 27.6677 25.7459 27.6664 24.1966V24.0606C27.6664 21.882 26.1064 20.1139 24.0331 18.9459C21.9264 17.7619 19.0851 17.0606 15.9998 17.0606ZM6.33308 24.0606C6.33308 22.926 7.16242 21.694 8.94775 20.69C10.7024 19.7033 13.1931 19.0606 16.0011 19.0606C18.8064 19.0606 21.2971 19.7033 23.0518 20.69C24.8384 21.694 25.6664 22.926 25.6664 24.0606C25.6664 25.8046 25.6131 26.7859 24.7011 27.5273C24.2077 27.93 23.3811 28.3233 21.9678 28.6086C20.5584 28.8939 18.6318 29.0606 15.9998 29.0606C13.3678 29.0606 11.4397 28.8939 10.0317 28.6086C8.61842 28.3233 7.79175 27.9299 7.29842 27.5286C6.38642 26.7859 6.33308 25.8046 6.33308 24.0606Z" fill="url(#paint0_linear_4_85)"/>
<defs>
<linearGradient id="paint0_linear_4_85" x1="6.76358" y1="1.99309" x2="29.8819" y2="25.6208" gradientUnits="userSpaceOnUse">
<stop stop-color="#222222"/>
<stop offset="1" stop-color="#12110B"/>
</linearGradient>
</defs>
</svg>
