<svg width="32" height="32" viewBox="0 0 32 32" fill="none" xmlns="http://www.w3.org/2000/svg">
<path d="M16 0.727295C15.2557 0.727295 14.5114 0.981227 13.8768 1.43544L11.8967 2.81359L9.62554 3.11164H9.58975L9.55158 3.1474C8.80475 3.31543 8.12099 3.69189 7.57979 4.233C7.0386 4.77411 6.6622 5.45764 6.49437 6.20412L6.45858 6.23989V6.27804L6.16037 8.58846L4.78147 10.3767L4.7433 10.4125V10.4506C3.9107 11.7835 3.87253 13.5026 4.78147 14.7723L6.19497 16.7501L6.56951 18.7982L2.72861 24.6482L1.5 26.4722H7.2029L8.58181 29.6768L9.44065 31.7273L10.6693 29.8639L14.4362 24.2011C15.4453 24.6184 16.5904 24.6542 17.5662 24.2011L21.3319 29.8639L22.5605 31.7237L23.4194 29.6732L24.7971 26.471H30.5L29.2714 24.6446L25.5426 18.983L25.8408 16.7477L27.2197 14.7734L27.2579 14.7377V14.7019C28.0905 13.3667 28.1287 11.6881 27.2197 10.4161L25.8408 8.44064L25.3935 6.20412H25.4293C25.4293 6.17432 25.3971 6.15644 25.3935 6.12902C25.1788 4.57085 23.9418 3.30357 22.3757 3.11283H22.3375L20.1009 2.81478L18.1244 1.43664C17.5075 0.984806 16.7648 0.736815 16 0.727295ZM16 3.1474C16.2744 3.1474 16.5463 3.23085 16.7455 3.37391L18.8687 4.89989L19.1312 5.08587L19.4294 5.12402L22.0393 5.49598H22.0751C22.6095 5.55558 22.9864 5.93112 23.0448 6.46521V6.53912L23.5303 9.18574L23.5661 9.44444L23.7534 9.66857L25.2802 11.7906C25.5665 12.19 25.6023 12.8564 25.2444 13.4311L23.7534 15.5174L23.5673 15.7796L23.5291 16.0777L23.157 18.6838V18.7195C23.1384 18.9061 23.0745 19.0854 22.9709 19.2417L22.8957 19.2798V19.318C22.718 19.5301 22.4639 19.6637 22.1884 19.69H22.1144L19.3948 20.1752L19.0966 20.2109L18.8699 20.3981L16.7467 21.9241C16.3495 22.2102 15.6445 22.246 15.0696 21.8883L13.1301 20.3981L12.9058 20.2121L12.5718 20.174L9.96072 19.802H9.92255C9.75374 19.7882 9.59086 19.7335 9.44804 19.6425C9.30523 19.5515 9.18681 19.427 9.10308 19.2798C9.02309 19.1426 8.97195 18.9905 8.95278 18.8328V18.7589L8.46849 16.0407L8.43032 15.7427L8.24424 15.5162L6.71742 13.3941C6.43115 12.9971 6.39536 12.2925 6.75321 11.7179L8.24424 9.77944L8.43032 9.55531L8.46611 9.22151L8.80368 6.72391C8.80606 6.70722 8.83469 6.70603 8.83946 6.68815C8.91428 6.40138 9.06425 6.13975 9.27392 5.9302C9.48359 5.72064 9.74537 5.57075 10.0323 5.49598C10.0502 5.49121 10.0514 5.46259 10.0681 5.46021L12.567 5.12402L12.8653 5.08587L13.1277 4.89989L15.2509 3.37391C15.4501 3.23085 15.7233 3.1474 15.9964 3.1474H16ZM24.2377 21.2922L26.0651 24.0867H23.1927L22.8945 24.8318L22.0763 26.7309L19.5415 22.8564L20.0997 22.4463L22.4472 22.035V22.0707C22.4771 22.0707 22.4949 22.0385 22.5224 22.035C23.1497 21.9441 23.7412 21.6868 24.2353 21.2898L24.2377 21.2922ZM7.76234 21.328C8.27168 21.7834 8.9158 22.1005 9.62554 22.1864H9.66132L11.9372 22.4844L12.4585 22.8945L9.92493 26.7309L9.10546 24.8318L8.80726 24.0855H5.93254L7.75995 21.328H7.76234Z" fill="black"/>
</svg>
