<svg width="156" height="156" viewBox="0 0 156 156" fill="none" xmlns="http://www.w3.org/2000/svg">
<circle cx="77.7123" cy="78.2123" r="72.922" stroke="#AC924D" stroke-width="2"/>
<circle cx="77.7123" cy="78.2124" r="76.8737" stroke="#AC924D"/>
<path d="M51.0068 121.707V120.248C51.7202 119.989 53.3219 119.178 54.0223 118.011C54.8977 116.552 55.1896 114.947 55.3355 114.12C55.4814 113.293 55.6759 110.569 55.6759 109.937V52.9839C55.6759 51.6221 55.4036 48.1786 55.2868 47.4394C55.1701 46.7001 54.8491 45.3091 54.6546 44.7644C54.394 44.0348 53.8764 43.1594 53.3414 42.5757C52.8064 41.9921 51.6877 41.5544 51.1041 41.5544V39.8035H69.975V41.3598C69.5211 41.3923 68.3214 41.7878 67.1541 43.1107C65.695 44.7644 65.3059 49.3848 65.3059 53.3244V102.739C65.3059 106.435 65.2767 114.713 66.3273 116.892C66.7728 117.816 67.5432 119.694 70.0723 119.81V121.707H51.0068Z" fill="#FFFFFD"/>
<g filter="url(#filter0_i_262_1113)">
<path d="M69.6832 45.5913C69.2942 46.4343 68.1755 49.1223 66.8137 53.1299C65.1114 58.1394 64.8682 60.0363 64.1387 62.8572C63.4092 65.6781 62.631 70.4931 62.2905 73.8004C61.9501 77.1076 61.6582 79.8313 61.5123 83.7708C61.3664 87.7104 61.3664 89.5585 61.5123 93.4008C61.6582 97.2431 62.3878 102.155 62.9228 104.928C63.4578 107.7 64.5764 111.883 65.6951 114.655C66.8137 117.427 68.8564 120.345 69.2942 120.88C69.7319 121.415 70.656 122.68 72.0178 123.604C73.3796 124.528 74.3523 125.112 76.3464 125.258C78.3405 125.404 79.4105 125.112 80.4319 124.625C81.4532 124.139 82.8151 123.215 83.9337 122.048C85.0523 120.88 86.4141 119.567 88.4569 115.482C90.4996 111.396 91.0832 109.451 91.7641 107.457C92.4451 105.463 93.4664 102.204 93.8555 100.696C94.2446 99.1885 95.3632 95.3463 95.7037 93.8872C96.0442 92.4281 97.0169 88.3913 97.5032 86.2513C97.9896 84.1113 99.0596 79.734 99.3514 78.2263C99.6432 76.7185 100.47 73.3626 100.956 71.3199C101.443 69.2772 102.561 64.8513 102.902 63.5381L102.923 63.4585C103.273 62.1062 104.037 59.1596 104.847 56.6804C105.674 54.1513 106.112 52.6922 107.133 49.8713C108.155 47.0504 109.322 44.5699 110.197 42.8676C111.073 41.1654 112.435 38.8308 114.04 36.934C115.645 35.0372 117.298 33.8213 118.709 33.0431C120.119 32.2649 122.016 32.0217 123.67 32.1676C125.323 32.3135 126.928 32.8486 127.317 33.0431C127.706 33.2376 127.755 33.043 127.706 32.9458C127.658 32.8485 127.22 32.654 127.123 32.6053C127.026 32.5567 125.469 31.973 124.691 31.8271C123.913 31.6812 122.162 31.4867 120.897 31.7299C119.633 31.973 118.466 32.4594 117.152 33.2862C115.839 34.113 114.088 35.7666 112.532 37.9066C110.976 40.0466 109.711 42.4298 109.176 43.5971C108.641 44.7644 107.62 47.0016 106.987 48.6553C106.355 50.3089 105.626 52.1571 105.042 53.9566C104.458 55.7562 103.291 59.4526 102.805 61.3494C102.318 63.2462 101.54 65.9212 101.054 67.9639C100.567 70.0066 99.3514 74.773 98.7191 77.3021C98.0869 79.8312 97.1141 83.9166 96.6278 86.0566C96.1414 88.1966 95.3632 91.3094 95.0714 92.428C94.7796 93.5466 93.8555 97.1944 93.4178 98.7021C92.9801 100.21 91.8614 104.149 91.2778 105.803C90.6942 107.457 89.9646 109.791 88.9919 112.077C88.0191 114.363 87.3869 115.822 86.3169 117.67L86.248 117.789C85.1982 119.604 84.0699 121.554 81.4046 123.458C78.681 125.403 75.5196 124.674 74.2064 123.604C72.8932 122.534 70.9964 120.832 69.4401 117.378C67.8837 113.925 66.911 111.396 66.2301 108.381C65.5492 105.365 65.2573 103.517 65.1114 102.447C64.9655 101.377 64.5278 98.3616 64.4305 96.708C64.3332 95.0544 64.1387 90.7744 64.1873 89.0721C64.236 87.3698 64.236 83.8194 64.2846 82.8466C64.3332 81.8739 64.6251 77.2535 64.8682 75.3566C65.1114 73.4598 65.7437 68.8394 66.0842 67.3316C66.4246 65.8239 66.8623 63.3435 67.5432 60.5225C68.2242 57.7016 69.051 54.6862 69.8778 52.1571C70.6372 49.8342 71.0684 48.373 71.9626 46.0776C72.0242 45.9196 72.0879 45.7577 72.1541 45.5913C72.1733 45.543 72.1927 45.4943 72.2123 45.4453C73.3982 42.9313 73.7976 42.2215 74.2227 41.466L74.2551 41.4085C74.6928 40.6303 75.8601 38.7821 76.5896 37.858C77.3192 36.9339 78.681 35.3776 79.6051 34.7453L79.6274 34.73C80.5495 34.099 81.8089 33.2372 83.6905 33.1889C85.5873 33.1403 86.8032 33.9185 87.3869 35.2316C87.9705 36.5448 88.0678 39.1226 86.9978 41.1166C85.9278 43.1107 83.5446 44.7644 82.1342 45.2021C80.7237 45.6398 78.8755 46.1262 75.9087 45.9803C73.5352 45.8636 72.4167 45.6723 72.1541 45.5913C72.0879 45.7577 72.0242 45.9196 71.9626 46.0776C73.4152 46.3207 76.4923 46.7098 78.7296 46.4666C80.9669 46.2235 82.8637 45.6885 84.4687 44.6671C86.0737 43.6457 87.1437 42.2353 87.6787 41.1166C88.2137 39.998 88.7973 37.4689 88.1164 35.718C87.4355 33.9671 86.3169 33.1889 85.5387 32.8485C84.7605 32.508 83.3014 32.2648 81.9396 32.4594C80.5778 32.6539 79.1187 33.2862 77.8055 34.1616C76.4923 35.0371 75.1305 36.4476 74.1578 37.6635C73.1851 38.8794 72.1541 40.6789 71.726 41.4085C71.4184 41.9326 70.4499 43.9604 69.8658 45.2021C69.7995 45.3431 69.7381 45.4739 69.6832 45.5913Z" fill="#AC924D"/>
<path d="M28.4882 63.0509C28.5531 63.2292 28.7606 63.547 29.0719 63.3913C29.3832 63.2357 29.4285 63.0347 29.4123 62.9536C29.3313 62.8239 29.1594 62.4672 29.1205 62.0782C29.0719 61.5918 29.0719 60.3759 29.0719 60.2786C29.0719 60.1813 29.1205 58.9168 29.2664 57.9441C29.4123 56.9713 29.8501 55.5609 30.1419 54.9286L30.157 54.8959C30.4613 54.2363 31.2719 52.4797 31.9414 51.4754C32.6223 50.4541 33.6923 49.0436 35.0542 47.8277C36.416 46.6118 37.4373 45.9795 38.7019 45.2986C39.9664 44.6177 41.9119 43.7909 42.9332 43.4991C43.9546 43.2072 45.4137 42.7695 48.6723 42.4291C51.931 42.0886 55.3359 42.5129 55.5787 42.5263C55.7501 42.5358 59.5669 43.0386 60.0046 43.1099C60.7017 43.2234 62.2224 43.4796 62.7282 43.5963C63.5551 43.7871 66.8429 44.6574 69.6832 45.5913C69.7381 45.4739 69.7995 45.3431 69.8658 45.2021C69.3188 45.0076 68.0782 44.6185 67.5919 44.4726C67.1055 44.3266 65.306 43.7916 64.5278 43.5963C63.7496 43.401 60.9287 42.673 58.5942 42.2839C56.2596 41.8948 52.5146 41.603 51.1042 41.603C49.6937 41.603 47.6023 41.7976 46.2405 41.9921C44.8787 42.1866 43.1764 42.5757 41.5714 43.1594C39.9664 43.743 38.0696 44.7644 36.8537 45.5426C35.6378 46.3207 33.9355 47.9257 33.1573 48.8012C32.3792 49.6766 30.7255 52.303 30.3851 53.0326C30.0446 53.7621 29.2178 55.8535 29.0232 56.4857C28.8287 57.118 28.5855 58.2366 28.4396 59.0635C28.3229 59.7249 28.2937 60.9279 28.2937 61.4466C28.2937 61.7579 28.3723 62.732 28.4882 63.0509Z" fill="#AC924D"/>
</g>
<path d="M30.1419 54.9286C29.8501 55.5609 29.4123 56.9713 29.2664 57.9441C29.1205 58.9168 29.0719 60.1813 29.0719 60.2786C29.0719 60.3759 29.0719 61.5918 29.1205 62.0782C29.1594 62.4672 29.3313 62.8239 29.4123 62.9536C29.4285 63.0347 29.3832 63.2357 29.0719 63.3913C28.7606 63.547 28.5531 63.2292 28.4882 63.0509C28.3723 62.732 28.2937 61.7579 28.2937 61.4466C28.2937 60.9279 28.3229 59.7249 28.4396 59.0635C28.5855 58.2366 28.8287 57.118 29.0232 56.4857C29.2178 55.8535 30.0446 53.7621 30.3851 53.0326C30.7255 52.303 32.3792 49.6766 33.1573 48.8012C33.9355 47.9257 35.6378 46.3207 36.8537 45.5426C38.0696 44.7644 39.9664 43.743 41.5714 43.1594C43.1764 42.5757 44.8787 42.1866 46.2405 41.9921C47.6023 41.7976 49.6937 41.603 51.1042 41.603C52.5146 41.603 56.2596 41.8948 58.5942 42.2839C60.9287 42.673 63.7496 43.401 64.5278 43.5963C65.306 43.7916 67.1055 44.3266 67.5919 44.4726C68.0782 44.6185 69.3188 45.0076 69.8658 45.2021M30.1419 54.9286L30.157 54.8959M30.1419 54.9286C30.1468 54.918 30.1518 54.9071 30.157 54.8959M69.6832 45.5913C66.8429 44.6574 63.5551 43.7871 62.7282 43.5963C62.2224 43.4796 60.7017 43.2234 60.0046 43.1099C59.5669 43.0386 55.7501 42.5358 55.5787 42.5263C55.3359 42.5129 51.931 42.0886 48.6723 42.4291C45.4137 42.7695 43.9546 43.2072 42.9332 43.4991C41.9119 43.7909 39.9664 44.6177 38.7019 45.2986C37.4373 45.9795 36.416 46.6118 35.0542 47.8277C33.6923 49.0436 32.6223 50.4541 31.9414 51.4754C31.2719 52.4797 30.4613 54.2363 30.157 54.8959M69.6832 45.5913C69.2942 46.4343 68.1755 49.1223 66.8137 53.1299C65.1114 58.1394 64.8682 60.0363 64.1387 62.8572C63.4092 65.6781 62.631 70.4931 62.2905 73.8004C61.9501 77.1076 61.6582 79.8313 61.5123 83.7708C61.3664 87.7104 61.3664 89.5585 61.5123 93.4008C61.6582 97.2431 62.3878 102.155 62.9228 104.928C63.4578 107.7 64.5764 111.883 65.6951 114.655C66.8137 117.427 68.8564 120.345 69.2942 120.88C69.7319 121.415 70.656 122.68 72.0178 123.604C73.3796 124.528 74.3523 125.112 76.3464 125.258C78.3405 125.404 79.4105 125.112 80.4319 124.625C81.4532 124.139 82.8151 123.215 83.9337 122.048C85.0523 120.88 86.4141 119.567 88.4569 115.482C90.4996 111.396 91.0832 109.451 91.7641 107.457C92.4451 105.463 93.4664 102.204 93.8555 100.696C94.2446 99.1885 95.3632 95.3463 95.7037 93.8872C96.0442 92.4281 97.0169 88.3913 97.5032 86.2513C97.9896 84.1113 99.0596 79.734 99.3514 78.2263C99.6432 76.7185 100.47 73.3626 100.956 71.3199C101.443 69.2772 102.561 64.8513 102.902 63.5381M69.6832 45.5913C69.7381 45.4739 69.7995 45.3431 69.8658 45.2021M102.902 63.5381L102.923 63.4585M102.902 63.5381C102.909 63.5122 102.915 63.4857 102.923 63.4585M86.3169 117.67C87.3869 115.822 88.0191 114.363 88.9919 112.077C89.9646 109.791 90.6942 107.457 91.2778 105.803C91.8614 104.149 92.9801 100.21 93.4178 98.7021C93.8555 97.1944 94.7796 93.5466 95.0714 92.428C95.3632 91.3094 96.1414 88.1966 96.6278 86.0566C97.1141 83.9166 98.0869 79.8312 98.7191 77.3021C99.3514 74.773 100.567 70.0066 101.054 67.9639C101.54 65.9212 102.318 63.2462 102.805 61.3494C103.291 59.4526 104.458 55.7562 105.042 53.9566C105.626 52.1571 106.355 50.3089 106.987 48.6553C107.62 47.0016 108.641 44.7644 109.176 43.5971C109.711 42.4298 110.976 40.0466 112.532 37.9066C114.088 35.7666 115.839 34.113 117.152 33.2862C118.466 32.4594 119.633 31.973 120.897 31.7299C122.162 31.4867 123.913 31.6812 124.691 31.8271C125.469 31.973 127.026 32.5567 127.123 32.6053C127.22 32.654 127.658 32.8485 127.706 32.9458C127.755 33.043 127.706 33.2376 127.317 33.0431C126.928 32.8486 125.323 32.3135 123.67 32.1676C122.016 32.0217 120.119 32.2649 118.709 33.0431C117.298 33.8213 115.645 35.0372 114.04 36.934C112.435 38.8308 111.073 41.1654 110.197 42.8676C109.322 44.5699 108.155 47.0504 107.133 49.8713C106.112 52.6922 105.674 54.1513 104.847 56.6804C104.037 59.1596 103.273 62.1062 102.923 63.4585M86.3169 117.67L86.248 117.789M86.3169 117.67C86.2939 117.71 86.271 117.75 86.248 117.789M74.2551 41.4085C74.6928 40.6303 75.8601 38.7821 76.5896 37.858C77.3192 36.9339 78.681 35.3776 79.6051 34.7453M74.2551 41.4085L74.2227 41.466M74.2551 41.4085C74.2442 41.4277 74.2334 41.4469 74.2227 41.466M79.6051 34.7453L79.6274 34.73M79.6051 34.7453C79.6125 34.7402 79.6199 34.7351 79.6274 34.73M72.1541 45.5913C72.1733 45.543 72.1927 45.4943 72.2123 45.4453C73.3982 42.9313 73.7976 42.2215 74.2227 41.466M72.1541 45.5913C72.4167 45.6723 73.5352 45.8636 75.9087 45.9803C78.8755 46.1262 80.7237 45.6398 82.1342 45.2021C83.5446 44.7644 85.9278 43.1107 86.9978 41.1166C88.0678 39.1226 87.9705 36.5448 87.3869 35.2316C86.8032 33.9185 85.5873 33.1403 83.6905 33.1889C81.8089 33.2372 80.5495 34.099 79.6274 34.73M72.1541 45.5913C72.0879 45.7577 72.0242 45.9196 71.9626 46.0776M71.9626 46.0776C71.0684 48.373 70.6372 49.8342 69.8778 52.1571C69.051 54.6862 68.2242 57.7016 67.5432 60.5225C66.8623 63.3435 66.4246 65.8239 66.0842 67.3316C65.7437 68.8394 65.1114 73.4598 64.8682 75.3566C64.6251 77.2535 64.3332 81.8739 64.2846 82.8466C64.236 83.8194 64.236 87.3698 64.1873 89.0721C64.1387 90.7744 64.3332 95.0544 64.4305 96.708C64.5278 98.3616 64.9655 101.377 65.1114 102.447C65.2573 103.517 65.5492 105.365 66.2301 108.381C66.911 111.396 67.8837 113.925 69.4401 117.378C70.9964 120.832 72.8932 122.534 74.2064 123.604C75.5196 124.674 78.681 125.403 81.4046 123.458C84.0699 121.554 85.1982 119.604 86.248 117.789M71.9626 46.0776C73.4152 46.3207 76.4923 46.7098 78.7296 46.4666C80.9669 46.2235 82.8637 45.6885 84.4687 44.6671C86.0737 43.6457 87.1437 42.2353 87.6787 41.1166C88.2137 39.998 88.7973 37.4689 88.1164 35.718C87.4355 33.9671 86.3169 33.1889 85.5387 32.8485C84.7605 32.508 83.3014 32.2648 81.9396 32.4594C80.5778 32.6539 79.1187 33.2862 77.8055 34.1616C76.4923 35.0371 75.1305 36.4476 74.1578 37.6635C73.1851 38.8794 72.1541 40.6789 71.726 41.4085C71.4184 41.9326 70.4499 43.9604 69.8658 45.2021" stroke="#AC924D"/>
<defs>
<filter id="filter0_i_262_1113" x="27.7937" y="31.1146" width="100.427" height="98.6807" filterUnits="userSpaceOnUse" color-interpolation-filters="sRGB">
<feFlood flood-opacity="0" result="BackgroundImageFix"/>
<feBlend mode="normal" in="SourceGraphic" in2="BackgroundImageFix" result="shape"/>
<feColorMatrix in="SourceAlpha" type="matrix" values="0 0 0 0 0 0 0 0 0 0 0 0 0 0 0 0 0 0 127 0" result="hardAlpha"/>
<feOffset dy="4"/>
<feGaussianBlur stdDeviation="3"/>
<feComposite in2="hardAlpha" operator="arithmetic" k2="-1" k3="1"/>
<feColorMatrix type="matrix" values="0 0 0 0 1 0 0 0 0 0.962917 0 0 0 0 0.629167 0 0 0 0.6 0"/>
<feBlend mode="normal" in2="shape" result="effect1_innerShadow_262_1113"/>
</filter>
</defs>
</svg>
