<svg width="186" height="186" viewBox="0 0 186 186" fill="none" xmlns="http://www.w3.org/2000/svg">
<path d="M46.0771 168.108V165.571C47.3171 165.12 50.1015 163.711 51.319 161.682C52.8408 159.146 53.3481 156.356 53.6017 154.919C53.8553 153.481 54.1935 148.747 54.1935 147.648V48.645C54.1935 46.2778 53.7201 40.2919 53.5171 39.0069C53.3142 37.7218 52.7562 35.3038 52.4181 34.3569C51.9651 33.0887 51.0653 31.5669 50.1353 30.5523C49.2053 29.5378 47.2608 28.7769 46.2462 28.7769V25.7332H79.0499V28.4387C78.2608 28.495 76.1753 29.1827 74.1462 31.4823C71.6099 34.3569 70.9335 42.3887 70.9335 49.2369V135.135C70.9335 141.56 70.8828 155.95 72.709 159.738C73.4835 161.344 74.8226 164.608 79.219 164.81V168.108H46.0771Z" fill="#FFFFFD"/>
<g filter="url(#filter0_i_175_583)">
<path d="M78.5429 35.7942C77.8665 37.2597 75.922 41.9322 73.5547 48.8988C70.5956 57.607 70.1729 60.9042 68.9047 65.8079C67.6365 70.7115 66.2838 79.0815 65.692 84.8306C65.1002 90.5797 64.5929 95.3142 64.3393 102.162C64.0856 109.011 64.0856 112.223 64.3393 118.902C64.5929 125.582 65.8611 134.121 66.7911 138.94C67.7211 143.759 69.6656 151.03 71.6102 155.849C73.5547 160.668 77.1056 165.741 77.8665 166.671C78.6274 167.601 80.2338 169.799 82.6011 171.405C84.9684 173.012 86.6593 174.026 90.1256 174.28C93.592 174.533 95.452 174.026 97.2274 173.181C99.0029 172.335 101.37 170.729 103.315 168.7C105.259 166.671 107.627 164.388 111.177 157.286C114.728 150.184 115.743 146.802 116.927 143.336C118.11 139.87 119.886 134.205 120.562 131.584C121.238 128.963 123.183 122.284 123.775 119.748C124.367 117.212 126.057 110.194 126.903 106.474C127.748 102.754 129.608 95.1451 130.116 92.5242C130.623 89.9033 132.06 84.0697 132.906 80.5188C133.751 76.9679 135.696 69.2742 136.287 66.9915L136.323 66.8531C136.933 64.5025 138.26 59.3803 139.669 55.0706C141.107 50.6742 141.867 48.1379 143.643 43.2342C145.418 38.3306 147.447 34.0188 148.969 31.0597C150.491 28.1006 152.858 24.0424 155.648 20.7451C158.438 17.4479 161.313 15.3342 163.765 13.9815C166.217 12.6288 169.514 12.206 172.388 12.4597C175.263 12.7133 178.053 13.6434 178.729 13.9815C179.406 14.3196 179.49 13.9814 179.406 13.8123C179.321 13.6433 178.56 13.3051 178.391 13.2205C178.222 13.136 175.517 12.1214 174.164 11.8678C172.811 11.6142 169.767 11.276 167.569 11.6987C165.371 12.1214 163.342 12.9668 161.059 14.4041C158.777 15.8414 155.733 18.7159 153.027 22.4359C150.322 26.1559 148.124 30.2986 147.194 32.3277C146.264 34.3568 144.488 38.2459 143.389 41.1205C142.29 43.995 141.022 47.2077 140.007 50.3359C138.993 53.4641 136.964 59.8895 136.118 63.1868C135.273 66.4841 133.92 71.1341 133.075 74.685C132.229 78.2359 130.116 86.5214 129.017 90.9177C127.917 95.3141 126.227 102.416 125.381 106.136C124.536 109.856 123.183 115.267 122.676 117.211C122.168 119.156 120.562 125.497 119.801 128.118C119.04 130.739 117.096 137.587 116.081 140.461C115.067 143.336 113.798 147.394 112.107 151.368C110.417 155.341 109.317 157.878 107.457 161.09L107.338 161.297C105.513 164.452 103.551 167.842 98.9184 171.151C94.1838 174.533 88.6884 173.265 86.4056 171.405C84.1229 169.545 80.8256 166.586 78.1202 160.583C75.4147 154.58 73.7238 150.184 72.5402 144.942C71.3565 139.7 70.8493 136.488 70.5956 134.628C70.342 132.768 69.5811 127.526 69.412 124.651C69.2429 121.777 68.9047 114.337 68.9893 111.378C69.0738 108.419 69.0738 102.247 69.1584 100.556C69.2429 98.865 69.7502 90.8332 70.1729 87.5359C70.5956 84.2386 71.6947 76.2068 72.2865 73.5859C72.8784 70.965 73.6393 66.6532 74.8229 61.7495C76.0065 56.8459 77.4438 51.6041 78.8811 47.2077C80.2012 43.1698 80.9507 40.6297 82.5052 36.6395C82.6122 36.365 82.723 36.0835 82.838 35.7942C82.8714 35.7103 82.9052 35.6257 82.9393 35.5405C85.0006 31.1704 85.6949 29.9365 86.4339 28.6233L86.4902 28.5232C87.2511 27.1705 89.2802 23.9577 90.5484 22.3514C91.8165 20.745 94.1838 18.0395 95.7902 16.9405L95.829 16.9139C97.432 15.817 99.6212 14.3189 102.892 14.235C106.189 14.1505 108.303 15.5032 109.317 17.7859C110.332 20.0686 110.501 24.5495 108.641 28.0159C106.781 31.4823 102.638 34.3568 100.187 35.1177C97.7347 35.8786 94.522 36.7241 89.3647 36.4705C85.2389 36.2675 83.2945 35.9351 82.838 35.7942C82.723 36.0835 82.6122 36.365 82.5052 36.6395C85.0303 37.0623 90.3793 37.7386 94.2684 37.3159C98.1574 36.8932 101.455 35.9632 104.245 34.1877C107.035 32.4123 108.895 29.9605 109.825 28.0159C110.755 26.0714 111.769 21.675 110.586 18.6314C109.402 15.5877 107.457 14.235 106.105 13.6432C104.752 13.0514 102.216 12.6286 99.8484 12.9668C97.4811 13.305 94.9447 14.4041 92.662 15.9259C90.3793 17.4477 88.012 19.8995 86.3211 22.0132C84.6302 24.1268 82.838 27.255 82.0938 28.5232C81.5591 29.4343 79.8755 32.9592 78.8602 35.1177C78.7449 35.3628 78.6383 35.5902 78.5429 35.7942Z" fill="#AC924D"/>
<path d="M6.93291 66.1446C7.04564 66.4546 7.40636 67.0069 7.94745 66.7364C8.48854 66.4659 8.56745 66.1164 8.53927 65.9755C8.39836 65.75 8.09964 65.13 8.032 64.4537C7.94745 63.6082 7.94745 61.4946 7.94745 61.3255C7.94745 61.1564 8.032 58.9582 8.28564 57.2673C8.53927 55.5764 9.30018 53.1246 9.80745 52.0255L9.83369 51.9686C10.3628 50.8221 11.7718 47.7685 12.9356 46.0228C14.1193 44.2473 15.9793 41.7955 18.3465 39.6819C20.7138 37.5682 22.4893 36.4691 24.6875 35.2855C26.8856 34.1019 30.2675 32.6646 32.0429 32.1573C33.8184 31.65 36.3547 30.8891 42.0193 30.2973C47.6838 29.7055 53.6026 30.443 54.0247 30.4664C54.3227 30.4829 60.9574 31.3569 61.7184 31.4808C62.9302 31.6781 65.5736 32.1235 66.4529 32.3264C67.8902 32.6581 73.6054 34.171 78.5429 35.7942C78.6383 35.5902 78.7449 35.3628 78.8602 35.1177C77.9093 34.7795 75.7529 34.1032 74.9074 33.8495C74.062 33.5959 70.9338 32.6659 69.5811 32.3264C68.2284 31.9869 63.3247 30.7214 59.2665 30.045C55.2084 29.3686 48.6984 28.8614 46.2465 28.8614C43.7947 28.8614 40.1593 29.1995 37.792 29.5377C35.4247 29.8759 32.4656 30.5523 29.6756 31.5668C26.8856 32.5814 23.5884 34.3568 21.4747 35.7095C19.3611 37.0623 16.402 39.8523 15.0493 41.3741C13.6965 42.8959 10.822 47.4614 10.2302 48.7295C9.63836 49.9977 8.20109 53.6332 7.86291 54.7323C7.52473 55.8314 7.102 57.7759 6.84836 59.2132C6.64545 60.363 6.59473 62.4541 6.59473 63.3559C6.59473 63.897 6.73132 65.5902 6.93291 66.1446Z" fill="#AC924D"/>
</g>
<path d="M9.80745 52.0255C9.30018 53.1246 8.53927 55.5764 8.28564 57.2673C8.032 58.9582 7.94745 61.1564 7.94745 61.3255C7.94745 61.4946 7.94745 63.6082 8.032 64.4537C8.09964 65.13 8.39836 65.75 8.53927 65.9755C8.56745 66.1164 8.48854 66.4659 7.94745 66.7364C7.40636 67.0069 7.04564 66.4546 6.93291 66.1446C6.73132 65.5902 6.59473 63.897 6.59473 63.3559C6.59473 62.4541 6.64545 60.363 6.84836 59.2132C7.102 57.7759 7.52473 55.8314 7.86291 54.7323C8.20109 53.6332 9.63836 49.9977 10.2302 48.7295C10.822 47.4614 13.6965 42.8959 15.0493 41.3741C16.402 39.8523 19.3611 37.0623 21.4747 35.7095C23.5884 34.3568 26.8856 32.5814 29.6756 31.5668C32.4656 30.5523 35.4247 29.8759 37.792 29.5377C40.1593 29.1995 43.7947 28.8614 46.2465 28.8614C48.6984 28.8614 55.2084 29.3686 59.2665 30.045C63.3247 30.7214 68.2284 31.9869 69.5811 32.3264C70.9338 32.6659 74.062 33.5959 74.9074 33.8495C75.7529 34.1032 77.9093 34.7795 78.8602 35.1177M9.80745 52.0255L9.83369 51.9686M9.80745 52.0255C9.81594 52.0071 9.82469 51.9881 9.83369 51.9686M78.5429 35.7942C73.6054 34.171 67.8902 32.6581 66.4529 32.3264C65.5736 32.1235 62.9302 31.6781 61.7184 31.4808C60.9574 31.3569 54.3227 30.4829 54.0247 30.4664C53.6026 30.443 47.6838 29.7055 42.0193 30.2973C36.3547 30.8891 33.8184 31.65 32.0429 32.1573C30.2675 32.6646 26.8856 34.1019 24.6875 35.2855C22.4893 36.4691 20.7138 37.5682 18.3465 39.6819C15.9793 41.7955 14.1193 44.2473 12.9356 46.0228C11.7718 47.7685 10.3628 50.8221 9.83369 51.9686M78.5429 35.7942C77.8665 37.2597 75.922 41.9322 73.5547 48.8988C70.5956 57.607 70.1729 60.9042 68.9047 65.8079C67.6365 70.7115 66.2838 79.0815 65.692 84.8306C65.1002 90.5797 64.5929 95.3142 64.3393 102.162C64.0856 109.011 64.0856 112.223 64.3393 118.902C64.5929 125.582 65.8611 134.121 66.7911 138.94C67.7211 143.759 69.6656 151.03 71.6102 155.849C73.5547 160.668 77.1056 165.741 77.8665 166.671C78.6274 167.601 80.2338 169.799 82.6011 171.405C84.9684 173.012 86.6593 174.026 90.1256 174.28C93.592 174.533 95.452 174.026 97.2274 173.181C99.0029 172.335 101.37 170.729 103.315 168.7C105.259 166.671 107.627 164.388 111.177 157.286C114.728 150.184 115.743 146.802 116.927 143.336C118.11 139.87 119.886 134.205 120.562 131.584C121.238 128.963 123.183 122.284 123.775 119.748C124.367 117.212 126.057 110.194 126.903 106.474C127.748 102.754 129.608 95.1451 130.116 92.5242C130.623 89.9033 132.06 84.0697 132.906 80.5188C133.751 76.9679 135.696 69.2742 136.287 66.9915M78.5429 35.7942C78.6383 35.5902 78.7449 35.3628 78.8602 35.1177M136.287 66.9915L136.323 66.8531M136.287 66.9915C136.299 66.9465 136.311 66.9004 136.323 66.8531M107.457 161.09C109.317 157.878 110.417 155.341 112.107 151.368C113.798 147.394 115.067 143.336 116.081 140.461C117.096 137.587 119.04 130.739 119.801 128.118C120.562 125.497 122.168 119.156 122.676 117.211C123.183 115.267 124.536 109.856 125.381 106.136C126.227 102.416 127.917 95.3141 129.017 90.9177C130.116 86.5214 132.229 78.2359 133.075 74.685C133.92 71.1341 135.273 66.4841 136.118 63.1868C136.964 59.8895 138.993 53.4641 140.007 50.3359C141.022 47.2077 142.29 43.995 143.389 41.1205C144.488 38.2459 146.264 34.3568 147.194 32.3277C148.124 30.2986 150.322 26.1559 153.027 22.4359C155.733 18.7159 158.777 15.8414 161.059 14.4041C163.342 12.9668 165.371 12.1214 167.569 11.6987C169.767 11.276 172.811 11.6142 174.164 11.8678C175.517 12.1214 178.222 13.136 178.391 13.2205C178.56 13.3051 179.321 13.6433 179.406 13.8123C179.49 13.9814 179.406 14.3196 178.729 13.9815C178.053 13.6434 175.263 12.7133 172.388 12.4597C169.514 12.206 166.217 12.6288 163.765 13.9815C161.313 15.3342 158.438 17.4479 155.648 20.7451C152.858 24.0424 150.491 28.1006 148.969 31.0597C147.447 34.0188 145.418 38.3306 143.643 43.2342C141.867 48.1379 141.107 50.6742 139.669 55.0706C138.26 59.3803 136.933 64.5025 136.323 66.8531M107.457 161.09L107.338 161.297M107.457 161.09C107.418 161.159 107.378 161.228 107.338 161.297M86.4902 28.5232C87.2511 27.1705 89.2802 23.9577 90.5484 22.3514C91.8165 20.745 94.1838 18.0395 95.7902 16.9405M86.4902 28.5232L86.4339 28.6233M86.4902 28.5232C86.4714 28.5566 86.4526 28.59 86.4339 28.6233M95.7902 16.9405L95.829 16.9139M95.7902 16.9405C95.8031 16.9316 95.816 16.9227 95.829 16.9139M82.838 35.7942C82.8714 35.7103 82.9052 35.6257 82.9393 35.5405C85.0006 31.1704 85.6949 29.9365 86.4339 28.6233M82.838 35.7942C83.2945 35.9351 85.2389 36.2675 89.3647 36.4705C94.522 36.7241 97.7347 35.8786 100.187 35.1177C102.638 34.3568 106.781 31.4823 108.641 28.0159C110.501 24.5495 110.332 20.0686 109.317 17.7859C108.303 15.5032 106.189 14.1505 102.892 14.235C99.6212 14.3189 97.432 15.817 95.829 16.9139M82.838 35.7942C82.723 36.0835 82.6122 36.365 82.5052 36.6395M82.5052 36.6395C80.9507 40.6297 80.2012 43.1698 78.8811 47.2077C77.4438 51.6041 76.0065 56.8459 74.8229 61.7495C73.6393 66.6532 72.8784 70.965 72.2865 73.5859C71.6947 76.2068 70.5956 84.2386 70.1729 87.5359C69.7502 90.8332 69.2429 98.865 69.1584 100.556C69.0738 102.247 69.0738 108.419 68.9893 111.378C68.9047 114.337 69.2429 121.777 69.412 124.651C69.5811 127.526 70.342 132.768 70.5956 134.628C70.8493 136.488 71.3565 139.7 72.5402 144.942C73.7238 150.184 75.4147 154.58 78.1202 160.583C80.8256 166.586 84.1229 169.545 86.4056 171.405C88.6884 173.265 94.1838 174.533 98.9184 171.151C103.551 167.842 105.513 164.452 107.338 161.297M82.5052 36.6395C85.0303 37.0623 90.3793 37.7386 94.2684 37.3159C98.1574 36.8932 101.455 35.9632 104.245 34.1877C107.035 32.4123 108.895 29.9605 109.825 28.0159C110.755 26.0714 111.769 21.675 110.586 18.6314C109.402 15.5877 107.457 14.235 106.105 13.6432C104.752 13.0514 102.216 12.6286 99.8484 12.9668C97.4811 13.305 94.9447 14.4041 92.662 15.9259C90.3793 17.4477 88.012 19.8995 86.3211 22.0132C84.6302 24.1268 82.838 27.255 82.0938 28.5232C81.5591 29.4343 79.8755 32.9592 78.8602 35.1177" stroke="#AC924D"/>
<defs>
<filter id="filter0_i_175_583" x="6.09473" y="10.9982" width="173.836" height="167.847" filterUnits="userSpaceOnUse" color-interpolation-filters="sRGB">
<feFlood flood-opacity="0" result="BackgroundImageFix"/>
<feBlend mode="normal" in="SourceGraphic" in2="BackgroundImageFix" result="shape"/>
<feColorMatrix in="SourceAlpha" type="matrix" values="0 0 0 0 0 0 0 0 0 0 0 0 0 0 0 0 0 0 127 0" result="hardAlpha"/>
<feOffset dy="4"/>
<feGaussianBlur stdDeviation="3"/>
<feComposite in2="hardAlpha" operator="arithmetic" k2="-1" k3="1"/>
<feColorMatrix type="matrix" values="0 0 0 0 1 0 0 0 0 0.962917 0 0 0 0 0.629167 0 0 0 0.6 0"/>
<feBlend mode="normal" in2="shape" result="effect1_innerShadow_175_583"/>
</filter>
</defs>
</svg>
