<svg width="22" height="17" viewBox="0 0 22 17" fill="none" xmlns="http://www.w3.org/2000/svg">
<path d="M21.4498 12.4434L19.2087 8.56141C19.1758 8.50435 19.1284 8.45698 19.0713 8.42406C19.0143 8.39114 18.9495 8.37385 18.8836 8.37391H14.6187L12.4854 4.67866C12.4525 4.62166 12.4051 4.57432 12.3481 4.5414C12.2911 4.50849 12.2264 4.49116 12.1606 4.49116H7.89687L5.76312 0.706661C5.7125 0.623619 5.6316 0.563494 5.53748 0.538972C5.44337 0.51445 5.34341 0.527451 5.2587 0.575231C5.17399 0.623011 5.11116 0.701832 5.08346 0.79506C5.05576 0.888288 5.06537 0.988631 5.11025 1.07491L7.24625 4.86391L5.22012 8.37316H0.875C0.775544 8.37316 0.680161 8.41267 0.609835 8.483C0.539509 8.55332 0.5 8.6487 0.5 8.74816C0.5 8.84762 0.539509 8.943 0.609835 9.01333C0.680161 9.08365 0.775544 9.12316 0.875 9.12316H5.22012L7.24512 12.6302L5.11175 16.3254C5.06202 16.4116 5.04856 16.514 5.07434 16.6101C5.10011 16.7062 5.16301 16.7881 5.24919 16.8379C5.33537 16.8876 5.43777 16.901 5.53387 16.8753C5.62997 16.8495 5.7119 16.7866 5.76162 16.7004L7.89462 13.0052H11.9427L14.0765 16.7004C14.1094 16.7574 14.1567 16.8047 14.2136 16.8376C14.2705 16.8705 14.3351 16.8878 14.4009 16.8879H18.8836C18.9495 16.888 19.0143 16.8707 19.0713 16.8378C19.1284 16.8048 19.1758 16.7575 19.2087 16.7004L21.4498 12.8184C21.4827 12.7614 21.5 12.6967 21.5 12.6309C21.5 12.5651 21.4827 12.5004 21.4498 12.4434ZM7.89425 5.24116H11.9443L13.9685 8.74779L11.9435 12.2552H7.89425L5.86962 8.74816L7.89425 5.24116ZM18.6672 16.1379H14.6172L12.593 12.6313L14.618 9.12391H18.6672L20.6922 12.6309L18.6672 16.1379Z" fill="#FFFBEF"/>
</svg>
