<svg width="24" height="24" viewBox="0 0 24 24" fill="none" xmlns="http://www.w3.org/2000/svg">
<path d="M16.2213 5.45527V10.8714L15.3989 11.2827" fill="#FFFBEF"/>
<path d="M16.2213 5.45527V10.8714L15.3989 11.2827" stroke="#FFFBEF" stroke-miterlimit="10" stroke-linecap="round" stroke-linejoin="round"/>
<path d="M7.19458 5.45511V10.8712L11.7077 13.1279L12.4884 12.7376" stroke="#FFFBEF" stroke-miterlimit="10" stroke-linecap="round" stroke-linejoin="round"/>
<path d="M13.9685 4.32882L16.2213 5.45521L11.708 7.71191L7.19458 5.45521L11.708 3.1985L12.7917 3.74041" stroke="#FFFBEF" stroke-miterlimit="10" stroke-linecap="round" stroke-linejoin="round"/>
<path d="M11.708 7.7119V13.1279" stroke="#FFFBEF" stroke-miterlimit="10" stroke-linecap="round" stroke-linejoin="round"/>
<path d="M11.7078 14.4092V13.1282" stroke="#FFFBEF" stroke-miterlimit="10" stroke-linecap="round" stroke-linejoin="round"/>
<path d="M2.68115 14.6953V13.1286" stroke="#FFFBEF" stroke-miterlimit="10" stroke-linecap="round" stroke-linejoin="round"/>
<path d="M11.7078 17.3348V18.5445L7.19464 20.8013L2.68115 18.5445V16.0105" stroke="#FFFBEF" stroke-miterlimit="10" stroke-linecap="round" stroke-linejoin="round"/>
<path d="M7.19453 15.3852L2.68115 13.1285L7.19453 10.8719L11.7079 13.1285L7.19453 15.3852ZM7.19453 15.3852V20.8013" stroke="#FFFBEF" stroke-miterlimit="10" stroke-linecap="round" stroke-linejoin="round"/>
<path d="M20.2603 17.4292L21.3187 15.1644" stroke="#FFFBEF" stroke-miterlimit="10" stroke-linecap="round" stroke-linejoin="round"/>
<path d="M13.1409 11.3426L10.8479 16.2493L13.9814 20.2046L19.0257 20.0711L19.7033 18.6211" stroke="#FFFBEF" stroke-miterlimit="10" stroke-linecap="round" stroke-linejoin="round"/>
<path d="M16.2744 15.2979L13.1409 11.3425L18.1852 11.2089L21.3187 15.1642L16.2744 15.2979Z" stroke="#FFFBEF" stroke-miterlimit="10" stroke-linecap="round" stroke-linejoin="round"/>
<path d="M16.2742 15.2979L13.9812 20.2046" stroke="#FFFBEF" stroke-miterlimit="10" stroke-linecap="round" stroke-linejoin="round"/>
<path d="M15.2577 9.61345C15.2577 9.69382 15.2258 9.77091 15.169 9.82774C15.1121 9.88457 15.035 9.9165 14.9547 9.9165C14.8743 9.9165 14.7972 9.88457 14.7404 9.82774C14.6835 9.77091 14.6516 9.69382 14.6516 9.61345C14.6516 9.57365 14.6595 9.53424 14.6747 9.49747C14.6899 9.4607 14.7122 9.4273 14.7404 9.39916C14.7685 9.37102 14.8019 9.3487 14.8387 9.33347C14.8755 9.31824 14.9149 9.31041 14.9547 9.31041C15.0351 9.31041 15.1121 9.34234 15.169 9.39917C15.2258 9.456 15.2577 9.53308 15.2577 9.61345Z" fill="#FFFBEF"/>
<path d="M15.2577 8.43915C15.2577 8.51952 15.2258 8.5966 15.1689 8.65343C15.1121 8.71026 15.035 8.74219 14.9546 8.74219C14.8947 8.74219 14.8361 8.72441 14.7863 8.69112C14.7365 8.65782 14.6976 8.61049 14.6747 8.55512C14.6517 8.49975 14.6457 8.43881 14.6574 8.38003C14.6691 8.32125 14.698 8.26725 14.7404 8.22487C14.7827 8.18249 14.8367 8.15363 14.8955 8.14194C14.9543 8.13024 15.0152 8.13625 15.0706 8.15918C15.126 8.18212 15.1733 8.22096 15.2066 8.27079C15.2399 8.32063 15.2577 8.37922 15.2577 8.43915Z" fill="#FFFBEF"/>
<path d="M14.0834 10.03C14.0834 10.1103 14.0514 10.1874 13.9946 10.2443C13.9378 10.3011 13.8607 10.333 13.7803 10.333C13.7 10.333 13.6229 10.3011 13.5661 10.2443C13.5092 10.1874 13.4773 10.1103 13.4773 10.03C13.4773 9.9496 13.5092 9.87252 13.5661 9.81569C13.6229 9.75886 13.7 9.72694 13.7803 9.72694C13.8607 9.72694 13.9378 9.75886 13.9946 9.81569C14.0514 9.87252 14.0834 9.9496 14.0834 10.03Z" fill="#FFFBEF"/>
</svg>
