<svg width="16" height="22" viewBox="0 0 16 22" fill="none" xmlns="http://www.w3.org/2000/svg">
<path d="M15.2496 7.96906L13.2087 1.03812C13.1629 0.882842 13.0682 0.746522 12.9386 0.64953C12.809 0.552539 12.6515 0.500084 12.4896 0.5H3.51022C3.34834 0.500084 3.19083 0.552539 3.06123 0.64953C2.93163 0.746522 2.83688 0.882842 2.79115 1.03812L0.750215 7.96906C0.430003 9.03139 0.413244 10.1621 0.701833 11.2335C0.990421 12.3048 1.57285 13.2741 2.38334 14.0319C3.71656 15.2822 5.42958 16.0507 7.2499 16.2153V20H4.2499C4.05099 20 3.86023 20.079 3.71957 20.2197C3.57892 20.3603 3.4999 20.5511 3.4999 20.75C3.4999 20.9489 3.57892 21.1397 3.71957 21.2803C3.86023 21.421 4.05099 21.5 4.2499 21.5H11.7499C11.9488 21.5 12.1396 21.421 12.2802 21.2803C12.4209 21.1397 12.4999 20.9489 12.4999 20.75C12.4999 20.5511 12.4209 20.3603 12.2802 20.2197C12.1396 20.079 11.9488 20 11.7499 20H8.7499V16.2153C10.5702 16.0506 12.2832 15.282 13.6165 14.0319C14.427 13.2741 15.0094 12.3048 15.298 11.2335C15.5866 10.1621 15.5698 9.03139 15.2496 7.96906ZM4.07084 2H11.929L13.8124 8.39281C13.8208 8.42094 13.8283 8.44906 13.8358 8.47719C11.8277 9.19719 9.56646 8.32719 8.33928 7.70563C5.97771 6.51031 4.10272 6.35844 2.7199 6.58719L4.07084 2ZM12.5937 12.9359C11.3483 14.1021 9.70601 14.7509 7.9999 14.7509C6.29379 14.7509 4.65153 14.1021 3.40615 12.9359C2.79967 12.3676 2.36415 11.641 2.1488 10.8382C1.93344 10.0354 1.94681 9.1884 2.1874 8.39281L2.22959 8.25031C3.35459 7.86969 5.1424 7.76844 7.66053 9.04437C8.70584 9.57406 10.3943 10.2491 12.2008 10.2491C12.8046 10.252 13.4058 10.1699 13.9868 10.0053C13.9103 11.1234 13.4124 12.1707 12.5937 12.9359Z" fill="#FFFBEF"/>
</svg>
