<svg width="20" height="24" viewBox="0 0 20 24" fill="none" xmlns="http://www.w3.org/2000/svg">
<path d="M19.75 6.00001V5.62501C19.75 5.22719 19.592 4.84565 19.3107 4.56435C19.0294 4.28305 18.6478 4.12501 18.25 4.12501H18.0212C17.5507 3.00303 16.977 1.92716 16.3075 0.91126C16.2734 0.861192 16.2276 0.820287 16.1739 0.792163C16.1203 0.764039 16.0606 0.749561 16 0.75001H4C3.93944 0.749561 3.87971 0.764039 3.82608 0.792163C3.77244 0.820287 3.72657 0.861192 3.6925 0.91126C3.02302 1.92716 2.44931 3.00303 1.97875 4.12501H1.75C1.35218 4.12501 0.970644 4.28305 0.68934 4.56435C0.408035 4.84565 0.25 5.22719 0.25 5.62501V6.00001C0.25 6.09947 0.289509 6.19485 0.359835 6.26518C0.430161 6.3355 0.525544 6.37501 0.625 6.37501H1.1425C0.565494 8.19486 0.264649 10.0909 0.25 12C0.264649 13.9091 0.565494 15.8052 1.1425 17.625H0.625C0.525544 17.625 0.430161 17.6645 0.359835 17.7348C0.289509 17.8052 0.25 17.9006 0.25 18V18.375C0.25 18.7728 0.408035 19.1544 0.68934 19.4357C0.970644 19.717 1.35218 19.875 1.75 19.875H1.97875C2.44931 20.997 3.02302 22.0729 3.6925 23.0888C3.72657 23.1388 3.77244 23.1797 3.82608 23.2079C3.87971 23.236 3.93944 23.2505 4 23.25H16C16.0606 23.2505 16.1203 23.236 16.1739 23.2079C16.2276 23.1797 16.2734 23.1388 16.3075 23.0888C16.977 22.0729 17.5507 20.997 18.0212 19.875H18.25C18.6478 19.875 19.0294 19.717 19.3107 19.4357C19.592 19.1544 19.75 18.7728 19.75 18.375V18C19.75 17.9006 19.7105 17.8052 19.6402 17.7348C19.5698 17.6645 19.4745 17.625 19.375 17.625H18.8575C19.4345 15.8052 19.7354 13.9091 19.75 12C19.7354 10.0909 19.4345 8.19486 18.8575 6.37501H19.375C19.4745 6.37501 19.5698 6.3355 19.6402 6.26518C19.7105 6.19485 19.75 6.09947 19.75 6.00001ZM16.0488 1.90876C16.075 1.95376 16.1013 1.99876 16.1275 2.04751C16.165 2.10376 16.2025 2.17126 16.24 2.23876C16.27 2.29126 16.3 2.34376 16.33 2.40001L16.4612 2.64001C16.4912 2.70001 16.525 2.75626 16.5588 2.82001C16.6075 2.91751 16.66 3.02251 16.7125 3.12376C16.7425 3.18376 16.7725 3.24001 16.8025 3.30001C16.885 3.46501 16.9675 3.63751 17.05 3.81751C17.0565 3.82801 17.0616 3.83937 17.065 3.85126C17.1063 3.94126 17.1475 4.03126 17.1887 4.12501H16V1.82626C16.015 1.85251 16.03 1.87876 16.0488 1.90876ZM15.25 1.50001V4.12501H12.25V1.50001H15.25ZM11.5 1.50001V4.12501H8.5V1.50001H11.5ZM7.75 1.50001V4.12501H4.75V1.50001H7.75ZM3.20125 3.29626C3.22375 3.24751 3.24625 3.20251 3.2725 3.15376C3.3325 3.03751 3.38875 2.92126 3.445 2.81626C3.475 2.76001 3.50125 2.71126 3.53125 2.65876L3.67375 2.39626C3.7 2.34751 3.72625 2.30251 3.7525 2.25376C3.79375 2.17876 3.83875 2.10376 3.87625 2.03626L3.94375 1.92376C3.9625 1.89001 3.98125 1.86001 4 1.83001V4.12501H2.8075C2.9425 3.82876 3.07375 3.55126 3.20125 3.29626ZM1.9075 17.5163C1.87375 17.4113 1.84375 17.3025 1.81 17.1938C1.765 17.0438 1.72 16.8975 1.67875 16.7438C1.64875 16.6313 1.61875 16.515 1.58875 16.3988C1.5475 16.245 1.51 16.0875 1.4725 15.93C1.44625 15.8138 1.42 15.6938 1.39375 15.5738C1.36 15.4125 1.32625 15.2475 1.29625 15.0825C1.27375 14.9588 1.25125 14.8388 1.2325 14.7188C1.2025 14.5438 1.17625 14.3675 1.15375 14.19C1.13875 14.07 1.12 13.9538 1.10875 13.8338C1.08625 13.6388 1.0675 13.4363 1.0525 13.2338C1.045 13.1325 1.03375 13.0313 1.03 12.9263C1.01125 12.6225 1 12.3113 1 12C1 11.6888 1.01125 11.3775 1.03 11.0738C1.03375 10.9725 1.045 10.8713 1.0525 10.77C1.0675 10.5675 1.08625 10.365 1.10875 10.1663C1.12 10.05 1.13875 9.93376 1.15375 9.81751C1.17625 9.63751 1.2025 9.46126 1.2325 9.28501C1.25125 9.16126 1.27375 9.04501 1.29625 8.92501C1.32625 8.75626 1.36 8.59126 1.39375 8.42626L1.4725 8.07376C1.51 7.91626 1.5475 7.75876 1.58875 7.60126C1.61875 7.48876 1.64875 7.37251 1.67875 7.26376C1.72 7.11001 1.765 6.95626 1.81 6.81001C1.84375 6.70126 1.87375 6.59251 1.9075 6.48751C1.91875 6.45001 1.93375 6.41251 1.945 6.37501H4V17.625H1.945C1.93026 17.5896 1.91773 17.5533 1.9075 17.5163ZM3.95125 22.0913C3.925 22.0463 3.89875 22.0013 3.8725 21.9525C3.835 21.8963 3.7975 21.8288 3.76 21.7613C3.73 21.7088 3.7 21.6563 3.67 21.6C3.62875 21.525 3.58375 21.4425 3.53875 21.3563C3.5045 21.2992 3.47321 21.2403 3.445 21.18C3.3925 21.0825 3.34 20.9775 3.28375 20.8725C3.2575 20.8163 3.2275 20.76 3.1975 20.7C3.115 20.535 3.0325 20.3625 2.95 20.1825C2.94346 20.172 2.93841 20.1607 2.935 20.1488C2.89375 20.0588 2.8525 19.9688 2.81125 19.875H4V22.1738C3.98432 22.1459 3.96807 22.1184 3.95125 22.0913ZM4.75 22.5V19.875H7.75V22.5H4.75ZM8.5 22.5V19.875H11.5V22.5H8.5ZM12.25 22.5V19.875H15.25V22.5H12.25ZM16.7988 20.7038C16.7763 20.7525 16.75 20.7975 16.7275 20.8463C16.6675 20.9625 16.6112 21.0788 16.555 21.1838C16.525 21.24 16.4987 21.2888 16.4688 21.3413L16.3262 21.6038C16.3 21.6525 16.2737 21.6975 16.2475 21.7463C16.2062 21.8213 16.1613 21.8963 16.1238 21.9638L16.0563 22.0763C16.0375 22.11 16.0188 22.14 16 22.17V19.875H17.1925C17.0575 20.1713 16.9263 20.4488 16.7988 20.7038ZM19 18.375C18.9993 18.5595 18.931 18.7374 18.808 18.8749C18.6849 19.0124 18.5158 19.1001 18.3325 19.1213C18.3051 19.1245 18.2776 19.1257 18.25 19.125H1.75C1.72245 19.1257 1.69488 19.1245 1.6675 19.1213C1.48421 19.1001 1.31505 19.0124 1.19204 18.8749C1.06903 18.7374 1.00071 18.5595 1 18.375H5.53375V17.625H4.75V6.37501H7.75V17.625H6.25V18.375H19ZM11.5 17.625H8.5V6.37501H11.5V17.625ZM18.0925 6.48376C18.1263 6.58876 18.1563 6.69751 18.19 6.80626C18.235 6.95626 18.28 7.10251 18.3212 7.25626C18.3925 7.52561 18.4613 7.79562 18.5275 8.06626L18.6063 8.42626C18.6438 8.58751 18.6737 8.75251 18.7037 8.91751C18.7262 9.04126 18.7488 9.16126 18.7675 9.28126C18.7975 9.45626 18.8238 9.63251 18.8463 9.81001C18.8613 9.93001 18.88 10.0463 18.8912 10.1663C18.9137 10.3613 18.9325 10.5638 18.9475 10.7663C18.955 10.8675 18.9662 10.9688 18.97 11.0738C18.9887 11.3775 19 11.6888 19 12C19 12.3113 18.9887 12.6225 18.97 12.9263C18.9662 13.0275 18.955 13.1288 18.9475 13.23C18.9325 13.4325 18.9137 13.635 18.8912 13.8338C18.88 13.95 18.8613 14.0663 18.8463 14.1825C18.8238 14.3625 18.7975 14.5388 18.7675 14.715C18.7488 14.8388 18.7262 14.955 18.7037 15.075C18.6737 15.2438 18.64 15.4088 18.6063 15.57C18.58 15.69 18.5538 15.81 18.5275 15.9263C18.49 16.0838 18.4525 16.2413 18.4113 16.3988C18.3813 16.5113 18.3512 16.6275 18.3212 16.7363C18.28 16.89 18.235 17.0438 18.19 17.19C18.1563 17.2988 18.1263 17.4075 18.0925 17.5125C18.0813 17.55 18.0662 17.5875 18.055 17.625H16V6.37501H18.055C18.0697 6.41045 18.0823 6.44677 18.0925 6.48376ZM18.6063 5.62501H14.1287V6.37501H15.25V17.625H12.25V6.37501H13.375V5.62501H1C1.00071 5.4405 1.06903 5.26265 1.19204 5.12513C1.31505 4.98761 1.48421 4.89995 1.6675 4.87876C1.69488 4.87555 1.72245 4.8743 1.75 4.87501H18.25C18.2776 4.8743 18.3051 4.87555 18.3325 4.87876C18.5158 4.89995 18.6849 4.98761 18.808 5.12513C18.931 5.26265 18.9993 5.4405 19 5.62501H18.6063Z" fill="#FFFBEF"/>
</svg>
